<ttFont>
<head>
    <!-- Most of this table will be recalculated by the compiler -->
    <tableVersion value="1.0"/>
    <fontRevision value="1.002"/>
    <checkSumAdjustment value="0xe27f4d7a"/>
    <magicNumber value="0x5f0f3cf5"/>
    <flags value="00000000 00000011"/>
    <unitsPerEm value="1000"/>
    <created value="Wed Aug  3 19:40:04 2022"/>
    <modified value="Wed Aug  3 19:43:38 2022"/>
    <xMin value="-154"/>
    <yMin value="-252"/>
    <xMax value="1338"/>
    <yMax value="886"/>
    <macStyle value="00000000 00000010"/>
    <lowestRecPPEM value="8"/>
    <fontDirectionHint value="2"/>
    <indexToLocFormat value="0"/>
    <glyphDataFormat value="0"/>
  </head>
        <CharString name=".notdef">
          -7 0 21 659 20 hstem
          50 21 386 20 vstem
          50 hmoveto
          427 700 -427 hlineto
          29 -679 rmoveto
          185 308 185 -308 rlineto
          -378 28 rmoveto
          601 vlineto
          180 -300 rlineto
          206 -303 rmoveto
          -181 303 181 302 rlineto
          -194 -281 rmoveto
          -185 309 rlineto
          371 hlineto
          endchar
        </CharString>
        <CharString name=".notdef#1">
          0 50 433 50 hstem
          50 50 614 50 vstem
          50 hmoveto
          714 533 -714 hlineto
          50 -483 rmoveto
          433 614 -433 vlineto
          endchar
        </CharString>
        <CharString name="A">
          93 21 -21 146 80 347 95 0 -20 hstemhm
          -52 617 hintmask 11011000
          -52 hmoveto
          108 hlineto
          83 146 rlineto
          302 hlineto
          21 -146 rlineto
          103 hlineto
          -109 668 rlineto
          -116 hlineto
          hintmask 11101000
          41 -95 rmoveto
          49 -347 rlineto
          -246 hlineto
          endchar
        </CharString>
        <CharString name="AE">
          457 0 81 64 81 77 80 203 81 hstem
          -52 1084 vstem
          -52 hmoveto
          112 hlineto
          134 145 rlineto
          272 hlineto
          -31 -145 rlineto
          456 hlineto
          17 81 rlineto
          -359 hlineto
          47 222 rlineto
          266 hlineto
          17 80 rlineto
          -266 hlineto
          43 203 rlineto
          359 hlineto
          17 81 rlineto
          -455 hlineto
          -29 -138 rmoveto
          -65 -303 rlineto
          -216 hlineto
          endchar
        </CharString>
        <CharString name="Aacute">
          93 21 -21 146 80 347 95 0 -20 96 120 hstemhm
          -52 623 hintmask 11011100
          -52 hmoveto
          108 hlineto
          83 146 rlineto
          302 hlineto
          21 -146 rlineto
          103 hlineto
          -109 668 rlineto
          -116 hlineto
          -156 -442 rmoveto
          hintmask 11101100
          197 347 49 -347 rlineto
          -57 518 rmoveto
          81 hlineto
          10 5 73 35 15 10 rrcurveto
          9 6 10 11 17 vvcurveto
          20 -16 16 -20 -8 -9 -3 -6 -9 vhcurveto
          -19 -13 -107 -90 -10 -8 rrcurveto
          endchar
        </CharString>
        <CharString name="Abreve">
          93 21 -21 146 80 347 95 0 -20 87 67 hstemhm
          -52 633 hintmask 11011100
          -52 hmoveto
          108 hlineto
          83 146 rlineto
          302 hlineto
          21 -146 rlineto
          103 hlineto
          -109 668 rlineto
          -116 hlineto
          -156 -442 rmoveto
          hintmask 11101100
          197 347 49 -347 rlineto
          82 629 rmoveto
          -27 -17 -29 -26 -43 hhcurveto
          -43 -19 27 26 -5 hvcurveto
          -69 hlineto
          -55 44 -65 85 86 55 61 59 24 vhcurveto
          endchar
        </CharString>
        <CharString name="Acircumflex">
          93 21 -21 146 80 347 95 0 -20 99 120 hstemhm
          -52 623 hintmask 11011100
          56 hmoveto
          83 146 rlineto
          302 hlineto
          21 -146 rlineto
          103 hlineto
          -109 668 rlineto
          -116 hlineto
          -392 -668 rlineto
          236 226 rmoveto
          hintmask 11101100
          197 347 49 -347 rlineto
          -86 521 rmoveto
          80 61 55 -61 rlineto
          92 hlineto
          -91 101 rlineto
          13 -11 -17 6 -17 hhcurveto
          -18 -19 -6 -13 -17 hvcurveto
          -133 -101 rlineto
          endchar
        </CharString>
        <CharString name="Adieresis">
          93 21 -21 146 80 347 95 0 -20 94 107 hstemhm
          256 108 104 107 hintmask 11011110
          -52 hmoveto
          108 hlineto
          83 146 rlineto
          302 hlineto
          21 -146 rlineto
          103 hlineto
          -109 668 rlineto
          -116 hlineto
          -156 -442 rmoveto
          hintmask 11101110
          197 347 49 -347 rlineto
          -174 570 rmoveto
          -30 24 -24 30 30 24 24 30 29 -24 24 -30 -30 -24 -24 -29 vhcurveto
          212 hmoveto
          -30 24 -24 29 30 24 24 30 29 -24 24 -30 -29 -24 -24 -29 vhcurveto
          endchar
        </CharString>
        <CharString name="Agrave">
          93 21 -21 146 80 347 95 0 -20 96 120 hstemhm
          -52 617 hintmask 11011100
          -52 hmoveto
          108 hlineto
          83 146 rlineto
          302 hlineto
          21 -146 rlineto
          103 hlineto
          -109 668 rlineto
          -116 hlineto
          -156 -442 rmoveto
          hintmask 11101100
          197 347 49 -347 rlineto
          -134 602 rmoveto
          -25 19 -14 61 -45 vhcurveto
          73 hlineto
          -84 103 rlineto
          -12 17 -21 0 0 vvcurveto
          -27 -9 -24 -12 hvcurveto
          endchar
        </CharString>
        <CharString name="Amacron">
          93 21 -21 146 80 347 95 0 -20 114 67 hstemhm
          -52 622 hintmask 11011100
          -52 hmoveto
          108 hlineto
          83 146 rlineto
          302 hlineto
          21 -146 rlineto
          103 hlineto
          -109 668 rlineto
          -116 hlineto
          -156 -442 rmoveto
          hintmask 11101100
          197 347 49 -347 rlineto
          125 536 rmoveto
          15 67 rlineto
          -276 hlineto
          -15 -67 rlineto
          endchar
        </CharString>
        <CharString name="Aogonek">
          93 -173 57 137 -21 146 80 347 95 0 -20 hstemhm
          380 77 hintmask 11101100
          56 hmoveto
          83 146 rlineto
          302 hlineto
          21 -146 rlineto
          24 hlineto
          -64 -19 -42 -42 -45 vvcurveto
          -37 29 -30 55 19 22 4 8 26 vhcurveto
          11 54 rlineto
          -6 -16 -15 -3 -13 hhcurveto
          -24 -17 11 16 34 45 32 63 23 hvcurveto
          -109 668 rlineto
          -116 hlineto
          -392 -668 rlineto
          hintmask 11110100
          433 573 rmoveto
          49 -347 rlineto
          -246 hlineto
          endchar
        </CharString>
        <CharString name="Aring">
          93 21 -21 146 80 452 -20 122 58 hstem
          297 57 104 57 vstem
          56 hmoveto
          83 146 rlineto
          302 hlineto
          21 -146 rlineto
          103 hlineto
          -104 634 rlineto
          33 19 21 36 40 vvcurveto
          59 -46 50 -61 -62 -49 -50 -59 -30 13 -28 20 -20 vhcurveto
          -382 -651 rlineto
          433 573 rmoveto
          49 -347 rlineto
          -246 hlineto
          170 503 rmoveto
          28 23 23 29 29 23 -23 -28 -28 -23 -23 -29 -29 -23 23 28 vhcurveto
          endchar
        </CharString>
        <CharString name="Atilde">
          93 21 -21 146 80 347 95 0 -20 103 63 -21 63 hstemhm
          -52 651 hintmask 11010110
          -52 hmoveto
          108 hlineto
          83 146 rlineto
          302 hlineto
          21 -146 rlineto
          103 hlineto
          -109 668 rlineto
          -116 hlineto
          -156 -442 rmoveto
          hintmask 11100110
          197 347 49 -347 rlineto
          -130 527 rmoveto
          25 11 21 15 30 hhcurveto
          hintmask 11011010
          52 18 -42 59 hhcurveto
          55 31 30 27 17 hvcurveto
          hintmask 11010110
          22 14 -16 26 -23 hhcurveto
          -8 -10 -4 -9 -9 hvcurveto
          hintmask 11011010
          -13 -13 -13 -16 -25 hhcurveto
          hintmask 11010110
          -41 -21 42 -66 hhcurveto
          -53 -48 -32 -71 -27 hvcurveto
          endchar
        </CharString>
        <CharString name="B">
          96 0 79 229 74 206 80 hstem
          468 104 -68 100 vstem
          14 hmoveto
          286 hlineto
          290 50 293 59 -150 hvcurveto
          79 165 -2 237 -246 hhcurveto
          -251 hlineto
          20 -360 rmoveto
          172 hlineto
          188 -47 -229 -181 hhcurveto
          -181 hlineto
          108 509 rmoveto
          165 hlineto
          154 -22 -206 -168 hhcurveto
          -172 hlineto
          endchar
        </CharString>
        <CharString name="C">
          132 -12 79 533 80 hstem
          54 96 vstem
          316 -12 rmoveto
          118 99 51 101 63 hvcurveto
          -79 31 rlineto
          -72 -48 -56 -32 -87 hhcurveto
          -125 -73 115 154 28 hvcurveto
          162 29 100 102 127 hhcurveto
          76 57 -35 -67 22 hvcurveto
          89 30 rlineto
          103 -32 -86 49 -116 hhcurveto
          -192 -136 -146 -198 -34 hvcurveto
          -161 -28 60 -187 224 hhcurveto
          endchar
        </CharString>
        <CharString name="Cacute">
          132 -12 79 533 80 hstem
          54 96 vstem
          316 -12 rmoveto
          118 99 51 101 63 hvcurveto
          -79 31 rlineto
          -72 -48 -56 -32 -87 hhcurveto
          -125 -73 115 154 28 hvcurveto
          162 29 100 102 127 hhcurveto
          76 57 -35 -67 22 hvcurveto
          89 30 rlineto
          103 -32 -86 49 -116 hhcurveto
          -192 -136 -146 -198 -34 hvcurveto
          -161 -28 60 -187 224 hhcurveto
          92 756 rmoveto
          81 hlineto
          10 5 73 35 15 10 rrcurveto
          9 6 10 11 17 vvcurveto
          20 -16 16 -20 -8 -9 -3 -6 -9 vhcurveto
          -19 -13 -107 -90 -10 -8 rrcurveto
          endchar
        </CharString>
        <CharString name="Ccaron">
          132 -12 79 533 80 61 120 hstem
          54 96 vstem
          316 -12 rmoveto
          118 99 51 101 63 hvcurveto
          -79 31 rlineto
          -72 -48 -56 -32 -87 hhcurveto
          -125 -73 115 154 28 hvcurveto
          162 29 100 102 127 hhcurveto
          76 57 -35 -67 22 hvcurveto
          89 30 rlineto
          103 -32 -86 49 -116 hhcurveto
          -192 -136 -146 -198 -34 hvcurveto
          -161 -28 60 -187 224 hhcurveto
          -4 873 rmoveto
          91 -101 rlineto
          -13 11 17 -6 18 hhcurveto
          17 19 6 13 17 hvcurveto
          133 101 rlineto
          -97 hlineto
          -81 -61 -54 61 rlineto
          endchar
        </CharString>
        <CharString name="Ccedilla">
          132 -180 40 128 79 -54 -21 608 80 hstemhm
          54 96 154 63 hintmask 11011100
          hintmask 10111100
          262 -8 rmoveto
          -41 -49 -12 -15 11 -19 20 5 rlinecurve
          3 12 10 1 8 56 -17 -58 -62 hhcurveto
          -16 -19 4 10 -22 hvcurveto
          -23 -37 rlineto
          -12 33 29 -5 25 hhcurveto
          139 15 157 -22 -130 hvcurveto
          hintmask 11011100
          28 33 rlineto
          124 99 45 107 67 hvcurveto
          -79 31 rlineto
          -72 -48 -56 -32 -87 hhcurveto
          -125 -73 115 154 28 hvcurveto
          162 29 100 102 127 hhcurveto
          76 57 -35 -67 22 hvcurveto
          89 30 rlineto
          103 -32 -86 49 -116 hhcurveto
          -192 -136 -146 -198 -34 hvcurveto
          hintmask 10111100
          -25 -147 47 -169 180 -28 rrcurveto
          endchar
        </CharString>
        <CharString name="Cdotaccent">
          132 -12 79 533 80 62 108 hstem
          54 96 263 108 vstem
          316 -12 rmoveto
          118 99 51 101 63 hvcurveto
          -79 31 rlineto
          -72 -48 -56 -32 -87 hhcurveto
          -125 -73 115 154 28 hvcurveto
          162 29 100 102 127 hhcurveto
          76 57 -35 -67 22 hvcurveto
          89 30 rlineto
          103 -32 -86 49 -116 hhcurveto
          -192 -136 -146 -198 -34 hvcurveto
          -161 -28 60 -187 224 hhcurveto
          151 754 rmoveto
          30 24 24 30 30 -24 24 -30 -30 -24 -24 -30 -30 24 -24 30 hvcurveto
          endchar
        </CharString>
        <CharString name="D">
          142 0 79 509 80 hstem
          544 96 vstem
          14 hmoveto
          185 hlineto
          228 168 104 215 36 hvcurveto
          256 43 -122 93 -212 hhcurveto
          -184 hlineto
          -29 -589 rmoveto
          108 509 rlineto
          85 hlineto
          139 116 -37 -226 -39 hvcurveto
          -182 -31 -129 -64 -163 hhcurveto
          endchar
        </CharString>
        <CharString name="Dcaron">
          142 0 79 509 80 73 120 hstem
          544 96 vstem
          14 hmoveto
          185 hlineto
          228 168 104 215 36 hvcurveto
          256 43 -122 93 -212 hhcurveto
          -184 hlineto
          -29 -589 rmoveto
          108 509 rlineto
          85 hlineto
          139 116 -37 -226 -39 hvcurveto
          -182 -31 -129 -64 -163 hhcurveto
          76 782 rmoveto
          91 -101 rlineto
          -13 11 17 -6 18 hhcurveto
          17 19 6 13 17 hvcurveto
          133 101 rlineto
          -97 hlineto
          -81 -61 -54 61 rlineto
          endchar
        </CharString>
        <CharString name="Dcroat">
          198 0 79 224 80 205 80 hstem
          600 96 vstem
          134 303 rmoveto
          -64 -303 rlineto
          185 hlineto
          228 168 104 215 36 hvcurveto
          256 43 -122 93 -212 hhcurveto
          -184 hlineto
          -61 -285 rlineto
          -92 hlineto
          -17 -80 rlineto
          329 hmoveto
          17 80 rlineto
          -140 hlineto
          43 205 rlineto
          85 hlineto
          139 116 -37 -226 -39 hvcurveto
          -182 -31 -129 -64 -163 hhcurveto
          -86 hlineto
          48 224 rlineto
          endchar
        </CharString>
        <CharString name="E">
          35 0 81 223 80 203 81 hstem
          14 597 vstem
          14 hmoveto
          455 hlineto
          17 81 rlineto
          -359 hlineto
          48 223 rlineto
          264 hlineto
          18 80 rlineto
          -265 hlineto
          43 203 rlineto
          359 hlineto
          17 81 rlineto
          -455 hlineto
          endchar
        </CharString>
        <CharString name="Eacute">
          35 0 81 223 80 203 81 76 120 hstem
          14 597 vstem
          469 hmoveto
          17 81 rlineto
          -359 hlineto
          48 223 rlineto
          264 hlineto
          18 80 rlineto
          -265 hlineto
          43 203 rlineto
          359 hlineto
          17 81 rlineto
          -455 hlineto
          -142 -668 rlineto
          424 744 rmoveto
          10 5 73 35 15 10 rrcurveto
          9 6 10 11 17 vvcurveto
          20 -16 16 -20 -8 -9 -3 -6 -9 vhcurveto
          -19 -13 -107 -90 -10 -8 rrcurveto
          endchar
        </CharString>
        <CharString name="Ecaron">
          35 0 81 223 80 203 81 73 120 hstem
          14 597 vstem
          469 hmoveto
          17 81 rlineto
          -359 hlineto
          48 223 rlineto
          264 hlineto
          18 80 rlineto
          -265 hlineto
          43 203 rlineto
          359 hlineto
          17 81 rlineto
          -455 hlineto
          -142 -668 rlineto
          251 861 rmoveto
          91 -101 rlineto
          -13 11 17 -6 18 hhcurveto
          17 19 6 13 17 hvcurveto
          133 101 rlineto
          -97 hlineto
          -81 -61 -54 61 rlineto
          endchar
        </CharString>
        <CharString name="Ecircumflex">
          35 0 81 223 80 203 81 82 120 hstem
          14 597 vstem
          14 hmoveto
          455 hlineto
          17 81 rlineto
          -359 hlineto
          48 223 rlineto
          264 hlineto
          18 80 rlineto
          -265 hlineto
          43 203 rlineto
          359 hlineto
          17 81 rlineto
          -455 hlineto
          175 82 rmoveto
          80 61 55 -61 rlineto
          92 hlineto
          -91 101 rlineto
          13 -11 -17 6 -17 hhcurveto
          -18 -19 -6 -13 -17 hvcurveto
          -133 -101 rlineto
          endchar
        </CharString>
        <CharString name="Edieresis">
          35 0 81 223 80 203 81 74 107 hstem
          236 108 104 107 vstem
          14 hmoveto
          455 hlineto
          17 81 rlineto
          -359 hlineto
          48 223 rlineto
          264 hlineto
          18 80 rlineto
          -265 hlineto
          43 203 rlineto
          359 hlineto
          17 81 rlineto
          -455 hlineto
          134 74 rmoveto
          30 24 24 30 29 -24 24 -30 -30 -24 -24 -29 -30 24 -24 30 hvcurveto
          158 54 rmoveto
          -30 24 -24 29 30 24 24 30 29 -24 24 -30 -29 -24 -24 -29 vhcurveto
          endchar
        </CharString>
        <CharString name="Edotaccent">
          35 0 81 223 80 203 81 94 108 hstem
          359 108 vstem
          469 hmoveto
          17 81 rlineto
          -359 hlineto
          48 223 rlineto
          264 hlineto
          18 80 rlineto
          -265 hlineto
          43 203 rlineto
          359 hlineto
          17 81 rlineto
          -455 hlineto
          -142 -668 rlineto
          399 762 rmoveto
          30 24 24 30 30 -24 24 -30 -30 -24 -24 -30 -30 24 -24 30 hvcurveto
          endchar
        </CharString>
        <CharString name="Egrave">
          35 0 81 223 80 203 81 76 120 hstem
          14 597 vstem
          14 hmoveto
          455 hlineto
          17 81 rlineto
          -359 hlineto
          48 223 rlineto
          264 hlineto
          18 80 rlineto
          -265 hlineto
          43 203 rlineto
          359 hlineto
          17 81 rlineto
          -455 hlineto
          233 76 rmoveto
          73 hlineto
          -84 103 rlineto
          -12 17 -21 0 0 vvcurveto
          -27 -9 -24 -12 -25 19 -14 61 -45 hvcurveto
          endchar
        </CharString>
        <CharString name="Emacron">
          35 0 81 223 80 203 81 94 67 hstem
          14 597 vstem
          14 hmoveto
          455 hlineto
          17 81 rlineto
          -359 hlineto
          48 223 rlineto
          264 hlineto
          18 80 rlineto
          -265 hlineto
          43 203 rlineto
          359 hlineto
          17 81 rlineto
          -455 hlineto
          108 94 rmoveto
          276 hlineto
          15 67 rlineto
          -276 hlineto
          endchar
        </CharString>
        <CharString name="Eogonek">
          35 -173 57 116 81 223 80 203 81 hstem
          263 77 vstem
          369 hmoveto
          -64 -19 -42 -42 -45 vvcurveto
          -37 29 -30 55 19 22 4 8 26 vhcurveto
          11 54 rlineto
          -6 -16 -15 -3 -13 hhcurveto
          -24 -17 11 16 34 45 32 63 23 hvcurveto
          21 hlineto
          17 81 rlineto
          -359 hlineto
          48 223 rlineto
          264 hlineto
          18 80 rlineto
          -265 hlineto
          43 203 rlineto
          359 hlineto
          17 81 rlineto
          -455 hlineto
          -142 -668 rlineto
          endchar
        </CharString>
        <CharString name="Eth">
          178 0 79 224 80 205 80 hstem
          580 96 vstem
          114 303 rmoveto
          -64 -303 rlineto
          185 hlineto
          228 168 104 215 36 hvcurveto
          256 43 -122 93 -212 hhcurveto
          -184 hlineto
          -61 -285 rlineto
          -92 hlineto
          -17 -80 rlineto
          329 hmoveto
          17 80 rlineto
          -140 hlineto
          43 205 rlineto
          85 hlineto
          139 116 -37 -226 -39 hvcurveto
          -182 -31 -129 -64 -163 hhcurveto
          -86 hlineto
          48 224 rlineto
          endchar
        </CharString>
        <CharString name="Euro">
          167 -12 79 173 51 85 51 173 79 hstem
          116 91 vstem
          4 240 rmoveto
          112 hlineto
          -131 7 70 -121 171 hhcurveto
          113 94 51 100 60 hvcurveto
          -75 30 rlineto
          -71 -46 -53 -31 -82 hhcurveto
          -94 -62 69 104 -11 hvcurveto
          124 hlineto
          38 51 rlineto
          -163 hlineto
          2 31 4 23 8 31 rrcurveto
          214 hlineto
          39 51 rlineto
          -236 hlineto
          108 43 79 65 96 hhcurveto
          72 54 -35 -66 21 hvcurveto
          85 29 rlineto
          102 -30 -82 49 -110 hhcurveto
          -155 -115 -102 -150 -52 hvcurveto
          -72 hlineto
          -39 -51 rlineto
          96 hlineto
          -7 -30 -4 -26 -2 -29 rrcurveto
          -73 hlineto
          endchar
        </CharString>
        <CharString name="F">
          16 21 -21 304 80 203 81 hstem
          14 578 vstem
          14 hmoveto
          96 hlineto
          65 304 rlineto
          339 hlineto
          17 80 rlineto
          -339 hlineto
          43 203 rlineto
          339 hlineto
          18 81 rlineto
          -436 hlineto
          endchar
        </CharString>
        <CharString name="G">
          179 -12 79 -46 -21 264 80 256 80 hstemhm
          55 96 hintmask 10111000
          301 -12 rmoveto
          90 72 30 64 57 hvcurveto
          hintmask 01111000
          6 -82 rlineto
          56 hlineto
          74 344 rlineto
          -287 hlineto
          -17 -80 rlineto
          196 hlineto
          -5 -21 rlineto
          hintmask 10111000
          -32 -137 -93 -43 -100 4 -111 4 -78 99 27 166 rrcurveto
          166 27 106 98 123 hhcurveto
          92 49 -51 -51 14 hvcurveto
          89 30 rlineto
          101 -30 -83 51 -124 hhcurveto
          -193 -138 -153 -191 -28 hvcurveto
          -201 -29 92 -147 178 hhcurveto
          endchar
        </CharString>
        <CharString name="Gbreve">
          179 -12 79 -46 -21 264 80 256 80 61 67 hstemhm
          55 96 hintmask 10111100
          352 264 rmoveto
          196 hlineto
          -5 -21 -32 -137 -93 -43 -100 4 rlinecurve
          -111 4 -78 99 27 166 rrcurveto
          166 27 106 98 123 hhcurveto
          92 49 -51 -51 14 hvcurveto
          89 30 rlineto
          101 -30 -83 51 -124 hhcurveto
          -193 -138 -153 -191 -28 hvcurveto
          -201 -29 92 -147 178 hhcurveto
          90 72 30 64 57 hvcurveto
          hintmask 01111100
          6 -82 rlineto
          56 hlineto
          74 344 rlineto
          -287 hlineto
          191 517 rmoveto
          -27 -17 -29 -26 -43 hhcurveto
          -43 -19 27 26 -5 hvcurveto
          -69 hlineto
          -55 44 -65 85 86 55 61 59 24 vhcurveto
          endchar
        </CharString>
        <CharString name="Gdotaccent">
          179 -12 79 -46 -21 264 80 256 80 82 108 hstemhm
          55 96 262 108 hintmask 10110110
          301 -12 rmoveto
          90 72 30 64 57 hvcurveto
          hintmask 01110110
          6 -82 rlineto
          56 hlineto
          74 344 rlineto
          -287 hlineto
          -17 -80 rlineto
          196 hlineto
          -5 -21 rlineto
          hintmask 10110110
          -32 -137 -93 -43 -100 4 -111 4 -78 99 27 166 rrcurveto
          166 27 106 98 123 hhcurveto
          92 49 -51 -51 14 hvcurveto
          89 30 rlineto
          101 -30 -83 51 -124 hhcurveto
          -193 -138 -153 -191 -28 hvcurveto
          -201 -29 92 -147 178 hhcurveto
          hintmask 10111110
          166 774 rmoveto
          30 24 24 30 30 -24 24 -30 -30 -24 -24 -30 -30 24 -24 30 hvcurveto
          endchar
        </CharString>
        <CharString name="H">
          160 21 -21 304 80 284 -20 hstem
          14 684 vstem
          14 hmoveto
          96 hlineto
          65 304 rlineto
          349 hlineto
          -64 -304 rlineto
          96 hlineto
          142 668 rlineto
          -96 hlineto
          -60 -284 rlineto
          -350 hlineto
          60 284 rlineto
          -96 hlineto
          endchar
        </CharString>
        <CharString name="Hbar">
          176 21 -21 304 80 120 79 -79 164 hstemhm
          23 739 hintmask 11011000
          119 hmoveto
          65 304 rlineto
          349 hlineto
          -64 -304 rlineto
          96 hlineto
          107 504 rlineto
          73 hlineto
          hintmask 11101000
          17 79 rlineto
          -73 hlineto
          hintmask 11011000
          18 85 rlineto
          -96 hlineto
          hintmask 11101000
          -18 -85 rlineto
          -350 hlineto
          hintmask 11011000
          18 85 rlineto
          -96 hlineto
          hintmask 11101000
          -18 -85 rlineto
          -75 hlineto
          -17 -79 rlineto
          75 hlineto
          -107 -504 rlineto
          553 504 rmoveto
          -25 -120 rlineto
          -350 hlineto
          25 120 rlineto
          endchar
        </CharString>
        <CharString name="I">
          -120 0 75 518 75 hstem
          4 423 vstem
          4 hmoveto
          281 hlineto
          16 75 rlineto
          -92 hlineto
          109 518 rlineto
          94 hlineto
          15 75 rlineto
          -281 hlineto
          -16 -75 rlineto
          93 hlineto
          -110 -518 rlineto
          -93 hlineto
          endchar
        </CharString>
        <CharString name="Iacute">
          -120 0 75 518 75 76 120 hstem
          4 456 vstem
          285 hmoveto
          16 75 rlineto
          -92 hlineto
          109 518 rlineto
          94 hlineto
          15 75 rlineto
          -281 hlineto
          -16 -75 rlineto
          93 hlineto
          -110 -518 rlineto
          -93 hlineto
          -16 -75 rlineto
          339 744 rmoveto
          10 5 73 35 15 10 rrcurveto
          9 6 10 11 17 vvcurveto
          20 -16 16 -20 -8 -9 -3 -6 -9 vhcurveto
          -19 -13 -107 -90 -10 -8 rrcurveto
          endchar
        </CharString>
        <CharString name="Icircumflex">
          -120 0 75 518 75 79 120 hstem
          4 463 vstem
          285 hmoveto
          16 75 rlineto
          -92 hlineto
          109 518 rlineto
          94 hlineto
          15 75 rlineto
          -281 hlineto
          -16 -75 rlineto
          93 hlineto
          -110 -518 rlineto
          -93 hlineto
          -16 -75 rlineto
          236 747 rmoveto
          81 61 54 -61 rlineto
          92 hlineto
          -90 101 rlineto
          13 -12 -16 6 -17 hhcurveto
          -18 -19 -6 -13 -17 hvcurveto
          -134 -101 rlineto
          endchar
        </CharString>
        <CharString name="Idieresis">
          -120 0 75 518 75 72 107 hstem
          154 108 104 107 vstem
          285 hmoveto
          16 75 rlineto
          -92 hlineto
          109 518 rlineto
          94 hlineto
          15 75 rlineto
          -281 hlineto
          -16 -75 rlineto
          93 hlineto
          -110 -518 rlineto
          -93 hlineto
          -16 -75 rlineto
          150 794 rmoveto
          -30 24 -24 30 30 24 24 30 29 -24 24 -30 -30 -24 -24 -29 vhcurveto
          265 -54 rmoveto
          30 24 24 30 29 -24 24 -30 -29 -24 -24 -29 -30 24 -24 29 hvcurveto
          endchar
        </CharString>
        <CharString name="Igrave">
          -120 0 75 518 75 76 120 hstem
          4 423 vstem
          285 hmoveto
          16 75 rlineto
          -92 hlineto
          109 518 rlineto
          94 hlineto
          15 75 rlineto
          -281 hlineto
          -16 -75 rlineto
          93 hlineto
          -110 -518 rlineto
          -93 hlineto
          -16 -75 rlineto
          189 828 rmoveto
          -25 19 -14 61 -45 vhcurveto
          73 hlineto
          -84 103 rlineto
          -12 17 -21 0 0 vvcurveto
          -27 -9 -24 -12 hvcurveto
          endchar
        </CharString>
        <CharString name="Imacron">
          -120 0 75 518 75 94 67 hstem
          4 455 vstem
          285 hmoveto
          16 75 rlineto
          -92 hlineto
          109 518 rlineto
          94 hlineto
          15 75 rlineto
          -281 hlineto
          -16 -75 rlineto
          93 hlineto
          -110 -518 rlineto
          -93 hlineto
          -16 -75 rlineto
          440 762 rmoveto
          15 67 rlineto
          -276 hlineto
          -15 -67 rlineto
          endchar
        </CharString>
        <CharString name="Iogonek">
          -120 -173 57 116 75 518 75 hstem
          23 77 vstem
          129 hmoveto
          -64 -19 -42 -42 -45 vvcurveto
          -37 29 -30 55 19 22 4 8 26 vhcurveto
          11 54 rlineto
          -6 -16 -15 -3 -13 hhcurveto
          -24 -17 11 16 34 45 32 63 23 hvcurveto
          77 hlineto
          16 75 rlineto
          -92 hlineto
          109 518 rlineto
          94 hlineto
          15 75 rlineto
          -281 hlineto
          -16 -75 rlineto
          93 hlineto
          -110 -518 rlineto
          -93 hlineto
          -16 -75 rlineto
          endchar
        </CharString>
        <CharString name="J">
          -25 -12 77 603 -20 hstem
          -9 522 vstem
          163 -12 rmoveto
          82 125 7 217 46 hvcurveto
          97 456 rlineto
          -96 hlineto
          -97 -455 rlineto
          -120 -26 -55 -28 -64 hhcurveto
          -81 -28 55 94 17 hvcurveto
          -90 -24 rlineto
          -141 -15 87 -61 98 hhcurveto
          endchar
        </CharString>
        <CharString name="K">
          89 21 -21 668 -20 hstem
          14 656 vstem
          14 hmoveto
          96 hlineto
          45 210 126 114 165 -324 rlineto
          105 hlineto
          -200 385 319 283 rlineto
          -130 hlineto
          -357 -323 69 323 rlineto
          -96 hlineto
          endchar
        </CharString>
        <CharString name="L">
          7 0 81 587 -20 hstem
          14 472 vstem
          14 hmoveto
          455 hlineto
          17 81 rlineto
          -359 hlineto
          125 587 rlineto
          -96 hlineto
          endchar
        </CharString>
        <CharString name="Lcaron">
          7 0 81 415 172 11 -20 hstemhm
          14 472 hintmask 10110000
          14 hmoveto
          455 hlineto
          17 81 rlineto
          -359 hlineto
          hintmask 11010000
          125 587 rlineto
          -96 hlineto
          167 -172 rmoveto
          hintmask 10110000
          79 134 rlineto
          29 13 -16 20 -24 hhcurveto
          -23 -15 -18 -11 -4 hvcurveto
          hintmask 11010000
          -12 -25 -42 -116 -5 -13 rrcurveto
          endchar
        </CharString>
        <CharString name="Lslash">
          39 0 82 422 -20 184 -20 hstem
          4 514 vstem
          46 hmoveto
          455 hlineto
          17 82 rlineto
          -359 hlineto
          52 242 202 107 15 73 -201 -108 57 272 rlineto
          -96 hlineto
          -70 -329 -99 -52 -15 -73 99 52 rlineto
          endchar
        </CharString>
        <CharString name="M">
          290 0 126 -105 -21 559 109 -93 93 0 -20 hstemhm
          14 814 hintmask 01001100
          14 hmoveto
          96 hlineto
          hintmask 01010100
          123 575 72 -575 rlineto
          95 hlineto
          hintmask 01100100
          309 559 -119 -559 rlineto
          96 hlineto
          142 668 rlineto
          -162 hlineto
          hintmask 10001100
          -292 -542 -62 542 rlineto
          -156 hlineto
          endchar
        </CharString>
        <CharString name="N">
          0 94 -73 -21 576 92 0 -20 hstemhm
          14 683 hintmask 01011000
          14 hmoveto
          96 hlineto
          hintmask 01101000
          123 576 185 -576 rlineto
          137 hlineto
          142 668 rlineto
          -96 hlineto
          hintmask 10011000
          -122 -574 -186 574 rlineto
          -137 hlineto
          endchar
        </CharString>
        <CharString name="NULL">
          -534 endchar
        </CharString>
        <CharString name="Nacute">
          0 94 -73 -21 576 92 0 -20 97 120 hstemhm
          14 683 hintmask 01010100
          110 hmoveto
          hintmask 01100100
          123 576 185 -576 rlineto
          137 hlineto
          142 668 rlineto
          -96 hlineto
          hintmask 10011100
          -122 -574 -186 574 rlineto
          -137 hlineto
          -142 -668 rlineto
          477 745 rmoveto
          10 5 73 35 15 10 rrcurveto
          9 6 10 11 17 vvcurveto
          20 -16 16 -20 -8 -9 -3 -6 -9 vhcurveto
          -19 -13 -107 -90 -10 -8 rrcurveto
          endchar
        </CharString>
        <CharString name="Ncaron">
          0 94 -73 -21 576 92 0 -20 93 120 hstemhm
          14 683 hintmask 01011100
          110 hmoveto
          hintmask 01101100
          123 576 185 -576 rlineto
          137 hlineto
          142 668 rlineto
          -96 hlineto
          hintmask 10011100
          -122 -574 -186 574 rlineto
          -137 hlineto
          -142 -668 rlineto
          293 861 rmoveto
          91 -101 rlineto
          -13 11 17 -6 18 hhcurveto
          17 19 6 13 17 hvcurveto
          133 101 rlineto
          -97 hlineto
          -81 -61 -54 61 rlineto
          endchar
        </CharString>
        <CharString name="Ntilde">
          0 94 -73 -21 576 92 0 -20 101 63 -21 63 hstemhm
          14 683 hintmask 01010110
          110 hmoveto
          hintmask 01100110
          123 576 185 -576 rlineto
          137 hlineto
          142 668 rlineto
          -96 hlineto
          hintmask 10010110
          -122 -574 -186 574 rlineto
          -137 hlineto
          -142 -668 rlineto
          263 751 rmoveto
          65 hlineto
          25 11 21 15 30 hhcurveto
          hintmask 01011010
          52 18 -42 59 hhcurveto
          55 31 30 27 17 hvcurveto
          22 14 -16 26 -23 hhcurveto
          -8 -10 -4 -9 -9 hvcurveto
          -13 -13 -13 -16 -25 -41 -21 42 -66 hhcurveto
          hintmask 10010110
          -53 -48 -32 -71 -27 hvcurveto
          endchar
        </CharString>
        <CharString name="O">
          194 -12 79 533 80 hstem
          55 95 446 96 vstem
          312 -12 rmoveto
          231 115 173 174 28 hvcurveto
          188 31 -98 157 -186 hhcurveto
          -210 -133 -145 -200 -30 hvcurveto
          -194 -29 96 -153 185 hhcurveto
          -156 347 rmoveto
          149 25 88 116 151 hhcurveto
          113 86 -95 -170 -29 hvcurveto
          -168 -28 -102 -100 -135 hhcurveto
          -113 -85 94 174 29 hvcurveto
          endchar
        </CharString>
        <CharString name="OE">
          542 -12 80 -68 82 222 80 203 81 -67 79 hstemhm
          55 95 446 84 hintmask 10110110
          313 -12 rmoveto
          111 74 40 52 55 hvcurveto
          hintmask 01110110
          -17 -80 rlineto
          440 hlineto
          17 82 rlineto
          -360 hlineto
          47 222 rlineto
          266 hlineto
          17 80 rlineto
          -265 hlineto
          43 203 rlineto
          359 hlineto
          17 81 rlineto
          -439 hlineto
          -24 -111 rlineto
          hintmask 10101110
          75 -42 -76 48 -103 hhcurveto
          -210 -133 -144 -202 -30 hvcurveto
          -192 -28 95 -154 186 hhcurveto
          -157 346 rmoveto
          150 25 88 117 151 hhcurveto
          113 86 -96 -171 -29 hvcurveto
          -167 -28 -102 -99 -134 hhcurveto
          -114 -85 94 172 29 hvcurveto
          endchar
        </CharString>
        <CharString name="Oacute">
          194 -12 79 533 80 64 120 hstem
          55 95 446 96 vstem
          312 -12 rmoveto
          231 115 173 174 28 hvcurveto
          188 31 -98 157 -186 hhcurveto
          -210 -133 -145 -200 -30 hvcurveto
          -194 -29 96 -153 185 hhcurveto
          -156 347 rmoveto
          149 25 88 116 151 hhcurveto
          113 86 -95 -170 -29 hvcurveto
          -168 -28 -102 -100 -135 hhcurveto
          -113 -85 94 174 29 hvcurveto
          253 409 rmoveto
          81 hlineto
          10 5 73 35 15 10 rrcurveto
          9 6 10 11 17 vvcurveto
          20 -16 16 -20 -8 -9 -3 -6 -9 vhcurveto
          -19 -13 -107 -90 -10 -8 rrcurveto
          endchar
        </CharString>
        <CharString name="Ocircumflex">
          194 -12 79 533 80 67 120 hstem
          55 95 446 96 vstem
          312 -12 rmoveto
          231 115 173 174 28 hvcurveto
          188 31 -98 157 -186 hhcurveto
          -210 -133 -145 -200 -30 hvcurveto
          -194 -29 96 -153 185 hhcurveto
          -156 347 rmoveto
          149 25 88 116 151 hhcurveto
          113 86 -95 -170 -29 hvcurveto
          -168 -28 -102 -100 -135 hhcurveto
          -113 -85 94 174 29 hvcurveto
          238 412 rmoveto
          80 61 55 -61 rlineto
          92 hlineto
          -91 101 rlineto
          13 -11 -17 6 -17 hhcurveto
          -18 -19 -6 -13 -17 hvcurveto
          -133 -101 rlineto
          endchar
        </CharString>
        <CharString name="Odieresis">
          194 -12 79 533 80 62 107 hstemhm
          55 95 160 108 104 107 -33 96 hintmask 11111010
          312 -12 rmoveto
          231 115 173 174 28 hvcurveto
          188 31 -98 157 -186 hhcurveto
          -210 -133 -145 -200 -30 hvcurveto
          -194 -29 96 -153 185 hhcurveto
          -156 347 rmoveto
          149 25 88 116 151 hhcurveto
          113 86 -95 -170 -29 hvcurveto
          -168 -28 -102 -100 -135 hhcurveto
          -113 -85 94 174 29 hvcurveto
          154 461 rmoveto
          -30 24 -24 30 30 24 24 30 29 -24 24 -30 -30 -24 -24 -29 vhcurveto
          hintmask 11111100
          212 hmoveto
          -30 24 -24 29 30 24 24 30 29 -24 24 -30 -29 -24 -24 -29 vhcurveto
          endchar
        </CharString>
        <CharString name="Ograve">
          194 -12 79 533 80 64 120 hstem
          55 95 446 96 vstem
          312 -12 rmoveto
          231 115 173 174 28 hvcurveto
          188 31 -98 157 -186 hhcurveto
          -210 -133 -145 -200 -30 hvcurveto
          -194 -29 96 -153 185 hhcurveto
          -156 347 rmoveto
          149 25 88 116 151 hhcurveto
          113 86 -95 -170 -29 hvcurveto
          -168 -28 -102 -100 -135 hhcurveto
          -113 -85 94 174 29 hvcurveto
          269 409 rmoveto
          73 hlineto
          -84 103 rlineto
          -12 17 -21 0 0 vvcurveto
          -27 -9 -24 -12 -25 19 -14 61 -45 hvcurveto
          endchar
        </CharString>
        <CharString name="Ohungarumlaut">
          194 -12 79 533 80 64 136 hstem
          55 95 446 96 vstem
          312 -12 rmoveto
          231 115 173 174 28 hvcurveto
          188 31 -98 157 -186 hhcurveto
          -210 -133 -145 -200 -30 hvcurveto
          -194 -29 96 -153 185 hhcurveto
          -156 347 rmoveto
          149 25 88 116 151 hhcurveto
          113 86 -95 -170 -29 hvcurveto
          -168 -28 -102 -100 -135 hhcurveto
          -113 -85 94 174 29 hvcurveto
          345 409 rmoveto
          73 hlineto
          0 78 52 20 18 vhcurveto
          16 14 0 24 -13 16 rrcurveto
          8 -6 -10 4 -11 hhcurveto
          -9 -9 -3 -6 -8 hvcurveto
          -21 -17 -100 -110 0 vvcurveto
          -72 hmoveto
          0 78 52 20 18 vhcurveto
          15 14 2 24 -14 16 rrcurveto
          8 -7 -10 4 -11 hhcurveto
          -9 -9 -3 -6 -8 hvcurveto
          -19 -18 -102 -109 0 vvcurveto
          endchar
        </CharString>
        <CharString name="Oslash">
          194 -12 79 -50 -21 604 79 hstemhm
          55 96 445 95 hintmask 01111000
          41 -4 rmoveto
          79 74 rlineto
          hintmask 10111000
          -52 44 66 -30 83 hhcurveto
          230 115 173 172 28 hvcurveto
          14 90 -13 81 -38 62 81 76 rcurveline
          -35 37 -78 -73 rlineto
          46 -44 -62 27 -78 hhcurveto
          -209 -134 -144 -202 -30 hvcurveto
          -12 -83 11 -78 32 -60 -85 -80 rcurveline
          183 102 rmoveto
          388 364 18 -42 7 -56 -11 -67 rlinecurve
          -167 -28 -103 -99 -134 hhcurveto
          -56 -49 23 44 -32 hvcurveto
          -33 199 rmoveto
          150 25 88 117 151 hhcurveto
          51 46 -20 -38 32 hvcurveto
          -385 -361 -14 41 -4 51 10 60 rlinecurve
          endchar
        </CharString>
        <CharString name="Otilde">
          194 -12 79 533 80 70 63 -21 63 hstemhm
          55 95 446 96 hintmask 11011100
          312 -12 rmoveto
          231 115 173 174 28 hvcurveto
          188 31 -98 157 -186 hhcurveto
          -210 -133 -145 -200 -30 hvcurveto
          -194 -29 96 -153 185 hhcurveto
          -156 347 rmoveto
          149 25 88 116 151 hhcurveto
          113 86 -95 -170 -29 hvcurveto
          -168 -28 -102 -100 -135 hhcurveto
          -113 -85 94 174 29 hvcurveto
          125 417 rmoveto
          65 hlineto
          25 11 21 15 30 hhcurveto
          hintmask 11101100
          52 18 -42 59 hhcurveto
          55 31 30 27 17 hvcurveto
          hintmask 11011100
          22 14 -16 26 -23 hhcurveto
          -8 -10 -4 -9 -9 hvcurveto
          hintmask 11101100
          -13 -13 -13 -16 -25 hhcurveto
          hintmask 11011100
          -41 -21 42 -66 hhcurveto
          -53 -48 -32 -71 -27 hvcurveto
          endchar
        </CharString>
        <CharString name="P">
          68 21 -21 265 81 242 80 hstem
          14 587 vstem
          14 hmoveto
          96 hlineto
          56 265 rlineto
          121 hlineto
          210 90 69 139 13 hvcurveto
          174 16 -153 21 -121 hhcurveto
          -186 hlineto
          79 -80 rmoveto
          116 hlineto
          103 62 -25 -106 -16 hvcurveto
          -84 -13 -70 -27 -106 hhcurveto
          -127 hlineto
          endchar
        </CharString>
        <CharString name="Q">
          215 5 79 533 79 hstem
          59 95 446 95 vstem
          316 5 rmoveto
          82 67 21 36 53 hvcurveto
          100 -117 70 62 -99 116 55 64 33 82 13 82 rlinecurve
          189 30 -97 156 -186 hhcurveto
          -210 -133 -144 -201 -30 hvcurveto
          -193 -29 96 -153 185 hhcurveto
          -156 346 rmoveto
          149 25 88 117 151 hhcurveto
          113 86 -95 -171 -29 hvcurveto
          -10 -64 -22 -54 -30 -43 -132 154 rcurveline
          -71 -60 136 -160 rlineto
          -26 -39 -46 -14 -51 hhcurveto
          -113 -85 94 173 29 hvcurveto
          endchar
        </CharString>
        <CharString name="R">
          76 21 -21 281 79 228 80 hstem
          14 587 vstem
          14 hmoveto
          96 hlineto
          60 281 rlineto
          100 hlineto
          143 -281 rlineto
          105 hlineto
          -147 288 167 15 52 91 9 81 rlinecurve
          146 18 -99 47 -158 hhcurveto
          -204 hlineto
          79 -80 rmoveto
          117 hlineto
          101 61 -23 -92 -12 hvcurveto
          -95 -12 -76 -18 -103 hhcurveto
          -124 hlineto
          endchar
        </CharString>
        <CharString name="Racute">
          76 21 -21 281 79 228 80 76 120 hstem
          14 587 vstem
          14 hmoveto
          96 hlineto
          60 281 rlineto
          100 hlineto
          143 -281 rlineto
          105 hlineto
          -147 288 167 15 52 91 9 81 rlinecurve
          146 18 -99 47 -158 hhcurveto
          -204 hlineto
          31 -308 rmoveto
          48 228 rlineto
          117 hlineto
          101 61 -23 -92 -12 hvcurveto
          -95 -12 -76 -18 -103 hhcurveto
          124 384 rmoveto
          10 5 73 35 15 10 rrcurveto
          9 6 10 11 17 vvcurveto
          20 -16 16 -20 -8 -9 -3 -6 -9 vhcurveto
          -19 -13 -107 -90 -10 -8 rrcurveto
          endchar
        </CharString>
        <CharString name="Rcaron">
          76 21 -21 281 79 228 80 73 120 hstem
          14 587 vstem
          110 hmoveto
          60 281 rlineto
          100 hlineto
          143 -281 rlineto
          105 hlineto
          -147 288 167 15 52 91 9 81 rlinecurve
          146 18 -99 47 -158 hhcurveto
          -204 hlineto
          -142 -668 rlineto
          221 588 rmoveto
          117 hlineto
          101 61 -23 -92 -12 hvcurveto
          -95 -12 -76 -18 -103 hhcurveto
          -124 hlineto
          85 501 rmoveto
          91 -101 rlineto
          -13 11 17 -6 18 hhcurveto
          17 19 6 13 17 hvcurveto
          133 101 rlineto
          -97 hlineto
          -81 -61 -54 61 rlineto
          endchar
        </CharString>
        <CharString name="S">
          75 -12 79 534 79 hstem
          87 95 264 98 vstem
          36 147 rmoveto
          -109 37 106 -50 106 hhcurveto
          130 129 75 134 226 -373 -81 11 163 hvcurveto
          65 5 65 31 68 hhcurveto
          61 64 -25 -47 24 hvcurveto
          92 26 rlineto
          83 -39 -100 42 -98 hhcurveto
          -120 -117 -62 -123 hvcurveto
          -236 359 91 -166 vvcurveto
          -75 -75 -42 -78 -69 -72 33 72 -25 vhcurveto
          endchar
        </CharString>
        <CharString name="Sacute">
          75 -12 79 534 79 hstem
          87 95 264 98 vstem
          544 197 rmoveto
          226 -373 -81 11 163 vhcurveto
          65 5 65 31 68 hhcurveto
          61 64 -25 -47 24 hvcurveto
          92 26 rlineto
          83 -39 -100 42 -98 hhcurveto
          -120 -117 -62 -123 hvcurveto
          -236 359 91 -166 vvcurveto
          -75 -75 -42 -78 -69 -72 33 72 -25 vhcurveto
          -91 -25 rlineto
          -109 37 106 -50 106 hhcurveto
          130 129 75 134 hvcurveto
          -211 547 rmoveto
          81 hlineto
          10 5 73 35 15 10 rrcurveto
          9 6 10 11 17 vvcurveto
          20 -16 16 -20 -8 -9 -3 -6 -9 vhcurveto
          -19 -13 -107 -90 -10 -8 rrcurveto
          endchar
        </CharString>
        <CharString name="Scaron">
          75 -12 79 534 79 61 120 hstem
          87 95 264 98 vstem
          36 147 rmoveto
          -109 37 106 -50 106 hhcurveto
          130 129 75 134 226 -373 -81 11 163 hvcurveto
          65 5 65 31 68 hhcurveto
          61 64 -25 -47 24 hvcurveto
          92 26 rlineto
          83 -39 -100 42 -98 hhcurveto
          -120 -117 -62 -123 hvcurveto
          -236 359 91 -166 vvcurveto
          -75 -75 -42 -78 -69 -72 33 72 -25 vhcurveto
          201 588 rmoveto
          -13 11 17 -6 18 hhcurveto
          17 19 6 13 17 hvcurveto
          133 101 rlineto
          -97 hlineto
          -81 -61 -54 61 rlineto
          -91 hlineto
          endchar
        </CharString>
        <CharString name="Scedilla">
          75 -180 40 58 149 -78 78 -57 -21 612 79 hstemhm
          87 95 115 63 86 98 hintmask 10011111
          252 -11 rmoveto
          hintmask 11001111
          -38 -46 -12 -15 11 -19 20 5 rlinecurve
          3 12 10 1 8 56 -17 -58 -62 hhcurveto
          -16 -19 4 10 -22 hvcurveto
          -23 -37 rlineto
          -12 33 29 -5 25 hhcurveto
          139 15 157 -22 -130 hvcurveto
          27 33 rlineto
          126 5 120 75 129 vvcurveto
          226 -373 -81 11 163 vhcurveto
          65 5 65 31 68 hhcurveto
          61 64 -25 -47 24 hvcurveto
          92 26 rlineto
          83 -39 -100 42 -98 hhcurveto
          -120 -117 -62 -123 hvcurveto
          -236 359 91 -166 vvcurveto
          hintmask 10101111
          -75 -75 -42 -78 -69 -72 33 72 -25 vhcurveto
          -91 -25 rlineto
          hintmask 10011111
          33 -98 89 -50 94 -10 rrcurveto
          endchar
        </CharString>
        <CharString name="T">
          24 21 -21 587 81 hstem
          73 555 vstem
          73 587 rmoveto
          220 hlineto
          -124 -587 rlineto
          97 hlineto
          123 587 rlineto
          222 hlineto
          17 81 rlineto
          -538 hlineto
          endchar
        </CharString>
        <CharString name="Tcaron">
          24 21 -21 587 81 66 120 hstem
          73 555 vstem
          293 587 rmoveto
          -124 -587 rlineto
          97 hlineto
          123 587 rlineto
          222 hlineto
          17 81 rlineto
          -538 hlineto
          -17 -81 rlineto
          254 166 rmoveto
          -13 11 17 -6 18 hhcurveto
          17 19 6 13 17 hvcurveto
          133 101 rlineto
          -97 hlineto
          -81 -61 -54 61 rlineto
          -91 hlineto
          endchar
        </CharString>
        <CharString name="Thorn">
          52 13 -21 163 81 202 81 hstem
          459 102 vstem
          12 -8 rmoveto
          86 hlineto
          35 163 rlineto
          127 hlineto
          169 93 38 125 31 hvcurveto
          153 38 -98 48 -156 hhcurveto
          -127 hlineto
          30 140 rlineto
          -86 hlineto
          -4 -423 rmoveto
          43 202 rlineto
          135 hlineto
          123 22 -35 -82 -20 hvcurveto
          -46 -11 -42 -39 -114 hhcurveto
          endchar
        </CharString>
        <CharString name="U">
          -12 81 599 -20 hstem
          61 98 vstem
          286 -12 rmoveto
          126 146 24 268 56 hvcurveto
          83 388 rlineto
          -96 hlineto
          -85 -396 rlineto
          -157 -34 -70 -46 -121 hhcurveto
          -122 -29 62 141 29 hvcurveto
          84 396 rlineto
          -96 hlineto
          -83 -388 rlineto
          -204 -44 71 -88 185 hhcurveto
          endchar
        </CharString>
        <CharString name="Uacute">
          -12 81 599 -20 hstem
          61 98 vstem
          286 -12 rmoveto
          126 146 24 268 56 hvcurveto
          83 388 rlineto
          -96 hlineto
          -85 -396 rlineto
          -157 -34 -70 -46 -121 hhcurveto
          -122 -29 62 141 29 hvcurveto
          84 396 rlineto
          -96 hlineto
          -83 -388 rlineto
          -204 -44 71 -88 185 hhcurveto
          107 756 rmoveto
          81 hlineto
          10 5 73 35 15 10 rrcurveto
          9 6 10 11 17 vvcurveto
          20 -16 16 -20 -8 -9 -3 -6 -9 vhcurveto
          -19 -13 -107 -90 -10 -8 rrcurveto
          endchar
        </CharString>
        <CharString name="Ucircumflex">
          -12 81 599 -20 99 120 hstem
          61 98 vstem
          286 -12 rmoveto
          126 146 24 268 56 hvcurveto
          83 388 rlineto
          -96 hlineto
          -85 -396 rlineto
          -157 -34 -70 -46 -121 hhcurveto
          -122 -29 62 141 29 hvcurveto
          84 396 rlineto
          -96 hlineto
          -83 -388 rlineto
          -204 -44 71 -88 185 hhcurveto
          -4 759 rmoveto
          96 hlineto
          80 61 55 -61 rlineto
          92 hlineto
          -91 101 rlineto
          13 -11 -17 6 -17 hhcurveto
          -18 -19 -6 -13 -17 hvcurveto
          endchar
        </CharString>
        <CharString name="Udieresis">
          -12 81 599 -20 95 107 hstem
          61 98 131 108 104 107 vstem
          286 -12 rmoveto
          126 146 24 268 56 hvcurveto
          83 388 rlineto
          -96 hlineto
          -85 -396 rlineto
          -157 -34 -70 -46 -121 hhcurveto
          -122 -29 62 141 29 hvcurveto
          84 396 rlineto
          -96 hlineto
          -83 -388 rlineto
          -204 -44 71 -88 185 hhcurveto
          58 755 rmoveto
          30 24 24 30 29 -24 24 -30 -30 -24 -24 -29 -30 24 -24 30 hvcurveto
          158 54 rmoveto
          -30 24 -24 29 30 24 24 30 29 -24 24 -30 -29 -24 -24 -29 vhcurveto
          endchar
        </CharString>
        <CharString name="Ugrave">
          -12 81 599 -20 96 120 hstem
          61 98 vstem
          286 -12 rmoveto
          126 146 24 268 56 hvcurveto
          83 388 rlineto
          -96 hlineto
          -85 -396 rlineto
          -157 -34 -70 -46 -121 hhcurveto
          -122 -29 62 141 29 hvcurveto
          84 396 rlineto
          -96 hlineto
          -83 -388 rlineto
          -204 -44 71 -88 185 hhcurveto
          123 756 rmoveto
          73 hlineto
          -84 103 rlineto
          -12 17 -21 0 0 vvcurveto
          -27 -9 -24 -12 -25 19 -14 61 -45 hvcurveto
          endchar
        </CharString>
        <CharString name="Uhungarumlaut">
          -12 81 599 -20 hstem
          61 98 vstem
          286 -12 rmoveto
          126 146 24 268 56 hvcurveto
          83 388 rlineto
          -96 hlineto
          -85 -396 rlineto
          -157 -34 -70 -46 -121 hhcurveto
          -122 -29 62 141 29 hvcurveto
          84 396 rlineto
          -96 hlineto
          -83 -388 rlineto
          -204 -44 71 -88 185 hhcurveto
          265 756 rmoveto
          0 78 52 20 18 vhcurveto
          16 14 0 24 -13 16 rrcurveto
          8 -6 -10 4 -11 hhcurveto
          -9 -9 -3 -6 -8 hvcurveto
          -21 -17 -100 -110 0 vvcurveto
          -146 hmoveto
          74 hlineto
          0 78 52 20 18 vhcurveto
          15 14 2 24 -14 16 rrcurveto
          8 -7 -10 4 -11 hhcurveto
          -9 -9 -3 -6 -8 hvcurveto
          -19 -18 -102 -109 0 vvcurveto
          endchar
        </CharString>
        <CharString name="Umacron">
          -12 81 599 -20 114 67 hstem
          61 98 vstem
          286 -12 rmoveto
          126 146 24 268 56 hvcurveto
          83 388 rlineto
          -96 hlineto
          -85 -396 rlineto
          -157 -34 -70 -46 -121 hhcurveto
          -122 -29 62 141 29 hvcurveto
          84 396 rlineto
          -96 hlineto
          -83 -388 rlineto
          -204 -44 71 -88 185 hhcurveto
          296 774 rmoveto
          15 67 rlineto
          -276 hlineto
          -15 -67 rlineto
          endchar
        </CharString>
        <CharString name="Uogonek">
          -173 57 105 80 599 -20 hstemhm
          62 97 19 77 hintmask 11110000
          254 -11 rmoveto
          hintmask 11111000
          -47 -22 -29 -35 -38 vvcurveto
          -37 29 -30 55 19 22 4 8 26 vhcurveto
          11 54 rlineto
          -6 -16 -15 -3 -13 hhcurveto
          -24 -17 11 16 29 33 28 50 22 hvcurveto
          112 9 116 49 48 232 83 388 rcurveline
          -96 hlineto
          -85 -396 rlineto
          -157 -34 -70 -46 -121 hhcurveto
          hintmask 11110000
          -122 -29 62 141 29 hvcurveto
          84 396 rlineto
          -96 hlineto
          -83 -388 -41 -192 60 -89 161 -10 rlinecurve
          endchar
        </CharString>
        <CharString name="Uring">
          -12 81 599 -20 20 58 102 58 hstemhm
          61 98 177 57 104 57 hintmask 11011110
          286 -12 rmoveto
          126 146 24 268 56 hvcurveto
          83 388 rlineto
          -96 hlineto
          -85 -396 rlineto
          -157 -34 -70 -46 -121 hhcurveto
          -122 -29 62 141 29 hvcurveto
          84 396 rlineto
          -96 hlineto
          -83 -388 rlineto
          -204 -44 71 -88 185 hhcurveto
          50 789 rmoveto
          -59 49 -50 62 61 46 50 59 59 -46 50 -61 -62 -49 -50 -59 vhcurveto
          57 hmoveto
          28 23 23 29 29 23 -23 -28 vhcurveto
          hintmask 10111110
          -28 -23 -23 -29 -29 -23 23 28 vhcurveto
          endchar
        </CharString>
        <CharString name="V">
          58 0 110 -89 -21 668 -20 hstemhm
          90 572 hintmask 01110000
          90 668 rmoveto
          88 -668 rlineto
          112 hlineto
          372 668 rlineto
          -111 hlineto
          hintmask 10110000
          -300 -558 -62 558 rlineto
          endchar
        </CharString>
        <CharString name="W">
          310 0 117 -117 128 -107 -21 551 117 0 -20 hstemhm
          103 93 281 74 hintmask 00101110
          116 hmoveto
          111 hlineto
          hintmask 00110110
          245 551 11 -551 rlineto
          121 hlineto
          310 668 rlineto
          -110 hlineto
          hintmask 10001110
          -250 -551 -5 551 rlineto
          -113 hlineto
          hintmask 01001110
          -234 -540 -12 540 rlineto
          -100 hlineto
          endchar
        </CharString>
        <CharString name="X">
          90 21 -21 668 -20 hstem
          -52 743 vstem
          -52 hmoveto
          125 hlineto
          244 264 132 -264 rlineto
          103 hlineto
          -169 336 308 332 rlineto
          -125 hlineto
          -227 -245 -121 245 rlineto
          -102 hlineto
          158 -317 rlineto
          endchar
        </CharString>
        <CharString name="Y">
          64 21 -21 668 -20 hstem
          90 578 vstem
          90 668 rmoveto
          139 -428 -52 -240 rlineto
          97 hlineto
          51 240 343 428 rlineto
          -114 hlineto
          -264 -337 -104 337 rlineto
          endchar
        </CharString>
        <CharString name="Yacute">
          64 21 -21 668 -20 hstem
          90 578 vstem
          229 240 rmoveto
          -52 -240 rlineto
          97 hlineto
          51 240 343 428 rlineto
          -114 hlineto
          -264 -337 -104 337 rlineto
          -96 hlineto
          250 76 rmoveto
          81 hlineto
          10 5 73 35 15 10 rrcurveto
          9 6 10 11 17 vvcurveto
          20 -16 16 -20 -8 -9 -3 -6 -9 vhcurveto
          -19 -13 -107 -90 -10 -8 rrcurveto
          endchar
        </CharString>
        <CharString name="Ydieresis">
          64 21 -21 668 -20 92 107 hstem
          245 108 104 107 vstem
          229 240 rmoveto
          -52 -240 rlineto
          97 hlineto
          51 240 343 428 rlineto
          -114 hlineto
          -264 -337 -104 337 rlineto
          -96 hlineto
          155 126 rmoveto
          -30 24 -24 30 30 24 24 30 29 -24 24 -30 -30 -24 -24 -29 vhcurveto
          265 -54 rmoveto
          30 24 24 30 29 -24 24 -30 -29 -24 -24 -29 -30 24 -24 29 hvcurveto
          endchar
        </CharString>
        <CharString name="Z">
          79 0 81 506 81 hstem
          -18 658 vstem
          -18 hmoveto
          524 hlineto
          18 81 rlineto
          -401 hlineto
          500 506 17 81 rlineto
          -495 hlineto
          -17 -81 rlineto
          372 hlineto
          -501 -506 rlineto
          endchar
        </CharString>
        <CharString name="Zacute">
          79 0 81 506 81 76 120 hstem
          -18 658 vstem
          506 hmoveto
          18 81 rlineto
          -401 hlineto
          500 506 17 81 rlineto
          -495 hlineto
          -17 -81 rlineto
          372 hlineto
          -501 -506 -17 -81 rlineto
          433 744 rmoveto
          10 5 73 35 15 10 rrcurveto
          9 6 10 11 17 vvcurveto
          20 -16 16 -20 -8 -9 -3 -6 -9 vhcurveto
          -19 -13 -107 -90 -10 -8 rrcurveto
          endchar
        </CharString>
        <CharString name="Zcaron">
          79 0 81 506 81 73 120 hstem
          -18 658 vstem
          506 hmoveto
          18 81 rlineto
          -401 hlineto
          500 506 17 81 rlineto
          -495 hlineto
          -17 -81 rlineto
          372 hlineto
          -501 -506 -17 -81 rlineto
          275 861 rmoveto
          91 -101 rlineto
          -13 11 17 -6 18 hhcurveto
          17 19 6 13 17 hvcurveto
          133 101 rlineto
          -97 hlineto
          -81 -61 -54 61 rlineto
          endchar
        </CharString>
        <CharString name="Zdotaccent">
          79 0 81 506 81 74 108 hstem
          353 108 vstem
          506 hmoveto
          18 81 rlineto
          -401 hlineto
          500 506 17 81 rlineto
          -495 hlineto
          -17 -81 rlineto
          372 hlineto
          -501 -506 -17 -81 rlineto
          425 742 rmoveto
          30 24 24 30 30 -24 24 -30 -30 -24 -24 -30 -30 24 -24 30 hvcurveto
          endchar
        </CharString>
        <CharString name="a">
          -14 -12 69 -36 -21 436 68 hstemhm
          4 95 227 81 -32 86 hintmask 10110100
          153 -12 rmoveto
          78 49 25 50 44 hvcurveto
          hintmask 01110100
          4 -63 rlineto
          hintmask 01111000
          79 hlineto
          1 47 5 58 17 83 24 114 rcurveline
          137 29 -65 65 -138 hhcurveto
          -96 -68 -47 -75 -34 hvcurveto
          75 -23 rlineto
          48 22 44 29 61 hhcurveto
          80 25 -45 -83 -20 hvcurveto
          -114 -12 -251 -12 -167 vvcurveto
          hintmask 10110100
          -79 64 -50 85 vhcurveto
          -54 151 rmoveto
          11 74 95 13 156 15 -3 -17 rcurveline
          -102 -18 -70 -65 -90 hhcurveto
          -51 -38 27 55 8 hvcurveto
          endchar
        </CharString>
        <CharString name="aacute">
          -14 -12 69 -36 -21 436 68 68 135 hstemhm
          4 95 227 81 -32 86 hintmask 10111010
          153 -12 rmoveto
          78 49 25 50 44 hvcurveto
          hintmask 01111100
          4 -63 rlineto
          79 hlineto
          1 47 5 58 17 83 24 114 rcurveline
          137 29 -65 65 -138 hhcurveto
          -96 -68 -47 -75 -34 hvcurveto
          75 -23 rlineto
          48 22 44 29 61 hhcurveto
          80 25 -45 -83 -20 hvcurveto
          -114 -12 -251 -12 -167 vvcurveto
          hintmask 10111010
          -79 64 -50 85 vhcurveto
          -54 151 rmoveto
          11 74 95 13 156 15 -3 -17 rcurveline
          -102 -18 -70 -65 -90 hhcurveto
          -51 -38 27 55 8 hvcurveto
          175 433 rmoveto
          74 hlineto
          0 78 52 20 17 vhcurveto
          15 13 2 25 -14 16 rrcurveto
          8 -8 -10 4 -11 hhcurveto
          -9 -9 -3 -6 -7 hvcurveto
          -20 -17 -101 -109 0 vvcurveto
          endchar
        </CharString>
        <CharString name="abreve">
          -14 -12 69 -36 -21 436 68 65 67 hstemhm
          4 95 227 81 -32 86 hintmask 01111010
          328 hmoveto
          hintmask 01111100
          79 hlineto
          1 47 5 58 17 83 24 114 rcurveline
          137 29 -65 65 -138 hhcurveto
          -96 -68 -47 -75 -34 hvcurveto
          75 -23 rlineto
          48 22 44 29 61 hhcurveto
          80 25 -45 -83 -20 hvcurveto
          -114 -12 -251 -12 -167 vvcurveto
          hintmask 10111010
          -79 64 -50 85 78 49 25 50 44 vhcurveto
          37 178 rmoveto
          -3 -17 rlineto
          -102 -18 -70 -65 -90 hhcurveto
          -51 -38 27 55 8 hvcurveto
          11 74 95 13 156 15 rrcurveto
          62 448 rmoveto
          -27 -17 -29 -26 -43 hhcurveto
          -43 -19 27 26 -5 hvcurveto
          -69 hlineto
          -55 44 -65 85 86 55 61 59 24 vhcurveto
          endchar
        </CharString>
        <CharString name="acircumflex">
          -14 -12 69 -36 -21 436 68 71 120 hstemhm
          4 95 227 81 -32 86 hintmask 10111010
          4 117 rmoveto
          -79 64 -50 85 78 49 25 50 44 vhcurveto
          hintmask 01111010
          4 -63 rlineto
          hintmask 01111100
          79 hlineto
          1 47 5 58 17 83 24 114 rcurveline
          137 29 -65 65 -138 hhcurveto
          -96 -68 -47 -75 -34 hvcurveto
          75 -23 rlineto
          48 22 44 29 61 hhcurveto
          80 25 -45 -83 -20 hvcurveto
          -114 -12 -251 -12 -167 vvcurveto
          95 22 rmoveto
          11 74 95 13 156 15 -3 -17 rcurveline
          hintmask 10111010
          -102 -18 -70 -65 -90 hhcurveto
          -51 -38 27 55 8 hvcurveto
          160 436 rmoveto
          81 61 54 -61 rlineto
          92 hlineto
          -90 101 rlineto
          13 -12 -16 6 -17 hhcurveto
          -18 -19 -6 -13 -17 hvcurveto
          -134 -101 rlineto
          endchar
        </CharString>
        <CharString name="acute">
          -263 572 135 hstem
          113 184 vstem
          187 572 rmoveto
          0 78 52 20 17 vhcurveto
          15 13 2 25 -14 16 rrcurveto
          8 -8 -10 4 -11 hhcurveto
          -9 -9 -3 -6 -7 hvcurveto
          -20 -17 -101 -109 0 vvcurveto
          endchar
        </CharString>
        <CharString name="acute.case">
          -247 744 120 hstem
          149 198 vstem
          230 744 rmoveto
          10 5 73 35 15 10 rrcurveto
          9 6 10 11 17 vvcurveto
          20 -16 16 -20 -8 -9 -3 -6 -9 vhcurveto
          -19 -13 -107 -90 -10 -8 rrcurveto
          endchar
        </CharString>
        <CharString name="adieresis">
          -14 -12 69 -36 -21 436 68 86 107 hstemhm
          4 95 76 108 43 81 -32 86 -74 107 hintmask 1011110100000000
          153 -12 rmoveto
          78 49 25 50 44 hvcurveto
          hintmask 0111110100000000
          4 -63 rlineto
          hintmask 0111111000000000
          79 hlineto
          1 47 5 58 17 83 24 114 rcurveline
          137 29 -65 65 -138 hhcurveto
          -96 -68 -47 -75 -34 hvcurveto
          75 -23 rlineto
          48 22 44 29 61 hhcurveto
          80 25 -45 -83 -20 hvcurveto
          -114 -12 -251 -12 -167 vvcurveto
          hintmask 1011110100000000
          -79 64 -50 85 vhcurveto
          -54 151 rmoveto
          11 74 95 13 156 15 -3 -17 rcurveline
          -102 -18 -70 -65 -90 hhcurveto
          -51 -38 27 55 8 hvcurveto
          76 505 rmoveto
          -30 24 -24 30 30 24 24 30 29 -24 24 -30 -30 -24 -24 -29 vhcurveto
          hintmask 1011110010000000
          212 hmoveto
          -30 24 -24 29 30 24 24 30 29 -24 24 -30 -29 -24 -24 -29 vhcurveto
          endchar
        </CharString>
        <CharString name="ae">
          335 -12 68 -68 74 163 67 140 72 -69 69 hstemhm
          376 66 305 89 hintmask 01110110
          71 7 rmoveto
          -11 22 33 -8 38 hhcurveto
          73 90 28 84 54 hvcurveto
          -68 31 62 -44 90 hhcurveto
          96 70 40 59 46 hvcurveto
          -78 24 rlineto
          -30 -28 -40 -19 -55 hhcurveto
          -71 -75 38 125 13 hvcurveto
          385 hlineto
          146 34 -65 133 -160 hhcurveto
          -76 -66 -25 -47 -49 hvcurveto
          -23 43 -48 25 -81 4 -101 5 -74 -50 -35 -77 76 -24 rcurveline
          hintmask 10101110
          48 21 45 29 60 hhcurveto
          86 19 -47 -96 -24 hvcurveto
          -222 -58 -29 -46 -45 hvcurveto
          -42 -43 -22 -119 94 -48 rrcurveto
          30 132 rmoveto
          76 15 119 9 123 hhcurveto
          -21 -100 -69 -67 -94 -1 rrcurveto
          -61 -21 40 43 9 hvcurveto
          354 153 rmoveto
          hintmask 01110110
          89 19 75 51 75 hhcurveto
          97 34 -75 -65 -8 hvcurveto
          endchar
        </CharString>
        <CharString name="agrave">
          -14 -12 69 -36 -21 436 68 68 136 hstemhm
          4 95 227 81 -32 86 hintmask 10111010
          153 -12 rmoveto
          78 49 25 50 44 hvcurveto
          hintmask 01111010
          4 -63 rlineto
          hintmask 01111100
          79 hlineto
          1 47 5 58 17 83 24 114 rcurveline
          137 29 -65 65 -138 hhcurveto
          -96 -68 -47 -75 -34 hvcurveto
          75 -23 rlineto
          48 22 44 29 61 hhcurveto
          80 25 -45 -83 -20 hvcurveto
          -114 -12 -251 -12 -167 vvcurveto
          hintmask 10111010
          -79 64 -50 85 vhcurveto
          -54 151 rmoveto
          11 74 95 13 156 15 -3 -17 rcurveline
          -102 -18 -70 -65 -90 hhcurveto
          -51 -38 27 55 8 hvcurveto
          124 509 rmoveto
          16 -22 53 -54 0 vvcurveto
          68 hlineto
          0 -60 99 -16 22 vhcurveto
          10 -7 -12 5 -11 hhcurveto
          -8 -8 -2 -5 -7 hvcurveto
          -16 -11 -4 -25 12 -17 rrcurveto
          endchar
        </CharString>
        <CharString name="amacron">
          -14 -12 69 -36 -21 436 68 97 67 hstemhm
          4 95 227 81 -32 86 hintmask 10111010
          4 117 rmoveto
          -79 64 -50 85 78 49 25 50 44 vhcurveto
          hintmask 01111010
          4 -63 rlineto
          hintmask 01111100
          79 hlineto
          1 47 5 58 17 83 24 114 rcurveline
          137 29 -65 65 -138 hhcurveto
          -96 -68 -47 -75 -34 hvcurveto
          75 -23 rlineto
          48 22 44 29 61 hhcurveto
          80 25 -45 -83 -20 hvcurveto
          -114 -12 -251 -12 -167 vvcurveto
          95 22 rmoveto
          11 74 95 13 156 15 -3 -17 rcurveline
          hintmask 10111010
          -102 -18 -70 -65 -90 hhcurveto
          -51 -38 27 55 8 hvcurveto
          368 462 rmoveto
          14 67 rlineto
          -276 hlineto
          -14 -67 rlineto
          endchar
        </CharString>
        <CharString name="ampersand">
          157 -12 78 -45 -21 609 70 hstemhm
          15 87 351 83 hintmask 10111000
          204 -12 rmoveto
          96 73 38 60 70 hvcurveto
          hintmask 01111000
          64 -86 rlineto
          112 hlineto
          -116 157 48 60 44 72 21 71 rlinecurve
          -87 hlineto
          -16 -53 -28 -50 -29 -35 -105 140 rcurveline
          90 35 85 49 10 90 rrcurveto
          93 10 -77 50 -98 hhcurveto
          -100 -69 -49 -87 -17 hvcurveto
          -10 -52 18 -55 29 -47 -109 -35 -92 -79 -6 -100 rrcurveto
          hintmask 10111000
          -102 -6 63 -85 132 hhcurveto
          -102 197 rmoveto
          9 72 66 48 86 28 137 -188 rcurveline
          -49 -61 -57 -30 -70 hhcurveto
          -71 -49 41 78 10 hvcurveto
          170 355 rmoveto
          10 45 35 22 48 2 69 3 24 -41 -5 -41 -6 -54 -67 -37 -68 -23 -8 12 -44 56 12 56 rrcurveto
          endchar
        </CharString>
        <CharString name="aogonek">
          -14 -173 57 104 69 -36 -21 436 68 hstemhm
          4 95 123 77 76 86 hintmask 11011110
          4 117 rmoveto
          -79 64 -50 85 78 49 25 50 44 vhcurveto
          hintmask 10111110
          4 -63 rlineto
          -64 -19 -42 -42 -45 vvcurveto
          -37 29 -30 55 19 22 4 8 26 vhcurveto
          11 54 rlineto
          -6 -16 -15 -3 -13 hhcurveto
          -24 -17 11 16 34 45 32 63 23 hvcurveto
          1 47 5 58 17 83 24 114 rcurveline
          137 29 -65 65 -138 hhcurveto
          -96 -68 -47 -75 -34 hvcurveto
          75 -23 rlineto
          48 22 44 29 61 hhcurveto
          80 25 -45 -83 -20 hvcurveto
          -114 -12 -251 -12 -167 vvcurveto
          95 22 rmoveto
          11 74 95 13 156 15 -3 -17 rcurveline
          hintmask 11011110
          -102 -18 -70 -65 -90 hhcurveto
          -51 -38 27 55 8 hvcurveto
          endchar
        </CharString>
        <CharString name="approxequal">
          71 97 73 -19 74 58 73 -19 74 hstemhm
          57 475 hintmask 01011000
          57 309 rmoveto
          75 -22 rlineto
          33 6 25 17 33 60 68 -54 72 hhcurveto
          hintmask 01101000
          71 50 41 61 15 hvcurveto
          -74 22 rlineto
          -33 -7 -25 -18 -30 -52 -65 55 -83 hhcurveto
          hintmask 01011000
          -73 -50 -41 -61 -16 hvcurveto
          -186 vmoveto
          75 -22 rlineto
          33 6 25 17 33 60 68 -54 72 hhcurveto
          hintmask 10011000
          71 50 41 61 15 hvcurveto
          -74 22 rlineto
          -34 -7 -25 -17 -31 -53 -65 55 -83 hhcurveto
          hintmask 01011000
          -72 -50 -41 -61 -15 hvcurveto
          endchar
        </CharString>
        <CharString name="aring">
          -14 -12 69 -36 -21 436 68 55 58 102 58 hstemhm
          4 95 135 57 35 81 -32 86 -66 57 hintmask 1011111010000000
          4 117 rmoveto
          -79 64 -50 85 78 49 25 50 44 vhcurveto
          hintmask 0111111010000000
          4 -63 rlineto
          hintmask 0111111100000000
          79 hlineto
          1 47 5 58 17 83 24 114 rcurveline
          137 29 -65 65 -138 hhcurveto
          -96 -68 -47 -75 -34 hvcurveto
          75 -23 rlineto
          48 22 44 29 61 hhcurveto
          80 25 -45 -83 -20 hvcurveto
          -114 -12 -251 -12 -167 vvcurveto
          230 551 rmoveto
          -59 49 -50 62 vhcurveto
          hintmask 1011111001000000
          61 46 50 59 59 -46 50 -61 -62 -49 -50 -59 hvcurveto
          -135 -529 rmoveto
          11 74 95 13 156 15 -3 -17 rcurveline
          -102 -18 -70 -65 -90 hhcurveto
          -51 -38 27 55 8 hvcurveto
          244 580 rmoveto
          29 23 -23 -28 -28 -23 -23 -29 -29 -23 23 28 28 23 23 29 hvcurveto
          endchar
        </CharString>
        <CharString name="asciicircum">
          18 569 99 0 -20 hstemhm
          47 446 hintmask 01100000
          47 311 rmoveto
          89 hlineto
          hintmask 10100000
          134 258 134 -258 rlineto
          89 hlineto
          -185 357 rlineto
          -76 hlineto
          endchar
        </CharString>
        <CharString name="asciitilde">
          5 195 73 -19 74 hstemhm
          25 475 hintmask 01100000
          100 199 rmoveto
          33 6 25 17 33 60 68 -54 72 hhcurveto
          hintmask 10100000
          71 50 41 61 15 hvcurveto
          -74 22 rlineto
          -34 -7 -25 -17 -31 -53 -65 55 -83 hhcurveto
          hintmask 01100000
          -72 -50 -41 -61 -15 hvcurveto
          endchar
        </CharString>
        <CharString name="asterisk">
          -94 499 56 112 -20 hstem
          106 289 vstem
          119 442 rmoveto
          38 -43 79 71 44 -97 52 23 -43 97 106 12 -7 56 -105 -11 22 105 -56 12 -22 -105 -92 53 -29 -49 92 -53 rlineto
          endchar
        </CharString>
        <CharString name="at">
          253 -12 61 106 64 -64 73 218 73 100 61 hstemhm
          67 62 86 81 388 62 hintmask 11011111
          67 334 rmoveto
          -207 171 -139 178 45 45 9 19 43 vhcurveto
          69 vlineto
          -24 -43 -46 -12 -46 hhcurveto
          -147 -138 117 168 158 128 127 156 178 136 -162 -164 -55 hvcurveto
          -50 -17 -43 -24 -36 hhcurveto
          -34 -27 21 38 9 hvcurveto
          11 46 36 175 0 vvcurveto
          12 -35 -41 8 -41 hhcurveto
          -100 -102 -48 -152 -32 hvcurveto
          -107 -23 60 -57 71 hhcurveto
          44 49 23 47 35 hvcurveto
          -43 9 48 -27 56 hhcurveto
          82 95 59 152 202 -182 112 -151 -191 -155 -155 -191 hvcurveto
          232 -22 rmoveto
          112 24 59 22 52 hhcurveto
          16 14 -2 -2 13 hvcurveto
          0 0 -2 -22 -101 vhcurveto
          hintmask 10111111
          -74 -15 -52 -37 -40 hhcurveto
          -34 -27 28 56 12 hvcurveto
          endchar
        </CharString>
        <CharString name="atilde">
          -14 -12 69 -36 -21 436 68 71 63 -21 63 hstemhm
          4 95 227 81 -32 86 hintmask 10101101
          4 117 rmoveto
          -79 64 -50 85 78 49 25 50 44 vhcurveto
          hintmask 01101101
          4 -63 rlineto
          hintmask 01101110
          79 hlineto
          1 47 5 58 17 83 24 114 rcurveline
          137 29 -65 65 -138 hhcurveto
          -96 -68 -47 -75 -34 hvcurveto
          75 -23 rlineto
          48 22 44 29 61 hhcurveto
          80 25 -45 -83 -20 hvcurveto
          -114 -12 -251 -12 -167 vvcurveto
          95 22 rmoveto
          11 74 95 13 156 15 -3 -17 rcurveline
          hintmask 10101101
          -102 -18 -70 -65 -90 hhcurveto
          -51 -38 27 55 8 hvcurveto
          115 438 rmoveto
          25 11 21 15 30 hhcurveto
          hintmask 10110101
          52 18 -42 59 hhcurveto
          55 31 30 27 17 hvcurveto
          hintmask 10101101
          22 14 -16 26 -23 hhcurveto
          -8 -10 -4 -9 -9 hvcurveto
          hintmask 10110101
          -13 -13 -13 -16 -25 hhcurveto
          hintmask 10101101
          -41 -21 42 -66 hhcurveto
          -53 -48 -32 -71 -27 hvcurveto
          endchar
        </CharString>
        <CharString name="b">
          23 -12 72 -39 -21 432 72 164 -20 hstemhm
          420 90 hintmask 01111000
          8 hmoveto
          64 hlineto
          41 82 rlineto
          hintmask 10111000
          -58 31 48 -36 75 hhcurveto
          160 83 162 143 104 -44 107 -141 -43 -52 -16 -58 -45 hvcurveto
          51 238 rlineto
          -86 hlineto
          -11 -457 rmoveto
          97 59 124 110 77 35 -59 -82 vhcurveto
          -95 -48 -136 -114 -81 -38 73 78 vhcurveto
          endchar
        </CharString>
        <CharString name="backslash">
          -15 21 -21 668 -20 hstem
          95 347 vstem
          355 hmoveto
          87 hlineto
          -260 668 rlineto
          -87 hlineto
          endchar
        </CharString>
        <CharString name="bar">
          -245 668 -20 hstem
          96 81 vstem
          96 -161 rmoveto
          81 829 -81 hlineto
          endchar
        </CharString>
        <CharString name="braceleft">
          -212 -162 71 311 67 309 71 hstemhm
          34 89 -44 87 hintmask 11101000
          hintmask 11110000
          147 -162 rmoveto
          45 hlineto
          15 71 rlineto
          -41 hlineto
          -45 -4 13 52 11 hvcurveto
          hintmask 11101000
          32 153 18 85 -24 28 -46 13 rlinecurve
          51 13 37 30 18 84 33 152 rcurveline
          51 11 10 13 44 hhcurveto
          41 hlineto
          15 71 rlineto
          -46 hlineto
          -116 -23 -27 -109 -24 hvcurveto
          -31 -150 rlineto
          -57 -12 -17 -37 -62 hhcurveto
          -14 -67 rlineto
          62 0 -38 -57 -12 hvcurveto
          -32 -150 rlineto
          hintmask 11110000
          -95 -20 17 -42 109 hhcurveto
          endchar
        </CharString>
        <CharString name="braceright">
          -212 -162 71 311 67 309 71 hstemhm
          140 88 -44 88 hintmask 11110000
          -62 -162 rmoveto
          45 hlineto
          117 23 27 110 24 hvcurveto
          32 149 rlineto
          57 12 16 39 61 hhcurveto
          15 67 rlineto
          -61 -1 36 58 13 hvcurveto
          31 150 rlineto
          hintmask 11101000
          94 19 -16 42 -108 hhcurveto
          -46 hlineto
          -15 -71 rlineto
          42 hlineto
          44 5 -13 -51 -11 hvcurveto
          hintmask 11110000
          -33 -153 -18 -84 25 -29 46 -13 rlinecurve
          -52 -13 -37 -29 -18 -85 -32 -152 rcurveline
          -52 -11 -10 -13 -44 hhcurveto
          -42 hlineto
          endchar
        </CharString>
        <CharString name="bracketleft">
          -217 -161 74 680 75 hstem
          -20 383 vstem
          -20 -161 rmoveto
          208 hlineto
          16 74 rlineto
          -125 hlineto
          145 680 rlineto
          124 hlineto
          15 75 rlineto
          -207 hlineto
          endchar
        </CharString>
        <CharString name="bracketright">
          -217 -161 74 680 75 hstem
          -63 383 vstem
          -63 -161 rmoveto
          208 hlineto
          175 829 rlineto
          -207 hlineto
          -15 -75 rlineto
          125 hlineto
          -145 -680 rlineto
          -125 hlineto
          endchar
        </CharString>
        <CharString name="breve">
          -134 562 67 hstem
          136 294 vstem
          361 682 rmoveto
          -27 -17 -29 -26 -43 hhcurveto
          -43 -19 27 26 -5 hvcurveto
          -69 hlineto
          -55 44 -65 85 86 55 61 59 24 vhcurveto
          endchar
        </CharString>
        <CharString name="breve.case">
          -134 734 67 hstem
          173 294 vstem
          398 854 rmoveto
          -27 -17 -29 -26 -43 hhcurveto
          -43 -19 27 26 -5 hvcurveto
          -69 hlineto
          -55 44 -65 85 86 55 61 59 24 vhcurveto
          endchar
        </CharString>
        <CharString name="brokenbar">
          -245 668 -20 hstem
          96 81 vstem
          96 358 rmoveto
          81 310 -81 hlineto
          81 -829 rmoveto
          310 -81 -310 vlineto
          endchar
        </CharString>
        <CharString name="bullet">
          -88 88 332 hstem
          49 332 vstem
          49 254 rmoveto
          -91 74 -75 92 92 74 75 91 92 -74 74 -92 -92 -74 -74 -92 vhcurveto
          endchar
        </CharString>
        <CharString name="c">
          -41 -12 74 368 74 hstem
          24 92 vstem
          220 -12 rmoveto
          89 80 37 74 45 hvcurveto
          -71 28 rlineto
          -40 -30 -40 -25 -54 hhcurveto
          -111 -24 88 99 16 hvcurveto
          88 15 49 93 108 hhcurveto
          51 42 -26 -40 13 hvcurveto
          83 29 rlineto
          72 -33 -62 39 -90 hhcurveto
          -146 -98 -109 -147 -23 hvcurveto
          -156 -24 73 -104 142 hhcurveto
          endchar
        </CharString>
        <CharString name="cacute">
          -41 -12 74 368 74 hstem
          24 92 vstem
          220 -12 rmoveto
          89 80 37 74 45 hvcurveto
          -71 28 rlineto
          -40 -30 -40 -25 -54 hhcurveto
          -111 -24 88 99 16 hvcurveto
          88 15 49 93 108 hhcurveto
          51 42 -26 -40 13 hvcurveto
          83 29 rlineto
          72 -33 -62 39 -90 hhcurveto
          -146 -98 -109 -147 -23 hvcurveto
          -156 -24 73 -104 142 hhcurveto
          67 584 rmoveto
          74 hlineto
          0 78 52 20 17 vhcurveto
          15 13 2 25 -14 16 rrcurveto
          8 -8 -10 4 -11 hhcurveto
          -9 -9 -3 -6 -7 hvcurveto
          -20 -17 -101 -109 0 vvcurveto
          endchar
        </CharString>
        <CharString name="caron">
          -105 562 120 hstem
          136 323 vstem
          136 682 rmoveto
          91 -101 rlineto
          -13 11 17 -6 18 hhcurveto
          17 19 6 13 17 hvcurveto
          133 101 rlineto
          -97 hlineto
          -81 -61 -54 61 rlineto
          endchar
        </CharString>
        <CharString name="caron.case">
          -105 734 120 hstem
          173 323 vstem
          173 854 rmoveto
          91 -101 rlineto
          -13 11 17 -6 18 hhcurveto
          17 19 6 13 17 hvcurveto
          133 101 rlineto
          -97 hlineto
          -81 -61 -54 61 rlineto
          endchar
        </CharString>
        <CharString name="caron.salt">
          -328 678 -20 hstem
          96 133 vstem
          145 495 rmoveto
          79 134 rlineto
          29 13 -16 20 -24 hhcurveto
          -23 -15 -18 -11 -4 hvcurveto
          -12 -25 -42 -116 -5 -13 rrcurveto
          endchar
        </CharString>
        <CharString name="ccaron">
          -41 -12 74 368 74 65 120 hstem
          24 92 vstem
          220 -12 rmoveto
          89 80 37 74 45 hvcurveto
          -71 28 rlineto
          -40 -30 -40 -25 -54 hhcurveto
          -111 -24 88 99 16 hvcurveto
          88 15 49 93 108 hhcurveto
          51 42 -26 -40 13 hvcurveto
          83 29 rlineto
          72 -33 -62 39 -90 hhcurveto
          -146 -98 -109 -147 -23 hvcurveto
          -156 -24 73 -104 142 hhcurveto
          -28 701 rmoveto
          91 -101 rlineto
          -13 11 17 -6 18 hhcurveto
          17 19 6 13 17 hvcurveto
          133 101 rlineto
          -97 hlineto
          -81 -61 -54 61 rlineto
          endchar
        </CharString>
        <CharString name="ccedilla">
          -41 -180 40 58 144 -74 74 -49 -21 438 74 hstemhm
          25 91 104 63 hintmask 10101110
          hintmask 10011110
          177 -8 rmoveto
          hintmask 11001110
          -40 -49 -13 -15 12 -19 20 5 rlinecurve
          3 12 10 1 8 56 -17 -58 -62 hhcurveto
          -16 -19 4 10 -22 hvcurveto
          -23 -37 rlineto
          -12 33 29 -5 25 hhcurveto
          139 15 157 -22 -130 hvcurveto
          hintmask 10101110
          27 33 rlineto
          89 79 37 74 45 hvcurveto
          -71 28 rlineto
          -40 -30 -40 -25 -54 hhcurveto
          -111 -24 88 99 16 hvcurveto
          88 15 49 93 108 hhcurveto
          51 42 -26 -40 13 hvcurveto
          83 29 rlineto
          72 -33 -62 39 -90 hhcurveto
          -146 -98 -109 -147 -23 hvcurveto
          hintmask 10011110
          -21 -139 56 -98 113 -19 rrcurveto
          endchar
        </CharString>
        <CharString name="cdotaccent">
          -41 -12 74 368 74 86 108 hstem
          24 92 182 108 vstem
          220 -12 rmoveto
          89 80 37 74 45 hvcurveto
          -71 28 rlineto
          -40 -30 -40 -25 -54 hhcurveto
          -111 -24 88 99 16 hvcurveto
          88 15 49 93 108 hhcurveto
          51 42 -26 -40 13 hvcurveto
          83 29 rlineto
          72 -33 -62 39 -90 hhcurveto
          -146 -98 -109 -147 -23 hvcurveto
          -156 -24 73 -104 142 hhcurveto
          132 602 rmoveto
          30 24 24 30 30 -24 24 -30 -30 -24 -24 -30 -30 24 -24 30 hvcurveto
          endchar
        </CharString>
        <CharString name="cedilla">
          -240 -180 40 58 37 hstem
          113 63 vstem
          -24 -163 rmoveto
          -12 33 29 -5 25 hhcurveto
          139 15 157 -22 -130 hvcurveto
          41 49 -30 21 -68 -82 -12 -15 11 -19 20 5 rlinecurve
          3 12 10 1 8 56 -17 -58 -62 hhcurveto
          -16 -19 4 10 -22 hvcurveto
          endchar
        </CharString>
        <CharString name="cent">
          -42 -12 73 -48 -21 509 -20 hstemhm
          25 91 hintmask 01110000
          174 -8 rmoveto
          -17 -79 rlineto
          51 hlineto
          hintmask 10110000
          16 75 87 1 78 36 44 73 rlinecurve
          -71 29 -30 -40 -39 -25 -53 -1 rlinecurve
          78 366 38 -7 30 -23 11 -33 rlinecurve
          83 28 -29 62 -49 37 -70 10 rlinecurve
          15 70 rlineto
          -50 hlineto
          -14 -68 -139 -6 -93 -108 -22 -142 rlinecurve
          hintmask 01110000
          -21 -138 55 -97 111 -20 rrcurveto
          -54 256 rmoveto
          13 81 43 85 91 14 -77 -360 rcurveline
          -69 23 -14 74 13 83 rrcurveto
          endchar
        </CharString>
        <CharString name="circumflex">
          -105 575 120 hstem
          113 323 vstem
          209 575 rmoveto
          81 61 54 -61 rlineto
          92 hlineto
          -90 101 rlineto
          13 -12 -16 6 -17 hhcurveto
          -18 -19 -6 -13 -17 hvcurveto
          -134 -101 rlineto
          endchar
        </CharString>
        <CharString name="circumflex.case">
          -105 747 120 hstem
          150 323 vstem
          150 747 rmoveto
          96 hlineto
          80 61 55 -61 rlineto
          92 hlineto
          -91 101 rlineto
          13 -11 -17 6 -17 hhcurveto
          -18 -19 -6 -13 -17 hvcurveto
          endchar
        </CharString>
        <CharString name="colon">
          -325 -12 129 258 129 hstemhm
          -11 129 -47 129 hintmask 11100000
          hintmask 11010000
          135 375 rmoveto
          36 29 29 36 35 -29 29 -36 -35 -29 -29 -35 -36 29 -29 35 hvcurveto
          hintmask 11100000
          -82 -387 rmoveto
          36 29 29 35 36 -29 29 -36 -35 -29 -29 -36 -35 29 -29 35 hvcurveto
          endchar
        </CharString>
        <CharString name="comma">
          -325 13 -21 hstem
          -10 128 vstem
          18 -133 rmoveto
          90 151 26 40 -25 50 -44 8 rlinecurve
          -35 6 -33 -23 -7 -35 -5 -32 18 -30 29 -10 -75 -125 rcurveline
          endchar
        </CharString>
        <CharString name="copyleft">
          -12 62 100 59 264 58 87 62 hstem
          762 334 rmoveto
          -33.67871 -191 -182.33008 -155 -191 0 -191 0 -127.66992 155 33.67871 191 33.67871 191 182.33008 155 191 0 191 0 127.66992 -155 -33.67871 -191 rrcurveto
          -62 hmoveto
          27.6836 157 -104.60645 127 -157 0 -157 0 -149.39355 -127 -27.6836 -157 -27.6836 -157 104.60645 -127 157 0 157 0 149.39355 127 27.6836 157 rrcurveto
          -318.44434 -184 rmoveto
          -74 0 -42.82812 35 -18.06543 45 rrcurveto
          70.23145 24 rlineto
          12.18164 -33 29.88379 -12 33 0 57 0 48.58203 43 15.86914 90 15.69336 89 -33.59375 42 -57 0 -34 0 -31.99805 -17 -22.64258 -32 rrcurveto
          -62.5918 25 rlineto
          33.46387 48 53.99512 34 72 0 108 0 55.48047 -71 -20.80664 -118 -20.98242 -119 -74.87207 -73 -112 0 rrcurveto
          endchar
        </CharString>
        <CharString name="copyright">
          280 -12 62 100 59 264 58 87 62 hstem
          70 62 112 76 380 62 vstem
          70 334 rmoveto
          -191 155 -155 191 191 155 155 191 191 -155 155 -191 -191 -155 -155 -191 vhcurveto
          62 hmoveto
          157 127 127 157 157 127 -127 -157 -157 -127 -127 -157 -157 -127 127 157 vhcurveto
          286 -184 rmoveto
          74 49 35 45 26 hvcurveto
          -66 24 rlineto
          -33 -18 -32 -12 -33 hhcurveto
          -57 -41 43 90 89 41 42 57 34 29 -17 -32 17 hvcurveto
          67 25 rlineto
          48 -25 -48 34 -72 hhcurveto
          -108 -68 -71 -118 -119 62 -73 112 hvcurveto
          endchar
        </CharString>
        <CharString name="currency">
          132 103 75 285 76 hstem
          121 76 284 76 vstem
          168 456 rmoveto
          -31 -39 -16 -48 -48 vvcurveto
          -48 16 -48 31 -40 vhcurveto
          -66 -66 36 -35 66 65 rlineto
          -31 40 47 -15 48 hhcurveto
          48 48 15 31 39 hvcurveto
          66 -65 36 35 -66 66 rlineto
          32 40 15 48 48 vvcurveto
          48 -15 48 -32 39 vhcurveto
          66 66 -36 36 -66 -66 rlineto
          32 -39 -48 15 -48 hhcurveto
          -48 -47 -15 -32 -40 hvcurveto
          -66 66 -36 -36 rlineto
          237 -59 rmoveto
          79 63 -64 -78 -79 -63 -64 -79 -79 -63 64 79 78 63 64 79 hvcurveto
          endchar
        </CharString>
        <CharString name="d">
          20 -12 72 -60 60 372 72 164 -20 hstemhm
          27 90 241 83 hintmask 10111100
          205 -12 rmoveto
          73 44 30 43 34 hvcurveto
          hintmask 01111100
          5 -61 rlineto
          81 hlineto
          1 87 15 67 7 34 rrcurveto
          25 120 77 360 0 vvcurveto
          -86 hlineto
          -57 -270 rlineto
          60 -19 -55 46 -79 hhcurveto
          -123 -96 -97 -160 -22 hvcurveto
          hintmask 10111100
          -147 -19 66 -112 128 hhcurveto
          -84 259 rmoveto
          100 16 52 85 91 hhcurveto
          86 41 -74 -111 -11 hvcurveto
          -82 -8 -55 -105 -107 hhcurveto
          -68 -57 61 126 20 hvcurveto
          endchar
        </CharString>
        <CharString name="dagger">
          7 21 -21 417 79 172 -20 hstem
          67 477 vstem
          257 417 rmoveto
          -89 -417 rlineto
          82 hlineto
          88 417 rlineto
          189 hlineto
          17 79 rlineto
          -189 hlineto
          36 172 rlineto
          -80 hlineto
          -37 -172 rlineto
          -190 hlineto
          -17 -79 rlineto
          endchar
        </CharString>
        <CharString name="daggerdbl">
          7 21 -21 173 79 165 79 172 -20 hstem
          15 529 vstem
          15 173 rmoveto
          190 hlineto
          -37 -173 rlineto
          82 hlineto
          36 173 rlineto
          189 hlineto
          17 79 rlineto
          -189 hlineto
          34 165 rlineto
          190 hlineto
          17 79 rlineto
          -190 hlineto
          37 172 rlineto
          -80 hlineto
          -37 -172 rlineto
          -190 hlineto
          -17 -79 rlineto
          190 hlineto
          -35 -165 rlineto
          -190 hlineto
          endchar
        </CharString>
        <CharString name="dcaron">
          53 -12 72 -60 60 372 72 -8 172 11 -20 hstemhm
          27 90 241 83 hintmask 01011110
          hintmask 01101110
          361 hmoveto
          81 hlineto
          1 87 15 67 7 34 rrcurveto
          25 120 77 360 0 vvcurveto
          -86 hlineto
          -57 -270 rlineto
          hintmask 10101110
          60 -19 -55 46 -79 hhcurveto
          -123 -96 -97 -160 -22 hvcurveto
          -147 -19 66 -112 128 hhcurveto
          73 44 30 43 34 hvcurveto
          -130 -1 rmoveto
          -68 -57 61 126 20 hvcurveto
          100 16 52 85 91 hhcurveto
          86 41 -74 -111 -11 hvcurveto
          -82 -8 -55 -105 -107 hhcurveto
          hintmask 10011110
          393 436 rmoveto
          79 134 rlineto
          29 13 -16 20 -24 hhcurveto
          -23 -15 -18 -11 -4 hvcurveto
          -12 -25 -42 -116 -5 -13 rrcurveto
          endchar
        </CharString>
        <CharString name="dcroat">
          67 -12 72 -60 60 372 72 44 67 -67 120 hstemhm
          27 90 241 83 hintmask 10110110
          205 -12 rmoveto
          73 44 30 43 34 hvcurveto
          hintmask 01110110
          5 -61 rlineto
          81 hlineto
          1 87 15 67 7 34 15 75 36 169 25 116 rrcurveto
          81 hlineto
          15 67 rlineto
          -81 hlineto
          hintmask 10101110
          7 33 4 20 0 vvcurveto
          -86 hlineto
          hintmask 10110110
          -11 -53 rlineto
          -162 hlineto
          -15 -67 rlineto
          163 hlineto
          -32 -150 rlineto
          60 -19 -55 46 -79 hhcurveto
          -123 -96 -97 -160 -22 hvcurveto
          -147 -19 66 -112 128 hhcurveto
          -84 259 rmoveto
          100 16 52 85 91 hhcurveto
          86 41 -74 -111 -11 hvcurveto
          -82 -8 -55 -105 -107 hhcurveto
          -68 -57 61 126 20 hvcurveto
          endchar
        </CharString>
        <CharString name="degree">
          -176 408 63 146 63 hstem
          87 63 146 63 vstem
          87 544 rmoveto
          -75 61 -61 75 75 61 61 75 75 -61 61 -75 -75 -61 -61 -75 vhcurveto
          63 hmoveto
          41 33 32 40 41 32 -32 -41 -40 -32 -33 -41 -40 -33 33 40 vhcurveto
          endchar
        </CharString>
        <CharString name="dieresis">
          -107 590 107 hstem
          129 108 104 107 vstem
          129 644 rmoveto
          -30 24 -24 30 30 24 24 30 29 -24 24 -30 -30 -24 -24 -29 vhcurveto
          212 hmoveto
          -30 24 -24 29 30 24 24 30 29 -24 24 -30 -29 -24 -24 -29 vhcurveto
          endchar
        </CharString>
        <CharString name="dieresis.case">
          -107 740 107 hstem
          161 108 104 107 vstem
          161 794 rmoveto
          -30 24 -24 30 30 24 24 30 29 -24 24 -30 -30 -24 -24 -29 vhcurveto
          212 hmoveto
          -30 24 -24 29 30 24 24 30 29 -24 24 -30 -29 -24 -24 -29 vhcurveto
          endchar
        </CharString>
        <CharString name="divide">
          85 14 129 65 81 65 129 hstem
          235 129 cntrmask 11100000
          52 289 rmoveto
          -81 496 81 vlineto
          -248 65 rmoveto
          36 28 28 36 36 -28 29 -36 -36 -29 -29 -36 -36 29 -28 36 hvcurveto
          -340 vmoveto
          36 28 29 36 35 -28 29 -36 -36 -29 -29 -35 -36 29 -29 36 hvcurveto
          endchar
        </CharString>
        <CharString name="dollar">
          76 17 -21 612 142 hstem
          89 95 265 98 vstem
          38 153 rmoveto
          28 -81 66 -49 77 -19 -18 -84 rcurveline
          52 hlineto
          16 76 rlineto
          139 -12 149 76 144 vvcurveto
          121 -107 33 -98 30 vhcurveto
          45 211 38 -11 31 -21 16 -30 rlinecurve
          92 26 -28 61 -62 39 -70 16 rlinecurve
          15 71 rlineto
          -52 hlineto
          -13 -63 rlineto
          -129 10 -136 -61 -133 vvcurveto
          -122 95 -35 92 -27 vhcurveto
          -50 -233 -43 15 -38 30 -16 48 rlinecurve
          147 -104 rmoveto
          49 229 rlineto
          68 -22 56 -25 -66 vvcurveto
          -82 -88 -42 -85 8 vhcurveto
          -92 437 rmoveto
          5 71 75 30 73 -5 -43 -205 rcurveline
          -64 21 -50 27 4 61 rrcurveto
          endchar
        </CharString>
        <CharString name="dotaccent">
          -318 583 108 hstem
          128 108 vstem
          128 637 rmoveto
          -30 24 -24 30 30 24 24 30 30 -24 24 -30 -30 -24 -24 -30 vhcurveto
          endchar
        </CharString>
        <CharString name="dotaccent.case">
          -318 755 108 hstem
          164 108 vstem
          164 809 rmoveto
          -30 24 -24 30 30 24 24 30 30 -24 24 -30 -30 -24 -24 -30 vhcurveto
          endchar
        </CharString>
        <CharString name="dotlessi">
          -264 21 -21 428 68 hstem
          46 191 vstem
          46 hmoveto
          86 hlineto
          105 496 rlineto
          -166 hlineto
          -14 -68 rlineto
          80 hlineto
          endchar
        </CharString>
        <CharString name="e">
          7 -12 74 163 68 139 72 hstem
          27 88 305 88 vstem
          237 -12 rmoveto
          96 69 40 59 46 hvcurveto
          -78 24 rlineto
          -30 -28 -39 -19 -56 hhcurveto
          -71 -74 38 125 13 hvcurveto
          384 hlineto
          147 35 -65 132 -161 hhcurveto
          -146 -109 -92 -164 -23 hvcurveto
          -158 -22 82 -102 147 hhcurveto
          59 444 rmoveto
          98 33 -74 -65 -7 hvcurveto
          -293 hlineto
          89 19 76 50 74 hhcurveto
          endchar
        </CharString>
        <CharString name="eacute">
          7 -12 74 163 68 139 72 68 135 hstem
          27 88 305 88 vstem
          237 -12 rmoveto
          96 69 40 59 46 hvcurveto
          -78 24 rlineto
          -30 -28 -39 -19 -56 hhcurveto
          -71 -74 38 125 13 hvcurveto
          384 hlineto
          147 35 -65 132 -161 hhcurveto
          -146 -109 -92 -164 -23 hvcurveto
          -158 -22 82 -102 147 hhcurveto
          59 444 rmoveto
          98 33 -74 -65 -7 hvcurveto
          -293 hlineto
          89 19 76 50 74 hhcurveto
          -3 140 rmoveto
          74 hlineto
          0 78 52 20 17 vhcurveto
          15 13 2 25 -14 16 rrcurveto
          8 -8 -10 4 -11 hhcurveto
          -9 -9 -3 -6 -7 hvcurveto
          -20 -17 -101 -109 0 vvcurveto
          endchar
        </CharString>
        <CharString name="ecaron">
          7 -12 74 163 68 139 72 65 120 hstem
          27 88 305 88 vstem
          237 -12 rmoveto
          96 69 40 59 46 hvcurveto
          -78 24 rlineto
          -30 -28 -39 -19 -56 hhcurveto
          -71 -74 38 125 13 hvcurveto
          384 hlineto
          147 35 -65 132 -161 hhcurveto
          -146 -109 -92 -164 -23 hvcurveto
          -158 -22 82 -102 147 hhcurveto
          59 444 rmoveto
          98 33 -74 -65 -7 hvcurveto
          -293 hlineto
          89 19 76 50 74 hhcurveto
          156 vmoveto
          -13 11 17 -6 18 hhcurveto
          17 19 6 13 17 hvcurveto
          133 101 rlineto
          -97 hlineto
          -81 -61 -54 61 rlineto
          -91 hlineto
          endchar
        </CharString>
        <CharString name="ecircumflex">
          7 -12 74 163 68 139 72 71 120 hstem
          27 88 305 88 vstem
          237 -12 rmoveto
          96 69 40 59 46 hvcurveto
          -78 24 rlineto
          -30 -28 -39 -19 -56 hhcurveto
          -71 -74 38 125 13 hvcurveto
          384 hlineto
          147 35 -65 132 -161 hhcurveto
          -146 -109 -92 -164 -23 hvcurveto
          -158 -22 82 -102 147 hhcurveto
          59 444 rmoveto
          98 33 -74 -65 -7 hvcurveto
          -293 hlineto
          89 19 76 50 74 hhcurveto
          -130 143 rmoveto
          96 hlineto
          81 61 54 -61 rlineto
          92 hlineto
          -90 101 rlineto
          13 -12 -16 6 -17 hhcurveto
          -18 -19 -6 -13 -17 hvcurveto
          endchar
        </CharString>
        <CharString name="edieresis">
          7 -12 74 163 68 139 72 86 107 hstemhm
          27 88 78 108 104 107 -92 88 hintmask 11111101
          237 -12 rmoveto
          96 69 40 59 46 hvcurveto
          -78 24 rlineto
          -30 -28 -39 -19 -56 hhcurveto
          -71 -74 38 125 13 hvcurveto
          384 hlineto
          147 35 -65 132 -161 hhcurveto
          -146 -109 -92 -164 -23 hvcurveto
          -158 -22 82 -102 147 hhcurveto
          59 444 rmoveto
          98 33 -74 -65 -7 hvcurveto
          -293 hlineto
          89 19 76 50 74 hhcurveto
          -103 212 rmoveto
          -30 24 -24 30 30 24 24 30 29 -24 24 -30 -30 -24 -24 -29 vhcurveto
          265 -54 rmoveto
          hintmask 11111110
          30 24 24 30 29 -24 24 -30 -29 -24 -24 -29 -30 24 -24 29 hvcurveto
          endchar
        </CharString>
        <CharString name="edotaccent">
          7 -12 74 163 68 139 72 86 108 hstem
          27 88 185 108 12 88 vstem
          237 -12 rmoveto
          96 69 40 59 46 hvcurveto
          -78 24 rlineto
          -30 -28 -39 -19 -56 hhcurveto
          -71 -74 38 125 13 hvcurveto
          384 hlineto
          147 35 -65 132 -161 hhcurveto
          -146 -109 -92 -164 -23 hvcurveto
          -158 -22 82 -102 147 hhcurveto
          59 444 rmoveto
          98 33 -74 -65 -7 hvcurveto
          -293 hlineto
          89 19 76 50 74 hhcurveto
          4 212 rmoveto
          -30 24 -24 30 30 24 24 30 30 -24 24 -30 -30 -24 -24 -30 vhcurveto
          endchar
        </CharString>
        <CharString name="egrave">
          7 -12 74 163 68 139 72 67 136 hstem
          27 88 305 88 vstem
          237 -12 rmoveto
          96 69 40 59 46 hvcurveto
          -78 24 rlineto
          -30 -28 -39 -19 -56 hhcurveto
          -71 -74 38 125 13 hvcurveto
          384 hlineto
          147 35 -65 132 -161 hhcurveto
          -146 -109 -92 -164 -23 hvcurveto
          -158 -22 82 -102 147 hhcurveto
          59 444 rmoveto
          98 33 -74 -65 -7 hvcurveto
          -293 hlineto
          89 19 76 50 74 hhcurveto
          -65 215 rmoveto
          16 -22 53 -54 0 vvcurveto
          68 hlineto
          0 -60 99 -16 22 vhcurveto
          10 -7 -12 5 -11 hhcurveto
          -8 -8 -2 -5 -7 hvcurveto
          -16 -11 -4 -25 12 -17 rrcurveto
          endchar
        </CharString>
        <CharString name="eight">
          83 -12 75 254 74 214 75 hstemhm
          39 91 8 74 214 74 -57 90 hintmask 11111010
          266 -12 rmoveto
          139 115 72 128 13 hvcurveto
          hintmask 11111100
          10 87 -43 61 -71 29 39 33 27 48 5 52 rrcurveto
          100 10 -72 82 -100 hhcurveto
          -100 -90 -82 -100 -10 hvcurveto
          -5 -52 16 -48 32 -33 -77 -29 -56 -61 -9 -87 rrcurveto
          -128 -13 100 -72 140 hhcurveto
          -136 200 rmoveto
          79 8 67 50 94 hhcurveto
          hintmask 11111010
          96 56 -50 -79 -8 hvcurveto
          -78 -8 -67 -47 -94 hhcurveto
          -96 -56 47 78 8 hvcurveto
          82 310 rmoveto
          60 6 53 47 58 hhcurveto
          hintmask 11111100
          60 43 -47 -60 -6 hvcurveto
          -59 -6 -54 -48 -59 hhcurveto
          -59 -42 48 59 6 hvcurveto
          endchar
        </CharString>
        <CharString name="eight.tf">
          105 -12 75 254 74 214 75 hstemhm
          51 91 8 74 214 74 -57 90 hintmask 11111010
          278 -12 rmoveto
          139 115 72 128 13 hvcurveto
          hintmask 11111100
          10 87 -43 61 -71 29 39 33 27 48 5 52 rrcurveto
          100 10 -72 82 -100 hhcurveto
          -100 -90 -82 -100 -10 hvcurveto
          -5 -52 16 -48 32 -33 -77 -29 -56 -61 -9 -87 rrcurveto
          -128 -13 100 -72 140 hhcurveto
          -136 200 rmoveto
          79 8 67 50 94 hhcurveto
          hintmask 11111010
          96 56 -50 -79 -8 hvcurveto
          -78 -8 -67 -47 -94 hhcurveto
          -96 -56 47 78 8 hvcurveto
          82 310 rmoveto
          60 6 53 47 58 hhcurveto
          hintmask 11111100
          60 43 -47 -60 -6 hvcurveto
          -59 -6 -54 -48 -59 hhcurveto
          -59 -42 48 59 6 hvcurveto
          endchar
        </CharString>
        <CharString name="ellipsis">
          165 -12 129 hstem
          4 129 102 129 101 129 vstem
          235 52 rmoveto
          -35 28 -29 36 36 29 29 35 36 -29 29 -36 -36 -28 -29 -36 vhcurveto
          230 hmoveto
          -35 29 -29 36 35 29 29 35 36 -29 29 -35 -36 -29 -29 -36 vhcurveto
          -397 -64 rmoveto
          36 29 29 35 36 -29 29 -36 -35 -29 -29 -36 -35 29 -29 35 hvcurveto
          endchar
        </CharString>
        <CharString name="emacron">
          7 -12 74 163 68 139 72 97 67 hstem
          27 88 305 88 vstem
          237 -12 rmoveto
          96 69 40 59 46 hvcurveto
          -78 24 rlineto
          -30 -28 -39 -19 -56 hhcurveto
          -71 -74 38 125 13 hvcurveto
          384 hlineto
          147 35 -65 132 -161 hhcurveto
          -146 -109 -92 -164 -23 hvcurveto
          -158 -22 82 -102 147 hhcurveto
          59 444 rmoveto
          98 33 -74 -65 -7 hvcurveto
          -293 hlineto
          89 19 76 50 74 hhcurveto
          187 169 rmoveto
          14 67 rlineto
          -276 hlineto
          -14 -67 rlineto
          endchar
        </CharString>
        <CharString name="emdash">
          283 208 79 hstem
          40 718 vstem
          40 208 rmoveto
          718 79 -718 hlineto
          endchar
        </CharString>
        <CharString name="endash">
          -37 208 79 hstem
          40 398 vstem
          40 208 rmoveto
          398 79 -398 hlineto
          endchar
        </CharString>
        <CharString name="eogonek">
          7 -173 57 104 74 163 68 139 72 hstem
          27 88 67 77 161 88 vstem
          234 -12 rmoveto
          -30 -22 -22 -30 -36 vvcurveto
          -42 29 -31 55 19 23 4 8 25 vhcurveto
          11 54 rlineto
          -6 -16 -14 -3 -13 hhcurveto
          -25 -17 12 21 43 42 28 35 17 hvcurveto
          47 17 37 29 28 36 -78 24 rcurveline
          -30 -28 -39 -19 -56 hhcurveto
          -71 -74 38 125 13 hvcurveto
          384 hlineto
          147 35 -65 132 -161 hhcurveto
          -146 -109 -92 -164 -23 hvcurveto
          -22 -157 81 -101 145 -2 rrcurveto
          62 444 rmoveto
          98 33 -74 -65 -7 hvcurveto
          -293 hlineto
          89 19 76 50 74 hhcurveto
          endchar
        </CharString>
        <CharString name="equal">
          124 121 79 107 79 hstem
          63 496 vstem
          63 307 rmoveto
          496 79 -496 hlineto
          496 -265 rmoveto
          79 -496 -79 vlineto
          endchar
        </CharString>
        <CharString name="estimated">
          94 -12 32 228 31 193 32 hstem
          50 106 304 106 vstem
          308 -12 rmoveto
          83 73 39 60 47 hvcurveto
          -33 10 rlineto
          -47 -41 -61 -30 -68 hhcurveto
          -59 -53 22 36 -40 hvcurveto
          170 410 vlineto
          141 -1 -115 115 -142 hhcurveto
          -154 -104 -130 -118 -177 136 -91 122 hvcurveto
          484 vmoveto
          58 54 -22 -37 40 hvcurveto
          -134 -304 134 vlineto
          37 40 53 22 59 hhcurveto
          endchar
        </CharString>
        <CharString name="eth">
          36 -12 71 311 75 158 76 hstem
          440 85 vstem
          231 -12 rmoveto
          251 41 278 99 2 hvcurveto
          3 114 -24 77 -45 49 47 38 rcurveline
          -29 36 -53 -44 -49 34 -63 12 -76 -2 rlinecurve
          -16 -76 53 3 46 -7 37 -20 rlinecurve
          -84 -70 28 -36 93 77 37 -40 18 -68 -12 -103 rlinecurve
          52 -19 -61 54 -87 hhcurveto
          -141 -91 -98 -128 -13 hvcurveto
          -123 -12 94 -108 125 hhcurveto
          -123 231 rmoveto
          93 12 61 58 92 hhcurveto
          78 58 -57 -98 -11 hvcurveto
          -93 -10 -59 -63 -88 hhcurveto
          -95 -50 81 79 12 hvcurveto
          endchar
        </CharString>
        <CharString name="exclam">
          -250 10 -21 679 -20 hstem
          27 241 vstem
          149 195 rmoveto
          83 300 36 173 rlineto
          -91 hlineto
          -37 -173 -45 -300 rlineto
          -67 -153 rmoveto
          6 -35 33 -24 35 6 35 6 24 33 -6 35 -6 35 -33 24 -35 -6 -35 -6 -24 -33 6 -35 rrcurveto
          endchar
        </CharString>
        <CharString name="exclamdown">
          -250 390 129 hstem
          112 129 vstem
          -161 vmoveto
          91 hlineto
          37 173 46 299 rlineto
          -55 hlineto
          -82 -299 rlineto
          75 443 rmoveto
          -36 29 -29 36 35 29 29 36 35 -29 29 -35 -36 -29 -29 -35 vhcurveto
          endchar
        </CharString>
        <CharString name="f">
          -214 21 -21 428 68 139 71 hstem
          37 337 vstem
          37 hmoveto
          86 hlineto
          91 428 rlineto
          101 hlineto
          15 68 rlineto
          -102 hlineto
          15 67 rlineto
          68 15 28 4 49 hhcurveto
          24 hlineto
          15 71 rlineto
          -152 -32 0 -157 -36 hvcurveto
          -12 -53 rlineto
          -83 hlineto
          -15 -68 rlineto
          84 hlineto
          endchar
        </CharString>
        <CharString name="five">
          41 -12 72 317 73 137 81 hstem
          25 536 vstem
          238 -12 rmoveto
          116 -6 126 66 19 165 rrcurveto
          154 18 -106 83 -110 hhcurveto
          -55 -43 -16 -34 -37 hvcurveto
          63 187 rlineto
          314 hlineto
          18 81 rlineto
          -385 hlineto
          -113 -339 78 -24 23 41 50 35 71 -4 rlinecurve
          80 -4 51 -49 -7 -104 -7 -99 -63 -64 -97 3 -65 3 -48 35 -21 79 -83 -23 rcurveline
          22 -92 68 -68 123 -6 rrcurveto
          endchar
        </CharString>
        <CharString name="five.tf">
          105 -12 72 317 73 137 81 hstem
          57 536 vstem
          57 154 rmoveto
          22 -92 68 -68 123 -6 116 -6 126 66 19 165 rrcurveto
          154 18 -106 83 -110 hhcurveto
          -55 -43 -16 -34 -37 hvcurveto
          63 187 rlineto
          314 hlineto
          18 81 rlineto
          -385 hlineto
          -113 -339 78 -24 23 41 50 35 71 -4 rlinecurve
          80 -4 51 -49 -7 -104 -7 -99 -63 -64 -97 3 -65 3 -48 35 -21 79 rrcurveto
          endchar
        </CharString>
        <CharString name="florin">
          -205 -173 78 523 68 139 71 hstem
          -72 456 vstem
          -72 -165 rmoveto
          -5 25 21 -3 20 hhcurveto
          77 35 43 92 19 hvcurveto
          99 466 rlineto
          101 hlineto
          14 68 rlineto
          -102 hlineto
          16 74 rlineto
          50 11 26 15 38 hhcurveto
          40 hlineto
          16 71 rlineto
          -49 hlineto
          -118 -27 -30 -121 -25 hvcurveto
          -12 -59 rlineto
          -84 hlineto
          -15 -68 rlineto
          84 hlineto
          -96 -452 rlineto
          -42 -9 -13 -29 -42 hhcurveto
          -10 -11 2 3 -13 hvcurveto
          endchar
        </CharString>
        <CharString name="four">
          102 21 -21 165 79 424 -20 hstem
          17 566 vstem
          17 165 rmoveto
          339 hlineto
          -36 -165 rlineto
          87 hlineto
          35 165 rlineto
          124 hlineto
          17 79 rlineto
          -124 hlineto
          90 424 rlineto
          -87 hlineto
          -428 -424 rlineto
          404 308 rmoveto
          -66 -308 rlineto
          -245 hlineto
          endchar
        </CharString>
        <CharString name="four.tf">
          105 21 -21 165 79 424 -20 hstem
          24 566 vstem
          24 165 rmoveto
          339 hlineto
          -36 -165 rlineto
          87 hlineto
          35 165 rlineto
          124 hlineto
          17 79 rlineto
          -124 hlineto
          90 424 rlineto
          -87 hlineto
          -428 -424 rlineto
          404 308 rmoveto
          -66 -308 rlineto
          -245 hlineto
          endchar
        </CharString>
        <CharString name="fraction">
          -90 21 -21 668 -20 hstem
          -47 556 vstem
          -47 hmoveto
          88 hlineto
          468 668 rlineto
          -88 hlineto
          endchar
        </CharString>
        <CharString name="g">
          20 -190 73 133 73 343 74 -10 -20 hstemhm
          -5 532 hintmask 11011000
          179 -190 rmoveto
          218 19 162 75 16 hvcurveto
          24 112 71 337 0 vvcurveto
          -62 hlineto
          -40 -78 rlineto
          hintmask 11101000
          54 -26 -64 34 -70 hhcurveto
          -101 -112 -70 -178 -19 hvcurveto
          -163 -17 103 -79 99 hhcurveto
          52 51 21 43 33 hvcurveto
          0 -10 -44 -3 -13 vhcurveto
          -18 -77 -30 -59 -100 -4 -65 -3 -36 34 -7 33 -90 -25 rcurveline
          -70 24 76 -42 84 hhcurveto
          -57 446 rmoveto
          111 14 57 65 82 hhcurveto
          75 65 -61 -115 -20 hvcurveto
          -17 -97 -54 -73 -82 3 -81 3 -52 62 13 102 rrcurveto
          endchar
        </CharString>
        <CharString name="gbreve">
          20 -190 73 133 73 343 73 -9 -20 93 67 hstemhm
          -5 532 hintmask 11011100
          -5 -78 rmoveto
          -70 24 76 -42 84 hhcurveto
          218 19 162 75 16 hvcurveto
          24 112 71 337 0 vvcurveto
          -62 hlineto
          -40 -78 -63 133 -297 7 -32 -300 rlinecurve
          -26 -249 252 -53 95 124 rrcurveto
          0 -10 -44 -3 -13 vhcurveto
          -18 -77 -30 -59 -100 -4 -65 -3 -36 34 -7 33 rrcurveto
          157 142 rmoveto
          -81 3 -52 62 13 102 rrcurveto
          hintmask 11101100
          111 14 57 65 82 hhcurveto
          75 65 -61 -115 -20 hvcurveto
          -17 -97 -54 -73 -82 3 rrcurveto
          189 600 rmoveto
          -27 -17 -29 -26 -43 hhcurveto
          -43 -19 27 26 -5 hvcurveto
          -69 hlineto
          -55 44 -65 85 86 55 61 59 24 vhcurveto
          endchar
        </CharString>
        <CharString name="gdotaccent">
          20 -190 73 133 73 343 74 -10 -20 115 108 hstemhm
          295 108 hintmask 11011100
          179 -190 rmoveto
          218 19 162 75 16 hvcurveto
          24 112 71 337 0 vvcurveto
          -62 hlineto
          -40 -78 rlineto
          hintmask 11101100
          54 -26 -64 34 -70 hhcurveto
          -101 -112 -70 -178 -19 hvcurveto
          -163 -17 103 -79 99 hhcurveto
          52 51 21 43 33 hvcurveto
          0 -10 -44 -3 -13 vhcurveto
          -18 -77 -30 -59 -100 -4 -65 -3 -36 34 -7 33 -90 -25 rcurveline
          -70 24 76 -42 84 hhcurveto
          -57 446 rmoveto
          111 14 57 65 82 hhcurveto
          75 65 -61 -115 -20 hvcurveto
          -17 -97 -54 -73 -82 3 -81 3 -52 62 13 102 rrcurveto
          227 335 rmoveto
          30 24 24 30 30 -24 24 -30 -30 -24 -24 -30 -30 24 -24 30 hvcurveto
          endchar
        </CharString>
        <CharString name="germandbls">
          75 -12 76 -43 -21 329 77 204 70 hstemhm
          453 95 -65 87 hintmask 01111000
          100 hmoveto
          96 452 rlineto
          115 24 51 43 103 hhcurveto
          hintmask 01110100
          74 39 -36 -60 -4 hvcurveto
          -68 -4 -74 -40 -100 hhcurveto
          -16 -77 rlineto
          hintmask 10111000
          114 59 -35 -94 -9 hvcurveto
          -96 -9 -72 -40 -92 hhcurveto
          -15 -16 1 2 -16 hvcurveto
          6 -79 149 -9 152 59 8 159 rlinecurve
          5 100 -36 46 -78 29 rrcurveto
          hintmask 01110100
          84 17 43 67 4 68 rrcurveto
          108 6 -91 48 -107 hhcurveto
          -211 -36 -133 -95 -21 hvcurveto
          -96 -452 rlineto
          endchar
        </CharString>
        <CharString name="grave">
          -262 571 136 hstem
          135 143 vstem
          141 647 rmoveto
          16 -22 53 -54 0 vvcurveto
          68 hlineto
          0 -60 99 -16 22 vhcurveto
          10 -7 -12 5 -11 hhcurveto
          -8 -8 -2 -5 -7 hvcurveto
          -16 -11 -4 -25 12 -17 rrcurveto
          endchar
        </CharString>
        <CharString name="grave.case">
          -256 744 120 hstem
          168 153 vstem
          248 744 rmoveto
          73 hlineto
          -84 103 rlineto
          -12 17 -21 0 0 vvcurveto
          -27 -9 -24 -12 -25 19 -14 61 -45 hvcurveto
          endchar
        </CharString>
        <CharString name="greater">
          79 21 -21 496 -20 hstem
          83 473 vstem
          451 248 rmoveto
          -368 -158 rlineto
          -90 vlineto
          473 213 rlineto
          70 vlineto
          -473 213 rlineto
          -90 vlineto
          endchar
        </CharString>
        <CharString name="greaterequal">
          152 0 80 425 -20 hstem
          98 473 vstem
          466 302 rmoveto
          -368 -112 rlineto
          -90 vlineto
          473 167 rlineto
          70 vlineto
          -473 168 rlineto
          -91 vlineto
          -414 vmoveto
          473 80 -473 hlineto
          endchar
        </CharString>
        <CharString name="guillemotleft">
          29 40 421 hstem
          45 484 vstem
          148 40 rmoveto
          89 hlineto
          -97 200 181 221 rlineto
          -104 hlineto
          -172 -211 rlineto
          208 hmoveto
          103 -210 rlineto
          89 hlineto
          -97 200 181 221 rlineto
          -104 hlineto
          endchar
        </CharString>
        <CharString name="guillemotright">
          21 40 421 hstem
          9 484 vstem
          9 40 rmoveto
          104 hlineto
          172 211 -103 210 rlineto
          -89 hlineto
          97 -200 rlineto
          27 -221 rmoveto
          104 hlineto
          172 211 -103 210 rlineto
          -89 hlineto
          97 -200 rlineto
          endchar
        </CharString>
        <CharString name="guilsinglleft">
          -179 40 421 hstem
          45 276 vstem
          148 40 rmoveto
          89 hlineto
          -97 200 181 221 rlineto
          -104 hlineto
          -172 -211 rlineto
          endchar
        </CharString>
        <CharString name="guilsinglright">
          -187 40 421 hstem
          9 276 vstem
          9 40 rmoveto
          104 hlineto
          172 211 -103 210 rlineto
          -89 hlineto
          97 -200 rlineto
          endchar
        </CharString>
        <CharString name="h">
          15 21 -21 430 74 164 -20 hstem
          402 88 vstem
          8 hmoveto
          86 hlineto
          54 257 rlineto
          130 27 72 43 72 hhcurveto
          76 22 -37 -113 -24 hvcurveto
          -59 -280 rlineto
          85 hlineto
          62 288 rlineto
          147 32 -52 69 -105 hhcurveto
          -89 -49 -34 -43 -33 hvcurveto
          51 241 rlineto
          -86 hlineto
          endchar
        </CharString>
        <CharString name="hbar">
          48 21 -21 430 74 44 67 -67 120 hstemhm
          435 88 hintmask 11101000
          172 615 rmoveto
          -83 hlineto
          -14 -67 rlineto
          82 hlineto
          -116 -548 rlineto
          86 hlineto
          54 257 rlineto
          130 27 72 43 72 hhcurveto
          76 22 -37 -113 -24 hvcurveto
          -59 -280 rlineto
          85 hlineto
          62 288 rlineto
          147 32 -52 69 -105 hhcurveto
          -89 -49 -34 -43 -33 hvcurveto
          26 121 rlineto
          160 hlineto
          14 67 rlineto
          -160 hlineto
          hintmask 11011000
          11 53 rlineto
          -86 hlineto
          endchar
        </CharString>
        <CharString name="hungarumlaut">
          -140 572 136 hstem
          103 329 vstem
          249 572 rmoveto
          73 hlineto
          0 78 52 20 18 vhcurveto
          16 14 0 24 -13 16 rrcurveto
          8 -7 -10 4 -10 hhcurveto
          -9 -9 -3 -6 -8 hvcurveto
          -21 -17 -100 -110 0 vvcurveto
          -146 hmoveto
          74 hlineto
          0 78 52 20 18 vhcurveto
          15 14 2 24 -14 16 rrcurveto
          8 -7 -10 4 -11 hhcurveto
          -9 -9 -3 -6 -8 hvcurveto
          -19 -18 -102 -109 0 vvcurveto
          endchar
        </CharString>
        <CharString name="hungarumlaut.case">
          -119 744 136 hstem
          149 329 vstem
          295 744 rmoveto
          73 hlineto
          0 78 52 20 18 vhcurveto
          16 14 0 24 -13 16 rrcurveto
          8 -6 -10 4 -11 hhcurveto
          -9 -9 -3 -6 -8 hvcurveto
          -21 -17 -100 -110 0 vvcurveto
          -146 hmoveto
          74 hlineto
          0 78 52 20 18 vhcurveto
          15 14 2 24 -14 16 rrcurveto
          8 -7 -10 4 -11 hhcurveto
          -9 -9 -3 -6 -8 hvcurveto
          -19 -18 -102 -109 0 vvcurveto
          endchar
        </CharString>
        <CharString name="hyphen">
          -165 208 81 hstem
          20 310 vstem
          20 208 rmoveto
          292 hlineto
          18 81 rlineto
          -292 hlineto
          endchar
        </CharString>
        <CharString name="i">
          -264 21 -21 428 68 95 125 hstem
          167 125 vstem
          132 hmoveto
          105 496 rlineto
          -166 hlineto
          -14 -68 rlineto
          80 hlineto
          -91 -428 rlineto
          183 591 rmoveto
          35 28 28 34 35 -28 28 -35 -34 -28 -28 -35 -34 28 -28 34 hvcurveto
          endchar
        </CharString>
        <CharString name="iacute">
          -264 22 -21 428 68 73 135 hstem
          47 301 vstem
          47 1 rmoveto
          86 hlineto
          105 496 rlineto
          -166 hlineto
          -14 -68 rlineto
          80 hlineto
          100 141 rmoveto
          0 78 52 20 17 vhcurveto
          15 13 2 25 -14 16 rrcurveto
          8 -8 -10 4 -11 hhcurveto
          -9 -9 -3 -6 -7 hvcurveto
          -20 -17 -101 -109 0 vvcurveto
          endchar
        </CharString>
        <CharString name="icircumflex">
          -264 22 -21 428 68 78 120 hstem
          38 323 vstem
          47 1 rmoveto
          86 hlineto
          105 496 rlineto
          -166 hlineto
          -14 -68 rlineto
          80 hlineto
          -100 146 rmoveto
          96 hlineto
          80 61 55 -61 rlineto
          92 hlineto
          -91 101 rlineto
          13 -11 -17 6 -17 hhcurveto
          -18 -19 -6 -13 -17 hvcurveto
          endchar
        </CharString>
        <CharString name="idieresis">
          -264 21 -21 428 68 88 107 hstem
          37 108 104 107 vstem
          132 hmoveto
          105 496 rlineto
          -166 hlineto
          -14 -68 rlineto
          80 hlineto
          -91 -428 rlineto
          45 584 rmoveto
          30 24 24 30 29 -24 24 -30 -30 -24 -24 -29 -30 24 -24 30 hvcurveto
          211 hmoveto
          30 24 24 30 29 -24 24 -30 -29 -24 -24 -29 -30 24 -24 29 hvcurveto
          endchar
        </CharString>
        <CharString name="igrave">
          -264 21 -21 428 68 75 136 hstem
          46 203 vstem
          132 hmoveto
          105 496 rlineto
          -166 hlineto
          -14 -68 rlineto
          80 hlineto
          -91 -428 rlineto
          66 647 rmoveto
          16 -22 53 -54 0 vvcurveto
          68 hlineto
          0 -60 99 -16 22 vhcurveto
          10 -7 -12 5 -11 hhcurveto
          -8 -8 -2 -5 -7 hvcurveto
          -16 -11 -4 -25 12 -17 rrcurveto
          endchar
        </CharString>
        <CharString name="imacron">
          -256 22 -21 428 68 104 67 hstem
          54 318 vstem
          54 1 rmoveto
          86 hlineto
          105 496 rlineto
          -166 hlineto
          -14 -68 rlineto
          80 hlineto
          -63 172 rmoveto
          276 hlineto
          14 67 rlineto
          -276 hlineto
          endchar
        </CharString>
        <CharString name="infinity">
          246 104 76 150 76 hstem
          49 81 505 81 vstem
          49 256 rmoveto
          -89 65 -63 95 74 54 44 50 46 vhcurveto
          -50 45 54 -44 74 hhcurveto
          95 65 63 89 87 -67 63 -99 -72 -53 -42 -47 -42 hvcurveto
          47 -43 -53 42 -72 hhcurveto
          -99 -67 -63 -87 hvcurveto
          81 hmoveto
          45 37 29 49 49 34 -31 -43 36 vhcurveto
          -56 -46 -33 -20 -43 hhcurveto
          -48 -35 34 42 hvcurveto
          301 hmoveto
          43 36 34 31 48 hhcurveto
          49 37 -29 -45 -42 -35 -34 -48 -43 -32 20 56 -46 hvcurveto
          endchar
        </CharString>
        <CharString name="integral">
          -228 -173 46 762 46 hstem
          -31 99 35 84 34 100 vstem
          -31 -111 rmoveto
          -47 41 -15 44 60 73 31 186 vhcurveto
          494 vlineto
          102 37 -5 0 vhcurveto
          -2 -5 -1 -6 -5 vvcurveto
          -26 21 -24 29 28 22 22 28 47 -41 15 -44 -60 -73 -32 -185 vhcurveto
          -495 vlineto
          -101 -37 5 0 vhcurveto
          2 5 0 5 5 vvcurveto
          27 -20 24 -29 -28 -22 -23 -27 vhcurveto
          endchar
        </CharString>
        <CharString name="iogonek">
          -264 -173 57 137 -21 428 68 95 125 hstem
          -54 78 143 125 vstem
          -54 -106 rmoveto
          -37 29 -30 55 19 23 4 8 26 vhcurveto
          11 54 rlineto
          -6 -16 -15 -3 -13 hhcurveto
          -24 -17 11 16 34 45 32 63 23 hvcurveto
          105 496 rlineto
          -166 hlineto
          -14 -68 rlineto
          80 hlineto
          -91 -428 rlineto
          7 hlineto
          -65 -19 -42 -42 -45 vvcurveto
          283 697 rmoveto
          35 28 28 34 35 -28 28 -35 -34 -28 -28 -35 -34 28 -28 34 hvcurveto
          endchar
        </CharString>
        <CharString name="j">
          -276 -159 73 582 -20 115 126 hstem
          148 126 vstem
          -154 -159 rmoveto
          215 -11 23 31 31 147 104 488 rcurveline
          -86 hlineto
          -103 -483 -19 -90 -15 -12 -134 3 rlinecurve
          349 677 rmoveto
          34 29 28 35 35 -29 28 -34 -35 -28 -28 -35 -35 28 -28 35 hvcurveto
          endchar
        </CharString>
        <CharString name="k">
          -46 21 -21 496 -20 192 -20 hstem
          8 493 vstem
          8 hmoveto
          86 hlineto
          35 166 74 66 119 -232 rlineto
          94 hlineto
          -149 289 234 207 rlineto
          -112 hlineto
          -235 -211 82 383 rlineto
          -86 hlineto
          endchar
        </CharString>
        <CharString name="l">
          -274 0 75 593 -20 hstem
          28 91 vstem
          127 hmoveto
          56 hlineto
          16 75 rlineto
          -37 hlineto
          -49 2 19 46 9 hvcurveto
          112 528 rlineto
          -86 hlineto
          -115 -543 rlineto
          -84 -17 5 -41 104 hhcurveto
          endchar
        </CharString>
        <CharString name="lcaron">
          -270 0 75 421 172 11 -20 hstemhm
          28 91 hintmask 10110000
          199 75 rmoveto
          0 -28 0 -9 -49 2 19 46 9 vhcurveto
          hintmask 11010000
          112 528 rlineto
          -86 hlineto
          -115 -543 rlineto
          -84 -17 5 -41 104 hhcurveto
          14 42 0 0 hvcurveto
          107 496 rmoveto
          hintmask 10110000
          79 134 rlineto
          29 13 -16 20 -24 hhcurveto
          -23 -15 -18 -11 -4 hvcurveto
          hintmask 11010000
          -12 -25 -42 -116 -5 -13 rrcurveto
          endchar
        </CharString>
        <CharString name="less">
          79 21 -21 496 -20 hstem
          38 473 vstem
          38 283 rmoveto
          -70 vlineto
          473 -213 rlineto
          90 vlineto
          -368 158 368 158 rlineto
          90 vlineto
          endchar
        </CharString>
        <CharString name="lessequal">
          117 0 80 425 -20 hstem
          63 473 vstem
          63 337 rmoveto
          -70 vlineto
          473 -167 rlineto
          90 vlineto
          -368 112 368 112 rlineto
          91 vlineto
          -505 vmoveto
          80 -473 -80 vlineto
          endchar
        </CharString>
        <CharString name="logicalnot">
          133 317 79 hstem
          490 81 vstem
          75 317 rmoveto
          415 -227 81 306 -496 hlineto
          endchar
        </CharString>
        <CharString name="lozenge">
          27 -73 776 hstem
          58 455 vstem
          286 -73 rmoveto
          227 388 -227 388 -228 -388 rlineto
          228 -239 rmoveto
          -141 239 141 239 140 -239 rlineto
          endchar
        </CharString>
        <CharString name="lslash">
          -262 0 75 593 -20 hstem
          39 91 vstem
          78 272 rmoveto
          -32 -147 rlineto
          -84 -17 5 -41 105 hhcurveto
          56 hlineto
          16 75 rlineto
          -38 hlineto
          -48 1 19 46 9 hvcurveto
          39 183 101 53 15 71 -101 -54 59 275 rlineto
          -86 hlineto
          -69 -326 -76 -39 -15 -71 rlineto
          endchar
        </CharString>
        <CharString name="m">
          312 21 -21 431 73 -8 -20 hstemhm
          700 88 hintmask 11010000
          94 hmoveto
          57 270 rlineto
          110 24 64 51 74 hhcurveto
          77 10 -49 -93 -20 hvcurveto
          -61 -289 rlineto
          86 hlineto
          57 270 rlineto
          101 22 57 60 84 hhcurveto
          79 7 -51 -91 -20 hvcurveto
          -61 -289 rlineto
          86 hlineto
          63 300 rlineto
          199 43 -130 5 -41 hhcurveto
          -69 -58 -23 -65 -49 hvcurveto
          54 -19 -36 34 -79 hhcurveto
          -75 -44 -30 -47 -39 hvcurveto
          hintmask 10110000
          -6 69 rlineto
          -64 hlineto
          -105 -496 rlineto
          endchar
        </CharString>
        <CharString name="macron">
          -152 601 67 hstem
          119 290 vstem
          119 601 rmoveto
          276 hlineto
          14 67 rlineto
          -276 hlineto
          endchar
        </CharString>
        <CharString name="macron.case">
          -154 762 67 hstem
          152 291 vstem
          152 762 rmoveto
          276 hlineto
          15 67 rlineto
          -276 hlineto
          endchar
        </CharString>
        <CharString name="minus">
          85 209 79 hstem
          42 496 vstem
          42 209 rmoveto
          496 79 -496 hlineto
          endchar
        </CharString>
        <CharString name="multiply">
          59 39 423 hstem
          77 422 vstem
          77 404 rmoveto
          154 -154 -154 -153 57 -58 154 154 154 -154 57 58 -153 153 153 154 -57 58 -154 -154 -154 154 rlineto
          endchar
        </CharString>
        <CharString name="n">
          16 21 -21 430 74 -8 -20 hstemhm
          402 88 hintmask 11010000
          94 hmoveto
          54 257 rlineto
          130 28 71 43 72 hhcurveto
          76 22 -38 -113 -24 hvcurveto
          -59 -279 rlineto
          85 hlineto
          62 287 rlineto
          147 32 -52 70 -105 hhcurveto
          -89 -51 -34 -43 -33 hvcurveto
          hintmask 10110000
          -6 69 rlineto
          -64 hlineto
          -105 -496 rlineto
          endchar
        </CharString>
        <CharString name="nacute">
          16 21 -21 430 74 -8 -20 hstemhm
          402 88 hintmask 11010000
          94 hmoveto
          54 257 rlineto
          130 28 71 43 72 hhcurveto
          76 22 -38 -113 -24 hvcurveto
          -59 -279 rlineto
          85 hlineto
          62 287 rlineto
          147 32 -52 70 -105 hhcurveto
          -89 -51 -34 -43 -33 hvcurveto
          hintmask 10110000
          -6 69 rlineto
          -64 hlineto
          -105 -496 rlineto
          288 572 rmoveto
          74 hlineto
          0 78 52 20 17 vhcurveto
          15 13 2 25 -14 16 rrcurveto
          8 -8 -10 4 -11 hhcurveto
          -9 -9 -3 -6 -7 hvcurveto
          -20 -17 -101 -109 0 vvcurveto
          endchar
        </CharString>
        <CharString name="ncaron">
          16 21 -21 430 74 -8 -20 93 120 hstemhm
          402 88 hintmask 11011000
          94 hmoveto
          54 257 rlineto
          130 28 71 43 72 hhcurveto
          76 22 -38 -113 -24 hvcurveto
          -59 -279 rlineto
          85 hlineto
          62 287 rlineto
          147 32 -52 70 -105 hhcurveto
          -89 -51 -34 -43 -33 hvcurveto
          hintmask 10111000
          -6 69 rlineto
          -64 hlineto
          -105 -496 rlineto
          190 689 rmoveto
          91 -101 rlineto
          -13 11 17 -6 18 hhcurveto
          17 19 6 13 17 hvcurveto
          133 101 rlineto
          -97 hlineto
          -81 -61 -54 61 rlineto
          endchar
        </CharString>
        <CharString name="nine">
          67 21 -21 596 84 hstem
          93 87 vstem
          335 211 rmoveto
          -184 -211 rlineto
          116 hlineto
          0 186 217 78 118 vhcurveto
          87 131 -58 137 -96 52 rrcurveto
          17 -31 -36 8 -38 hhcurveto
          -86 -93 -43 -83 -49 hvcurveto
          -95 -162 84 -204 215 23 rrcurveto
          -155 229 rmoveto
          10 93 75 61 82 2 108 3 41 -87 -11 -66 rrcurveto
          -94 -16 -73 -64 -84 hhcurveto
          -84 -57 67 85 9 hvcurveto
          endchar
        </CharString>
        <CharString name="nine.tf">
          105 21 -21 596 84 hstem
          114 87 vstem
          356 211 rmoveto
          -184 -211 rlineto
          116 hlineto
          0 186 217 78 118 vhcurveto
          87 131 -58 137 -96 52 rrcurveto
          17 -31 -36 8 -38 hhcurveto
          -86 -93 -43 -83 -49 hvcurveto
          -95 -162 84 -204 215 23 rrcurveto
          -155 229 rmoveto
          10 93 75 61 82 2 108 3 41 -87 -11 -66 rrcurveto
          -94 -16 -73 -64 -84 hhcurveto
          -84 -57 67 85 9 hvcurveto
          endchar
        </CharString>
        <CharString name="notequal">
          124 0 200 -79 79 107 80 -80 189 hstemhm
          73 496 hintmask 01101000
          312 307 rmoveto
          -74 -107 rlineto
          -165 -79 109 hlineto
          hintmask 10101000
          -85 -121 rlineto
          100 hlineto
          hintmask 01101000
          85 121 rlineto
          287 79 -232 hlineto
          75 107 rlineto
          157 80 -101 hlineto
          hintmask 01011000
          76 109 rlineto
          -99 hlineto
          hintmask 01101000
          -77 -109 rlineto
          -295 -80 hlineto
          endchar
        </CharString>
        <CharString name="ntilde">
          16 21 -21 430 74 -8 -20 99 63 -21 63 hstemhm
          402 88 hintmask 11001100
          94 hmoveto
          54 257 rlineto
          130 28 71 43 72 hhcurveto
          76 22 -38 -113 -24 hvcurveto
          -59 -279 rlineto
          85 hlineto
          62 287 rlineto
          147 32 -52 70 -105 hhcurveto
          -89 -51 -34 -43 -33 hvcurveto
          hintmask 10101100
          -6 69 rlineto
          -64 hlineto
          -105 -496 rlineto
          214 577 rmoveto
          25 11 21 15 30 hhcurveto
          hintmask 11010100
          52 18 -42 59 hhcurveto
          55 31 30 27 17 hvcurveto
          hintmask 11001100
          22 14 -16 26 -23 hhcurveto
          -8 -10 -4 -9 -9 hvcurveto
          hintmask 11010100
          -13 -13 -13 -16 -25 -41 -21 42 -66 hhcurveto
          hintmask 11001100
          -53 -48 -32 -71 -27 hvcurveto
          endchar
        </CharString>
        <CharString name="numbersign">
          100 21 -21 172 81 162 81 172 -20 hstem
          36 579 vstem
          160 172 rmoveto
          -25 -172 rlineto
          82 hlineto
          24 172 rlineto
          123 hlineto
          -24 -172 rlineto
          82 hlineto
          24 172 rlineto
          124 hlineto
          11 81 rlineto
          -123 hlineto
          22 162 rlineto
          124 hlineto
          11 81 rlineto
          -123 hlineto
          24 172 rlineto
          -82 hlineto
          -24 -172 rlineto
          -123 hlineto
          24 172 rlineto
          -82 hlineto
          -24 -172 rlineto
          -124 hlineto
          -11 -81 rlineto
          124 hlineto
          -23 -162 rlineto
          -124 hlineto
          -11 -81 rlineto
          217 81 rmoveto
          22 162 rlineto
          123 hlineto
          -22 -162 rlineto
          endchar
        </CharString>
        <CharString name="o">
          13 -12 74 368 74 hstem
          26 89 298 89 vstem
          230 -12 rmoveto
          176 75 155 94 16 hvcurveto
          184 31 -109 83 -116 hhcurveto
          -115 -133 -73 -184 -25 hvcurveto
          -149 -21 71 -110 150 hhcurveto
          -111 259 rmoveto
          143 25 74 40 72 hhcurveto
          81 59 -43 -140 -22 hvcurveto
          -112 -18 -63 -73 -90 hhcurveto
          -95 -42 77 108 19 hvcurveto
          endchar
        </CharString>
        <CharString name="oacute">
          13 -12 74 368 74 68 135 hstem
          26 89 298 89 vstem
          230 -12 rmoveto
          176 75 155 94 16 hvcurveto
          184 31 -109 83 -116 hhcurveto
          -115 -133 -73 -184 -25 hvcurveto
          -149 -21 71 -110 150 hhcurveto
          -111 259 rmoveto
          143 25 74 40 72 hhcurveto
          81 59 -43 -140 -22 hvcurveto
          -112 -18 -63 -73 -90 hhcurveto
          -95 -42 77 108 19 hvcurveto
          250 325 rmoveto
          0 78 52 20 17 vhcurveto
          15 13 2 25 -14 16 rrcurveto
          8 -8 -10 4 -11 hhcurveto
          -9 -9 -3 -6 -7 hvcurveto
          -20 -17 -101 -109 0 vvcurveto
          endchar
        </CharString>
        <CharString name="ocircumflex">
          13 -12 74 368 74 71 120 hstem
          26 89 298 89 vstem
          230 -12 rmoveto
          176 75 155 94 16 hvcurveto
          184 31 -109 83 -116 hhcurveto
          -115 -133 -73 -184 -25 hvcurveto
          -149 -21 71 -110 150 hhcurveto
          -111 259 rmoveto
          143 25 74 40 72 hhcurveto
          81 59 -43 -140 -22 hvcurveto
          -112 -18 -63 -73 -90 hhcurveto
          -95 -42 77 108 19 hvcurveto
          149 328 rmoveto
          81 61 54 -61 rlineto
          92 hlineto
          -90 101 rlineto
          13 -12 -16 6 -17 hhcurveto
          -18 -19 -6 -13 -17 hvcurveto
          -134 -101 rlineto
          endchar
        </CharString>
        <CharString name="odieresis">
          13 -12 74 368 74 86 107 hstemhm
          26 89 72 108 104 107 -93 89 hintmask 11111010
          230 -12 rmoveto
          176 75 155 94 16 hvcurveto
          184 31 -109 83 -116 hhcurveto
          -115 -133 -73 -184 -25 hvcurveto
          -149 -21 71 -110 150 hhcurveto
          -111 259 rmoveto
          143 25 74 40 72 hhcurveto
          81 59 -43 -140 -22 hvcurveto
          -112 -18 -63 -73 -90 hhcurveto
          -95 -42 77 108 19 hvcurveto
          68 397 rmoveto
          -30 24 -24 30 30 24 24 30 29 -24 24 -30 -30 -24 -24 -29 vhcurveto
          hintmask 11111100
          212 hmoveto
          -30 24 -24 29 30 24 24 30 29 -24 24 -30 -29 -24 -24 -29 vhcurveto
          endchar
        </CharString>
        <CharString name="oe">
          376 -12 74 164 67 139 72 hstem
          26 89 297 72 305 88 vstem
          232 -12 rmoveto
          89 63 45 53 40 hvcurveto
          -63 37 53 -35 96 hhcurveto
          96 68 44 55 43 hvcurveto
          -78 24 rlineto
          -30 -27 -40 -19 -56 hhcurveto
          -78 -65 43 121 11 hvcurveto
          384 hlineto
          149 36 -68 129 -162 hhcurveto
          -84 -77 -35 -63 -46 hvcurveto
          75 -39 -59 23 -69 hhcurveto
          -108 -137 -74 -183 -25 hvcurveto
          -157 -22 78 -102 146 hhcurveto
          -113 261 rmoveto
          141 24 77 40 72 hhcurveto
          78 57 -43 -139 -19 hvcurveto
          -16 -111 -68 -76 -91 1 -86 2 -48 69 20 116 rrcurveto
          545 183 rmoveto
          100 33 -72 -67 -8 hvcurveto
          -292 hlineto
          88 19 73 51 75 hhcurveto
          endchar
        </CharString>
        <CharString name="ogonek">
          -264 -173 57 hstem
          -30 77 vstem
          121 -161 rmoveto
          11 54 rlineto
          -6 -16 -15 -3 -13 hhcurveto
          -24 -17 11 16 34 45 32 63 23 hvcurveto
          -79 hlineto
          -64 -19 -42 -42 -45 vvcurveto
          -37 29 -30 55 19 22 4 8 26 vhcurveto
          endchar
        </CharString>
        <CharString name="ogonek.case">
          -268 -173 57 hstem
          -33 77 vstem
          118 -161 rmoveto
          11 54 rlineto
          -6 -16 -15 -3 -13 hhcurveto
          -24 -17 11 16 34 45 32 63 23 hvcurveto
          -79 hlineto
          -64 -19 -42 -42 -45 vvcurveto
          -37 29 -30 55 19 22 4 8 26 vhcurveto
          endchar
        </CharString>
        <CharString name="ograve">
          13 -12 74 368 74 67 136 hstem
          26 89 298 89 vstem
          230 -12 rmoveto
          176 75 155 94 16 hvcurveto
          184 31 -109 83 -116 hhcurveto
          -115 -133 -73 -184 -25 hvcurveto
          -149 -21 71 -110 150 hhcurveto
          -111 259 rmoveto
          143 25 74 40 72 hhcurveto
          81 59 -43 -140 -22 hvcurveto
          -112 -18 -63 -73 -90 hhcurveto
          -95 -42 77 108 19 hvcurveto
          112 400 rmoveto
          15 -22 54 -54 0 vvcurveto
          68 hlineto
          0 -60 99 -16 22 vhcurveto
          10 -7 -12 5 -11 hhcurveto
          -8 -8 -2 -5 -7 hvcurveto
          -16 -11 -4 -25 12 -17 rrcurveto
          endchar
        </CharString>
        <CharString name="ohungarumlaut">
          13 -12 74 368 74 68 136 hstem
          26 89 298 89 vstem
          230 -12 rmoveto
          176 75 155 94 16 hvcurveto
          184 31 -109 83 -116 hhcurveto
          -115 -133 -73 -184 -25 hvcurveto
          -149 -21 71 -110 150 hhcurveto
          -111 259 rmoveto
          143 25 74 40 72 hhcurveto
          81 59 -43 -140 -22 hvcurveto
          -112 -18 -63 -73 -90 hhcurveto
          -95 -42 77 108 19 hvcurveto
          236 325 rmoveto
          73 hlineto
          0 78 52 20 18 vhcurveto
          16 14 0 24 -13 16 rrcurveto
          8 -7 -10 4 -10 hhcurveto
          -9 -9 -3 -6 -8 hvcurveto
          -21 -17 -100 -110 0 vvcurveto
          -72 hmoveto
          0 78 52 20 18 vhcurveto
          15 14 2 24 -14 16 rrcurveto
          8 -7 -10 4 -11 hhcurveto
          -9 -9 -3 -6 -8 hvcurveto
          -19 -18 -102 -109 0 vvcurveto
          endchar
        </CharString>
        <CharString name="one">
          -131 21 -21 503 68 97 -20 hstem
          87 298 vstem
          87 503 rmoveto
          178 hlineto
          -107 -503 rlineto
          85 hlineto
          142 668 rlineto
          -58 hlineto
          -59 -28 -57 -38 -141 hhcurveto
          endchar
        </CharString>
        <CharString name="one.tf">
          105 8 77 428 67 97 -20 hstem
          37 438 vstem
          37 8 rmoveto
          422 hlineto
          16 77 rlineto
          -158 hlineto
          125 592 rlineto
          -58 hlineto
          -59 -28 -56 -38 -141 hhcurveto
          -15 -67 rlineto
          178 hlineto
          -90 -428 rlineto
          -179 hlineto
          endchar
        </CharString>
        <CharString name="onehalf">
          268 0 58 275 49 189 96 hstemhm
          664 71 vstemhm
          181 hmoveto
          468 668 rlineto
          -88 hlineto
          -468 -668 rlineto
          594 hmoveto
          12 58 rlineto
          -179 hlineto
          132 66 79 79 4 76 rrcurveto
          71 4 -59 32 -70 hhcurveto
          -68 -48 -34 -56 -23 hvcurveto
          60 -19 rlineto
          43 15 32 17 30 hhcurveto
          34 25 -23 -36 -3 hvcurveto
          -5 -62 -55 -58 -182 -100 -11 -54 rcurveline
          -217 571 rmoveto
          -59 -279 rlineto
          69 hlineto
          80 375 rlineto
          -57 hlineto
          hintmask 11110000
          -38 -19 -33 -11 -53 hhcurveto
          -10 -47 rlineto
          endchar
        </CharString>
        <CharString name="onequarter">
          290 0 143 -57 57 428 47 -47 96 hstemhm
          100 639 hintmask 01011000
          399 86 rmoveto
          193 hlineto
          hintmask 10011000
          -18 -86 rlineto
          70 hlineto
          hintmask 01011000
          18 86 rlineto
          65 hlineto
          12 57 rlineto
          -65 hlineto
          50 232 rlineto
          -77 hlineto
          -236 -235 rlineto
          hintmask 10011000
          -311 -140 rmoveto
          88 hlineto
          468 668 rlineto
          -88 hlineto
          -456 -97 rmoveto
          83 hlineto
          -59 -279 rlineto
          68 hlineto
          80 375 rlineto
          -57 hlineto
          hintmask 10101000
          -38 -19 -33 -11 -53 hhcurveto
          514 -329 rmoveto
          -32 -146 rlineto
          -112 hlineto
          endchar
        </CharString>
        <CharString name="onesuperior">
          -277 682 48 hstem
          116 172 vstem
          116 682 rmoveto
          83 hlineto
          -60 -279 rlineto
          69 hlineto
          80 376 rlineto
          -57 hlineto
          -38 -19 -33 -11 -53 hhcurveto
          endchar
        </CharString>
        <CharString name="ordfeminine">
          -171 396 51 196 48 hstem
          72 73 108 60 -38 67 vstem
          159 396 rmoveto
          33 37 9 36 23 hvcurveto
          3 -38 rlineto
          59 hlineto
          58 11 55 13 56 vhcurveto
          79 18 -44 40 -81 hhcurveto
          -60 -42 -24 -43 -21 hvcurveto
          57 -18 rlineto
          25 12 21 12 23 hhcurveto
          57 1 -33 -33 -7 hvcurveto
          -103 -12 -95 -17 -2 -78 rrcurveto
          -44 -1 35 -30 53 hhcurveto
          -14 84 rmoveto
          2 27 23 13 92 9 -3 -11 rcurveline
          -40 -8 -17 -31 -55 hhcurveto
          -22 -15 12 21 3 hvcurveto
          endchar
        </CharString>
        <CharString name="ordmasculine">
          -151 399 53 187 53 hstem
          88 69 137 69 vstem
          210 399 rmoveto
          71 72 46 101 10 hvcurveto
          100 10 -61 46 -71 hhcurveto
          -71 -71 -46 -100 -11 hvcurveto
          -101 -11 62 -46 71 hhcurveto
          -53 147 rmoveto
          59 6 33 34 39 hhcurveto
          40 25 -34 -59 -6 hvcurveto
          -60 -6 -32 -34 -40 hhcurveto
          -40 -25 34 60 6 hvcurveto
          endchar
        </CharString>
        <CharString name="oslash">
          13 -12 74 368 74 hstem
          26 89 292 94 vstem
          24 -11 rmoveto
          57 54 rlineto
          -35 34 50 -20 65 hhcurveto
          174 76 155 93 16 hvcurveto
          13 75 -11 57 -24 43 64 61 rcurveline
          -35 37 -61 -58 rlineto
          36 -37 -51 17 -52 hhcurveto
          -114 -133 -74 -184 -26 hvcurveto
          -8 -63 7 -55 23 -44 -62 -58 rcurveline
          155 76 rmoveto
          262 246 7 -26 1 -33 -7 -43 rlinecurve
          -111 -18 -63 -73 -89 hhcurveto
          -41 -32 14 26 -20 hvcurveto
          -25 144 rmoveto
          143 24 75 41 71 hhcurveto
          38 33 -10 -25 23 hvcurveto
          -263 -246 -7 28 0 33 6 36 rlinecurve
          endchar
        </CharString>
        <CharString name="otilde">
          13 -12 74 368 74 71 63 -21 63 hstemhm
          26 89 298 89 hintmask 11011100
          230 -12 rmoveto
          176 75 155 94 16 hvcurveto
          184 31 -109 83 -116 hhcurveto
          -115 -133 -73 -184 -25 hvcurveto
          -149 -21 71 -110 150 hhcurveto
          -111 259 rmoveto
          143 25 74 40 72 hhcurveto
          81 59 -43 -140 -22 hvcurveto
          -112 -18 -63 -73 -90 hhcurveto
          -95 -42 77 108 19 hvcurveto
          38 330 rmoveto
          65 hlineto
          25 11 21 15 30 hhcurveto
          hintmask 11101100
          52 18 -42 59 hhcurveto
          55 31 30 27 17 hvcurveto
          hintmask 11011100
          22 14 -16 26 -23 hhcurveto
          -8 -10 -4 -9 -9 hvcurveto
          hintmask 11101100
          -13 -14 -12 -16 -25 hhcurveto
          hintmask 11011100
          -41 -21 42 -66 hhcurveto
          -53 -48 -32 -71 -27 hvcurveto
          endchar
        </CharString>
        <CharString name="p">
          22 -12 71 373 72 -8 -20 hstemhm
          114 25 281 89 hintmask 11011000
          60 -162 rmoveto
          54 255 rlineto
          -65 23 53 -40 79 hhcurveto
          155 77 148 136 8 hvcurveto
          125 7 -56 107 -129 hhcurveto
          -75 -48 -36 -38 -26 hvcurveto
          hintmask 10111000
          -5 66 rlineto
          -63 hlineto
          -140 -658 rlineto
          168 408 rmoveto
          hintmask 11011000
          108 15 66 78 84 hhcurveto
          85 44 -73 -116 -21 hvcurveto
          -96 -16 -50 -88 -89 hhcurveto
          -87 -46 87 100 15 hvcurveto
          endchar
        </CharString>
        <CharString name="paragraph">
          -13 600 68 hstem
          74 494 vstem
          188 294 rmoveto
          -97 -456 rlineto
          83 hlineto
          162 762 rlineto
          93 hlineto
          -161 -762 rlineto
          83 hlineto
          161 762 rlineto
          41 hlineto
          15 68 rlineto
          -260 hlineto
          -105 -102 -85 -105 -23 hvcurveto
          -20 -90 49 -75 81 -19 rrcurveto
          endchar
        </CharString>
        <CharString name="parenleft">
          -231 668 -20 hstem
          31 80 vstem
          95 -162 rmoveto
          77 hlineto
          -137 328 111 265 193 237 rrcurveto
          -79 hlineto
          -223 -247 -71 -290 129 -293 rrcurveto
          endchar
        </CharString>
        <CharString name="parenright">
          -231 668 -20 hstem
          176 79 vstem
          28 -162 rmoveto
          222 247 70 291 -128 292 rrcurveto
          -77 hlineto
          137 -328 -111 -265 -194 -237 rrcurveto
          endchar
        </CharString>
        <CharString name="partialdiff">
          61 -12 73 369 74 94 82 hstem
          51 89 297 91 vstem
          51 246 rmoveto
          -180 123 -78 115 174 65 134 155 406 -267 -3 -121 vhcurveto
          -82 vlineto
          133 3 108 -23 40 -128 rrcurveto
          40 -32 -59 14 -41 hhcurveto
          -115 -123 -78 -180 hvcurveto
          238 184 rmoveto
          72 76 -56 -128 -129 -76 -56 -72 -72 -77 56 129 128 77 56 72 hvcurveto
          endchar
        </CharString>
        <CharString name="percent">
          466 -12 74 -41 -21 277 74 -34 74 215 74 -12 -20 hstemhm
          83 74 215 75 124 74 215 75 hintmask 1001101111000000
          246 317 rmoveto
          100 90 81 101 11 hvcurveto
          100 11 -73 81 -101 hhcurveto
          -100 -90 -81 -100 -11 hvcurveto
          -101 -11 73 -81 101 hhcurveto
          488 -329 rmoveto
          100 90 81 101 11 hvcurveto
          hintmask 1010101111000000
          100 11 -73 81 -101 hhcurveto
          -100 -90 -81 -100 -11 hvcurveto
          hintmask 1001101111000000
          -101 -11 73 -81 101 hhcurveto
          hintmask 0101011111000000
          -415 12 rmoveto
          468 668 rlineto
          -88 hlineto
          -468 -668 rlineto
          hintmask 1010101111000000
          414 170 rmoveto
          59 6 54 48 59 hhcurveto
          60 43 -48 -59 -7 hvcurveto
          -60 -7 -52 -48 -59 hhcurveto
          -60 -43 48 60 6 hvcurveto
          hintmask 1001101111000000
          -488 329 rmoveto
          59 6 54 48 59 hhcurveto
          60 43 -48 -59 -7 hvcurveto
          -60 -7 -52 -48 -59 hhcurveto
          -60 -43 48 60 6 hvcurveto
          endchar
        </CharString>
        <CharString name="period">
          -326 -12 129 hstem
          -1 129 vstem
          -1 52 rmoveto
          -35 29 -29 35 36 29 29 35 36 -29 29 -36 -35 -29 -29 -36 vhcurveto
          endchar
        </CharString>
        <CharString name="periodcentered">
          -299 183 129 hstem
          53 129 vstem
          53 248 rmoveto
          -36 29 -29 35 36 29 29 36 35 -29 29 -36 -35 -29 -29 -35 vhcurveto
          endchar
        </CharString>
        <CharString name="perthousand">
          873 -12 74 -41 -21 277 74 -35 75 214 75 -12 -20 hstemhm
          86 74 215 74 125 74 215 74 38 74 215 74 hintmask 1010101111110000
          hintmask 0001101100000000
          268 316 rmoveto
          100 81 82 100 100 -81 82 -100 -101 -81 -82 -100 -100 81 -82 101 hvcurveto
          hintmask 1010000011110000
          306 -147 rmoveto
          -100 81 -81 101 100 81 81 100 101 -81 81 -100 -101 -81 -81 -101 vhcurveto
          401 hmoveto
          -100 81 -81 101 100 81 81 100 101 -81 81 -100 -101 -81 -81 -101 vhcurveto
          hintmask 0110010000110000
          -653 -169 rmoveto
          468 668 rlineto
          -88 hlineto
          -468 -668 rlineto
          923 277 rmoveto
          59 48 -48 -60 hvcurveto
          hintmask 1000000000110000
          -59 -48 -48 -59 -60 -48 48 59 vhcurveto
          hintmask 0110010000110000
          60 48 48 60 vhcurveto
          hintmask 1010101111000000
          -401 hmoveto
          59 48 -48 -60 -59 -48 -48 -59 -60 -48 48 59 60 48 48 60 hvcurveto
          -488 328 rmoveto
          59 48 -48 -59 hvcurveto
          hintmask 0001001100000000
          -59 -48 -48 -59 -59 -49 48 59 vhcurveto
          hintmask 1010101111000000
          59 49 48 59 vhcurveto
          endchar
        </CharString>
        <CharString name="pi">
          57 0 75 341 80 hstem
          338 90 vstem
          124 hmoveto
          88 416 rlineto
          194 hlineto
          -61 -291 rlineto
          -88 -18 11 -37 99 hhcurveto
          51 hlineto
          16 75 rlineto
          -32 hlineto
          -54 7 20 45 9 hvcurveto
          58 276 rlineto
          84 hlineto
          18 80 rlineto
          -531 hlineto
          -17 -80 rlineto
          83 hlineto
          -88 -416 rlineto
          endchar
        </CharString>
        <CharString name="plus">
          85 21 -21 208 80 208 -20 hstem
          250 80 vstem
          42 288 rmoveto
          -80 208 -208 80 208 208 80 -208 208 -80 -208 vlineto
          endchar
        </CharString>
        <CharString name="plusminus">
          119 0 79 191 79 147 -20 hstem
          262 79 vstem
          65 349 rmoveto
          -79 197 -146 79 146 197 79 -197 147 -79 -147 vlineto
          276 -349 rmoveto
          79 -473 -79 vlineto
          endchar
        </CharString>
        <CharString name="product">
          227 587 81 hstem
          133 81 316 82 vstem
          133 668 rmoveto
          -829 81 748 316 -748 82 829 vlineto
          endchar
        </CharString>
        <CharString name="q">
          20 -174 82 80 72 373 72 -9 -20 hstemhm
          27 90 210 90 hintmask 11011100
          206 -12 rmoveto
          68 54 32 39 23 hvcurveto
          0 -14 -66 -5 -24 vhcurveto
          -113 -24 72 -30 66 hhcurveto
          37 36 10 10 14 hvcurveto
          17 78 rlineto
          -11 -35 -27 -5 -20 hhcurveto
          -47 -11 27 45 10 hvcurveto
          8 39 101 477 0 vvcurveto
          -62 hlineto
          -40 -78 rlineto
          hintmask 11101100
          51 -27 -51 36 -79 hhcurveto
          -141 -83 -125 -134 -16 hvcurveto
          -160 -19 74 -98 121 hhcurveto
          -85 258 rmoveto
          78 11 47 109 96 hhcurveto
          81 49 -69 -117 -12 hvcurveto
          -89 -9 -62 -98 -91 hhcurveto
          -89 -37 74 112 16 hvcurveto
          endchar
        </CharString>
        <CharString name="question">
          -7 9 -21 621 70 hstem
          123 130 vstem
          89 524 rmoveto
          77 -24 rlineto
          71 24 57 38 82 hhcurveto
          63 49 -37 -59 -9 hvcurveto
          -8 -44 -41 -27 -41 -21 -78 -40 -62 -41 -25 -113 -7 -37 rcurveline
          85 hlineto
          8 34 10 51 23 38 76 38 rlinecurve
          69 33 71 46 10 78 rrcurveto
          129 17 -114 42 -93 hhcurveto
          -113 -92 -49 -106 -38 hvcurveto
          74 -531 rmoveto
          -3 8 9 -2 8 hhcurveto
          25 24 15 25 11 hvcurveto
          14 33 -16 37 -33 14 rrcurveto
          3 -8 -9 2 -8 hhcurveto
          -25 -24 -15 -25 -11 hvcurveto
          -14 -33 16 -38 33 -13 rrcurveto
          endchar
        </CharString>
        <CharString name="questiondown">
          -7 -175 70 493 129 hstem
          259 128 vstem
          179 -175 rmoveto
          112 92 50 106 38 hvcurveto
          -77 24 rlineto
          -71 -24 -56 -39 -82 hhcurveto
          -64 -49 38 59 9 hvcurveto
          8 44 42 27 41 21 77 40 61 41 25 114 8 37 rcurveline
          -85 hlineto
          -7 -34 -10 -51 -23 -40 -76 -37 rlinecurve
          -70 -34 -71 -46 -10 -77 rrcurveto
          -129 -17 114 -43 94 hhcurveto
          143 563 rmoveto
          36 29 29 35 36 -29 29 -36 -36 -27 -29 -36 -35 27 -29 36 hvcurveto
          endchar
        </CharString>
        <CharString name="quotedbl">
          -200 447 221 hstem
          102 66 75 66 vstem
          250 447 rmoveto
          52 hlineto
          14 221 rlineto
          -80 hlineto
          -141 hmoveto
          14 -221 rlineto
          52 hlineto
          14 221 rlineto
          endchar
        </CharString>
        <CharString name="quotedblbase">
          -140 13 -21 hstemhm
          5 128 29 127 hintmask 10100000
          hintmask 11100000
          33 -133 rmoveto
          90 151 26 40 -25 51 -44 8 rlinecurve
          -35 6 -33 -24 -7 -35 -5 -31 18 -30 29 -11 -75 -125 rcurveline
          156 hmoveto
          hintmask 10100000
          61 hlineto
          90 151 25 40 -25 51 -43 8 rlinecurve
          -35 7 -33 -25 -6 -35 -5 -31 17 -30 29 -11 rrcurveto
          endchar
        </CharString>
        <CharString name="quotedblleft">
          -139 668 -20 hstemhm
          96 127 29 128 hintmask 11000000
          148 419 rmoveto
          36 -7 33 24 6 35 6 32 -18 29 -30 11 76 125 rcurveline
          -61 hlineto
          -91 -151 -24 -40 24 -51 43 -7 rlinecurve
          hintmask 11100000
          157 hmoveto
          35 -7 33 24 7 35 5 31 -18 30 -29 11 74 125 rcurveline
          -60 hlineto
          -90 -151 -26 -40 25 -51 44 -7 rlinecurve
          endchar
        </CharString>
        <CharString name="quotedblright">
          -140 679 -20 hstemhm
          124 128 29 127 hintmask 10100000
          hintmask 11100000
          152 429 rmoveto
          90 152 26 40 -25 50 -44 8 rlinecurve
          -35 6 -33 -23 -7 -35 -5 -32 18 -30 29 -10 -75 -126 rcurveline
          156 hmoveto
          hintmask 10100000
          61 hlineto
          90 152 25 40 -25 50 -43 8 rlinecurve
          -35 7 -33 -24 -6 -35 -5 -32 17 -30 29 -10 rrcurveto
          endchar
        </CharString>
        <CharString name="quoteleft">
          -296 668 -20 hstem
          96 127 vstem
          148 419 rmoveto
          36 -7 33 24 6 35 6 32 -18 29 -30 11 76 125 rcurveline
          -61 hlineto
          -91 -151 -24 -40 24 -51 43 -7 rlinecurve
          endchar
        </CharString>
        <CharString name="quoteright">
          -296 679 -20 hstem
          124 128 vstem
          152 429 rmoveto
          90 152 26 40 -25 50 -44 8 rlinecurve
          -35 6 -33 -23 -7 -35 -5 -32 18 -30 29 -10 -75 -126 rcurveline
          endchar
        </CharString>
        <CharString name="quotesinglbase">
          -295 13 -21 hstem
          5 128 vstem
          33 -133 rmoveto
          90 151 26 40 -25 51 -44 8 rlinecurve
          -35 6 -33 -24 -7 -35 -5 -31 18 -30 29 -11 -75 -125 rcurveline
          endchar
        </CharString>
        <CharString name="quotesingle">
          -341 447 221 0 -20 hstemhm
          102 66 hintmask 01100000
          hintmask 10100000
          109 447 rmoveto
          52 hlineto
          14 221 rlineto
          -80 hlineto
          endchar
        </CharString>
        <CharString name="r">
          -181 21 -21 496 -20 28 -20 hstemhm
          8 375 hintmask 10110000
          94 hmoveto
          0 20 97 23 108 vhcurveto
          28 130 63 85 136 -5 19 89 rcurveline
          -106 -51 -40 -61 -42 hvcurveto
          hintmask 11010000
          -8 93 rlineto
          -63 hlineto
          -105 -496 rlineto
          endchar
        </CharString>
        <CharString name="racute">
          -181 21 -21 496 -20 28 -20 hstemhm
          8 375 hintmask 10110000
          94 hmoveto
          0 20 97 23 108 vhcurveto
          28 130 63 85 136 -5 19 89 rcurveline
          -106 -51 -40 -61 -42 hvcurveto
          hintmask 11010000
          -8 93 rlineto
          -63 hlineto
          -105 -496 rlineto
          188 571 rmoveto
          74 hlineto
          0 78 52 20 17 vhcurveto
          15 13 2 25 -14 16 rrcurveto
          8 -8 -10 4 -11 hhcurveto
          -9 -9 -3 -6 -7 hvcurveto
          -20 -17 -101 -109 0 vvcurveto
          endchar
        </CharString>
        <CharString name="radical">
          -21 145 80 444 -20 hstem
          39 476 vstem
          265 -161 rmoveto
          99 hlineto
          151 830 rlineto
          -88 hlineto
          -123 -706 -103 262 rlineto
          -162 -80 106 hlineto
          endchar
        </CharString>
        <CharString name="rcaron">
          -181 498 -20 91 120 hstem
          9 449 vstem
          95 2 rmoveto
          0 20 97 23 108 vhcurveto
          28 130 63 85 136 -5 19 89 rcurveline
          -106 -51 -40 -61 -42 hvcurveto
          -8 93 rlineto
          -63 hlineto
          -105 -496 rlineto
          126 687 rmoveto
          91 -101 rlineto
          -13 12 16 -6 18 hhcurveto
          17 19 6 13 17 hvcurveto
          133 101 rlineto
          -97 hlineto
          -81 -61 -54 61 rlineto
          endchar
        </CharString>
        <CharString name="registered">
          280 -12 61 252 58 110 61 89 61 hstem
          70 62 149 76 134 76 133 62 vstem
          416 -12 rmoveto
          191 155 155 190 192 -155 155 -191 -191 -155 -155 -192 -190 155 -155 191 hvcurveto
          -284 345 rmoveto
          157 127 129 157 157 127 -129 -157 -156 -127 -128 -157 -157 -127 128 156 vhcurveto
          225 -171 rmoveto
          139 42 vlineto
          102 -139 rlineto
          86 hlineto
          -108 149 rlineto
          76 21 12 51 31 vvcurveto
          97 -65 19 -109 vhcurveto
          -112 -368 hlineto
          124 307 rmoveto
          51 35 -11 -45 -35 -24 -19 -57 hvcurveto
          -53 110 hlineto
          endchar
        </CharString>
        <CharString name="ring">
          -205 552 58 102 58 hstem
          134 57 104 57 vstem
          245 552 rmoveto
          61 46 50 59 59 -46 50 -61 -62 -49 -50 -59 -59 49 -50 62 hvcurveto
          -54 109 rmoveto
          28 23 23 29 29 23 -23 -28 -28 -23 -23 -29 -29 -23 23 28 vhcurveto
          endchar
        </CharString>
        <CharString name="ring.case">
          -205 613 58 102 58 hstem
          147 57 104 57 vstem
          258 613 rmoveto
          61 46 50 59 59 -46 50 -61 -62 -49 -50 -59 -59 49 -50 62 hvcurveto
          -54 109 rmoveto
          28 23 23 29 29 23 -23 -28 -28 -23 -23 -29 -29 -23 23 28 vhcurveto
          endchar
        </CharString>
        <CharString name="s">
          -55 -12 68 379 69 hstem
          49 85 191 88 vstem
          213 -12 rmoveto
          111 89 53 102 hvcurveto
          178 -279 -60 109 vvcurveto
          44 48 21 51 51 54 -21 -40 13 vhcurveto
          80 28 rlineto
          68 -25 -84 34 -82 hhcurveto
          -96 -95 -46 -93 hvcurveto
          -180 276 64 -112 vvcurveto
          -52 -54 -29 -55 -54 -55 27 59 -11 vhcurveto
          -86 -29 rlineto
          -89 34 69 -36 100 hhcurveto
          endchar
        </CharString>
        <CharString name="sacute">
          -55 -12 68 379 69 hstem
          49 85 191 88 vstem
          213 -12 rmoveto
          111 89 53 102 hvcurveto
          178 -279 -60 109 vvcurveto
          44 48 21 51 51 54 -21 -40 13 vhcurveto
          80 28 rlineto
          68 -25 -84 34 -82 hhcurveto
          -96 -95 -46 -93 hvcurveto
          -180 276 64 -112 vvcurveto
          -52 -54 -29 -55 -54 -55 27 59 -11 vhcurveto
          -86 -29 rlineto
          -89 34 69 -36 100 hhcurveto
          40 582 rmoveto
          74 hlineto
          0 78 52 20 17 vhcurveto
          15 13 2 25 -14 16 rrcurveto
          8 -8 -10 4 -11 hhcurveto
          -9 -9 -3 -6 -7 hvcurveto
          -20 -17 -101 -109 0 vvcurveto
          endchar
        </CharString>
        <CharString name="scaron">
          -55 -12 68 379 69 65 120 hstem
          49 85 191 88 vstem
          213 -12 rmoveto
          111 89 53 102 hvcurveto
          178 -279 -60 109 vvcurveto
          44 48 21 51 51 54 -21 -40 13 vhcurveto
          80 28 rlineto
          68 -25 -84 34 -82 hhcurveto
          -96 -95 -46 -93 hvcurveto
          -180 276 64 -112 vvcurveto
          -52 -54 -29 -55 -54 -55 27 59 -11 vhcurveto
          -86 -29 rlineto
          -89 34 69 -36 100 hhcurveto
          27 600 rmoveto
          -13 11 17 -6 18 hhcurveto
          17 19 6 13 17 hvcurveto
          133 101 rlineto
          -97 hlineto
          -81 -61 -54 61 rlineto
          -91 hlineto
          endchar
        </CharString>
        <CharString name="scedilla">
          -55 -180 40 58 138 -66 66 -45 -21 445 69 hstemhm
          49 85 83 63 45 88 hintmask 10011111
          173 -10 rmoveto
          hintmask 11001111
          -39 -47 -12 -15 11 -19 20 5 rlinecurve
          3 12 10 1 8 56 -17 -58 -62 hhcurveto
          -16 -19 4 10 -22 hvcurveto
          -23 -37 rlineto
          -12 33 29 -5 25 hhcurveto
          139 15 157 -22 -130 hvcurveto
          27 33 rlineto
          109 2 86 53 100 178 -279 -60 109 vvcurveto
          44 48 21 51 51 54 -21 -40 13 vhcurveto
          80 28 rlineto
          68 -25 -84 34 -82 hhcurveto
          -96 -95 -46 -93 hvcurveto
          hintmask 10101111
          -180 276 64 -112 vvcurveto
          -52 -54 -29 -55 -54 -55 27 59 -11 vhcurveto
          -86 -29 rlineto
          hintmask 10011111
          30 -76 55 -38 78 -9 rrcurveto
          endchar
        </CharString>
        <CharString name="section">
          -8 -174 72 714 68 hstem
          39 86 126 88 58 90 vstem
          -43 -55 rmoveto
          -73 17 67 -46 94 hhcurveto
          185 60 173 83 -67 hvcurveto
          96 31 78 57 102 vvcurveto
          70 -57 31 -59 49 vhcurveto
          -62 52 -54 25 12 55 rrcurveto
          38 8 47 20 45 hhcurveto
          41 40 -17 -34 6 hvcurveto
          83 23 rlineto
          68 -20 -79 28 -72 hhcurveto
          -181 -48 -171 -74 76 hvcurveto
          -96 -20 -78 -62 -97 vvcurveto
          -70 51 -36 62 -48 vhcurveto
          62 -48 51 -35 -17 -59 rrcurveto
          -40 -11 -50 -22 -47 hhcurveto
          -47 -44 21 49 -6 hvcurveto
          217 423 rmoveto
          0 63 -49 23 -19 vhcurveto
          91 -75 -33 -77 -138 -42 rrcurveto
          0 -74 59 -26 20 vhcurveto
          -92 71 77 88 109 24 rrcurveto
          endchar
        </CharString>
        <CharString name="semicolon">
          -325 13 -21 383 129 hstemhm
          -10 128 -46 129 hintmask 11010000
          -43 -133 rmoveto
          hintmask 11100000
          61 hlineto
          90 151 26 40 -25 50 -44 8 rlinecurve
          -35 6 -33 -23 -7 -35 -5 -32 18 -30 29 -10 rrcurveto
          hintmask 11010000
          104 383 rmoveto
          36 29 29 36 35 -29 29 -36 -35 -29 -29 -35 -36 29 -29 35 hvcurveto
          endchar
        </CharString>
        <CharString name="seven">
          3 21 -21 587 81 hstem
          31 536 vstem
          31 hmoveto
          108 hlineto
          411 587 17 81 rlineto
          -471 hlineto
          -18 -81 rlineto
          367 hlineto
          endchar
        </CharString>
        <CharString name="seven.tf">
          105 21 -21 587 81 hstem
          105 536 vstem
          105 hmoveto
          108 hlineto
          411 587 17 81 rlineto
          -471 hlineto
          -18 -81 rlineto
          367 hlineto
          endchar
        </CharString>
        <CharString name="six">
          71 -12 70 312 75 165 70 hstem
          62 90 291 90 vstem
          281 -12 rmoveto
          155 88 105 126 9 hvcurveto
          133 10 -83 93 -124 hhcurveto
          -79 -60 -35 -49 -33 hvcurveto
          153 27 70 96 102 hhcurveto
          54 33 -23 -39 15 hvcurveto
          88 25 rlineto
          60 -22 -59 47 -100 hhcurveto
          -186 -96 -178 -191 -23 hvcurveto
          -197 -24 68 -126 170 hhcurveto
          -129 239 rmoveto
          86 9 62 57 87 hhcurveto
          89 51 -63 -92 -7 hvcurveto
          -92 -7 -64 -65 -88 hhcurveto
          -88 -54 77 92 10 hvcurveto
          endchar
        </CharString>
        <CharString name="six.tf">
          105 -12 70 312 75 165 70 hstem
          83 90 291 90 vstem
          302 -12 rmoveto
          155 88 105 126 9 hvcurveto
          133 10 -83 93 -124 hhcurveto
          -79 -60 -35 -49 -33 hvcurveto
          153 27 70 96 102 hhcurveto
          54 33 -23 -39 15 hvcurveto
          88 25 rlineto
          60 -22 -59 47 -100 hhcurveto
          -186 -96 -178 -191 -23 hvcurveto
          -197 -24 68 -126 170 hhcurveto
          -129 239 rmoveto
          86 9 62 57 87 hhcurveto
          89 51 -63 -92 -7 hvcurveto
          -92 -7 -64 -65 -88 hhcurveto
          -88 -54 77 92 10 hvcurveto
          endchar
        </CharString>
        <CharString name="slash">
          -163 21 -21 668 -20 hstem
          -50 489 vstem
          -50 hmoveto
          87 hlineto
          402 668 rlineto
          -87 hlineto
          endchar
        </CharString>
        <CharString name="space">
          -254 endchar
        </CharString>
        <CharString name="sterling">
          52 -12 78 -41 77 215 51 240 71 hstemhm
          154 91 -53 90 hintmask 10110100
          22 55 rmoveto
          13 -67 rlineto
          hintmask 01110100
          28 61 45 9 36 hhcurveto
          hintmask 10110100
          74 39 -37 76 hhcurveto
          34 41 7 23 56 hvcurveto
          -10 73 rlineto
          -19 -48 -37 -6 -30 hhcurveto
          hintmask 01110100
          -69 -32 36 -59 hhcurveto
          -17 -21 -3 -9 -24 hvcurveto
          83 43 69 76 -25 108 rrcurveto
          180 hlineto
          11 51 rlineto
          hintmask 10111000
          -203 hlineto
          -14 47 -13 44 7 48 rrcurveto
          79 12 68 22 57 hhcurveto
          69 34 -18 -64 23 hvcurveto
          83 23 rlineto
          85 -21 -78 45 -106 hhcurveto
          -106 -113 -45 -123 -13 hvcurveto
          -5 -54 10 -44 13 -45 rrcurveto
          -86 hlineto
          -11 -51 rlineto
          110 hlineto
          hintmask 10110100
          42 -160 -154 -83 -51 -19 rrcurveto
          endchar
        </CharString>
        <CharString name="summation">
          229 -161 81 667 81 hstem
          123 481 vstem
          123 668 rmoveto
          -81 vlineto
          246 -333 -246 -334 rlineto
          -81 481 81 -380 vlineto
          245 334 -245 333 rlineto
          380 81 hlineto
          endchar
        </CharString>
        <CharString name="t">
          -210 0 75 353 68 hstem
          59 92 vstem
          49 428 rmoveto
          83 hlineto
          -65 -303 rlineto
          -84 -18 6 -41 105 hhcurveto
          62 hlineto
          16 75 rlineto
          -44 hlineto
          -49 1 18 47 10 hvcurveto
          62 288 rlineto
          95 hlineto
          14 68 rlineto
          -95 hlineto
          27 124 rlineto
          -86 hlineto
          -27 -124 rlineto
          -83 hlineto
          endchar
        </CharString>
        <CharString name="tcaron">
          -212 0 75 353 68 49 75 hstem
          59 92 vstem
          238 75 rmoveto
          0 -33 0 -11 -49 1 18 47 10 vhcurveto
          62 288 rlineto
          95 hlineto
          14 68 rlineto
          -95 hlineto
          27 124 rlineto
          -86 hlineto
          -27 -124 rlineto
          -83 hlineto
          -14 -68 rlineto
          83 hlineto
          -65 -303 rlineto
          -84 -18 6 -41 105 hhcurveto
          15 47 0 0 hvcurveto
          118 545 rmoveto
          79 134 rlineto
          29 13 -16 20 -24 hhcurveto
          -23 -15 -18 -11 -4 hvcurveto
          -12 -25 -42 -116 -5 -13 rrcurveto
          endchar
        </CharString>
        <CharString name="thorn">
          24 -12 72 372 72 164 -20 hstem
          419 91 vstem
          -26 -161 rmoveto
          86 hlineto
          55 255 rlineto
          -57 17 54 -49 79 hhcurveto
          130 114 113 190 1 hvcurveto
          138 -75 75 -107 -58 -49 -24 -42 -33 vhcurveto
          48 230 rlineto
          -86 hlineto
          -9 -450 rmoveto
          79 50 135 118 64 47 -44 -100 -1 vhcurveto
          -98 -54 -130 -103 -73 -48 55 103 vhcurveto
          endchar
        </CharString>
        <CharString name="three">
          46 -12 70 257 75 220 70 hstemhm
          416 89 -59 92 hintmask 11110000
          32 158 rmoveto
          -97 17 75 -73 135 hhcurveto
          165 81 104 106 66 -25 57 -77 26 hvcurveto
          hintmask 11101000
          80 26 55 57 90 vvcurveto
          119 -113 41 -102 -122 -82 -64 -93 -28 vhcurveto
          78 -25 rlineto
          68 22 46 44 81 hhcurveto
          71 60 -37 -72 -3 hvcurveto
          -102 -4 -108 -9 -104 hhcurveto
          -16 -75 rlineto
          hintmask 11110000
          80 122 -4 -124 -78 -72 -51 -83 -85 -48 50 73 -10 hvcurveto
          endchar
        </CharString>
        <CharString name="three.tf">
          105 -12 70 257 75 220 70 hstemhm
          458 89 -59 92 hintmask 11110000
          74 158 rmoveto
          -97 17 75 -73 135 hhcurveto
          165 81 104 106 66 -25 57 -77 26 hvcurveto
          hintmask 11101000
          80 26 55 57 90 vvcurveto
          119 -113 41 -102 -122 -82 -64 -93 -28 vhcurveto
          78 -25 rlineto
          68 22 46 44 81 hhcurveto
          71 60 -37 -72 -3 hvcurveto
          -102 -4 -108 -9 -104 hhcurveto
          -16 -75 rlineto
          hintmask 11110000
          80 122 -4 -124 -78 -72 -51 -83 -85 -48 50 73 -10 hvcurveto
          endchar
        </CharString>
        <CharString name="threequarters">
          372 0 143 -57 57 148 51 123 55 -24 -20 153 50 -11 -20 hstemhm
          295 68 -49 68 hintmask 0110110010000000
          482 86 rmoveto
          193 hlineto
          hintmask 1010110010000000
          -19 -86 rlineto
          70 hlineto
          hintmask 0110110010000000
          19 86 rlineto
          64 hlineto
          12 57 rlineto
          -65 hlineto
          50 232 rlineto
          -76 hlineto
          -237 -235 rlineto
          hintmask 1010101100000000
          -300 -140 rmoveto
          88 hlineto
          468 668 rlineto
          -88 hlineto
          -577 -289 rmoveto
          -54 18 49 -34 63 hhcurveto
          77 63 35 73 9 hvcurveto
          hintmask 1010110010000000
          4 42 -16 38 -37 17 rrcurveto
          45 17 23 32 37 vvcurveto
          74 -62 23 -62 -62 -51 -27 -58 -28 vhcurveto
          58 -18 rlineto
          38 18 24 15 38 hhcurveto
          32 27 -13 -40 hvcurveto
          hintmask 1011010100000000
          -59 -85 3 -27 vhcurveto
          -11 -55 rlineto
          33 74 6 -69 -3 hvcurveto
          -39 -2 -31 -21 -42 hhcurveto
          -40 -23 23 32 -9 hvcurveto
          570 -108 rmoveto
          -31 -146 rlineto
          -113 hlineto
          endchar
        </CharString>
        <CharString name="threesuperior">
          -140 396 51 56 -20 89 54 110 50 hstemhm
          298 68 -49 68 hintmask 11110100
          87 486 rmoveto
          -56 18 49 -34 63 hhcurveto
          hintmask 11111000
          77 63 35 74 9 hvcurveto
          4 43 -16 37 -37 17 rrcurveto
          hintmask 11110100
          45 17 23 32 38 vvcurveto
          73 -62 24 -62 -62 -51 -27 -58 -28 vhcurveto
          58 -18 rlineto
          38 18 24 15 38 hhcurveto
          32 27 -14 -40 -59 -85 3 -27 hvcurveto
          -11 -54 rlineto
          hintmask 11111000
          33 74 5 -68 -3 hvcurveto
          -40 -2 -31 -22 -42 hhcurveto
          -40 -23 24 32 -9 hvcurveto
          endchar
        </CharString>
        <CharString name="tilde">
          -114 575 63 -21 63 hstemhm
          90 364 hintmask 01100000
          155 577 rmoveto
          25 11 21 15 30 hhcurveto
          hintmask 10100000
          52 18 -42 59 hhcurveto
          55 31 30 27 17 hvcurveto
          hintmask 01100000
          22 14 -16 26 -23 hhcurveto
          -8 -10 -4 -9 -9 hvcurveto
          hintmask 10100000
          -13 -13 -13 -16 -25 -41 -21 42 -66 hhcurveto
          hintmask 01100000
          -53 -48 -32 -71 -27 hvcurveto
          endchar
        </CharString>
        <CharString name="tilde.case">
          -78 747 63 -21 63 hstemhm
          150 364 hintmask 01100000
          215 749 rmoveto
          25 11 21 15 30 hhcurveto
          hintmask 10100000
          52 18 -42 59 hhcurveto
          55 31 30 27 17 hvcurveto
          22 14 -16 26 -23 hhcurveto
          -8 -10 -4 -9 -9 hvcurveto
          -13 -13 -13 -16 -25 -41 -21 42 -66 hhcurveto
          hintmask 01100000
          -53 -48 -32 -71 -27 hvcurveto
          endchar
        </CharString>
        <CharString name="trademark">
          394 608 60 hstem
          251 67 155 67 268 67 vstem
          473 668 rmoveto
          -376 67 279 vlineto
          98 -279 rlineto
          72 hlineto
          98 279 rlineto
          -279 67 376 -108 vlineto
          -93 -284 -93 284 rlineto
          -448 -60 rmoveto
          118 -316 67 316 118 60 -303 hlineto
          endchar
        </CharString>
        <CharString name="two">
          31 0 77 533 70 hstem
          455 93 vstem
          -18 hmoveto
          481 hlineto
          16 77 rlineto
          -348 hlineto
          197 111 186 127 29 146 rrcurveto
          151 30 -106 68 -123 hhcurveto
          -117 -84 -54 -104 -47 hvcurveto
          78 -24 rlineto
          86 36 69 26 62 hhcurveto
          68 64 -51 -94 -22 hvcurveto
          -27 -118 -155 -119 -271 -152 rrcurveto
          endchar
        </CharString>
        <CharString name="two.tf">
          105 0 77 533 70 hstem
          490 93 vstem
          17 hmoveto
          481 hlineto
          16 77 rlineto
          -348 hlineto
          197 111 186 127 29 146 rrcurveto
          151 30 -106 68 -123 hhcurveto
          -117 -84 -54 -104 -47 hvcurveto
          78 -24 rlineto
          86 36 69 26 62 hhcurveto
          68 64 -51 -94 -22 hvcurveto
          -27 -118 -155 -119 -271 -152 rrcurveto
          endchar
        </CharString>
        <CharString name="twosuperior">
          -150 403 58 275 50 hstem
          312 70 vstem
          59 403 rmoveto
          276 hlineto
          12 58 rlineto
          -179 hlineto
          133 66 77 79 4 76 rrcurveto
          72 4 -58 32 -70 hhcurveto
          -68 -48 -35 -56 -23 hvcurveto
          60 -19 rlineto
          43 15 32 17 31 hhcurveto
          34 24 -23 -35 -3 hvcurveto
          -5 -63 -55 -58 -181 -100 rrcurveto
          endchar
        </CharString>
        <CharString name="u">
          6 -11 73 -41 -21 496 -20 hstemhm
          40 87 hintmask 10110000
          173 -11 rmoveto
          76 45 25 56 43 hvcurveto
          hintmask 01110000
          6 -70 rlineto
          65 hlineto
          105 496 rlineto
          -85 hlineto
          -56 -260 rlineto
          hintmask 10110000
          -124 -27 -64 -50 -78 hhcurveto
          -87 3 66 77 16 hvcurveto
          62 291 rlineto
          -86 hlineto
          -62 -293 rlineto
          -113 -24 21 -101 127 hhcurveto
          endchar
        </CharString>
        <CharString name="uacute">
          6 -11 73 -41 -21 496 -20 96 135 hstemhm
          40 87 hintmask 10101000
          173 -11 rmoveto
          76 45 25 56 43 hvcurveto
          hintmask 01101000
          6 -70 rlineto
          65 hlineto
          105 496 rlineto
          -85 hlineto
          -56 -260 rlineto
          hintmask 10101000
          -124 -27 -64 -50 -78 hhcurveto
          -87 3 66 77 16 hvcurveto
          62 291 rlineto
          -86 hlineto
          -62 -293 rlineto
          -113 -24 21 -101 127 hhcurveto
          hintmask 10111000
          194 583 rmoveto
          0 78 52 20 17 vhcurveto
          15 13 2 25 -14 16 rrcurveto
          8 -8 -10 4 -11 hhcurveto
          -9 -9 -3 -6 -7 hvcurveto
          -20 -17 -101 -109 0 vvcurveto
          endchar
        </CharString>
        <CharString name="ucircumflex">
          6 -11 73 -41 -21 496 -20 99 120 hstemhm
          40 87 hintmask 10111000
          173 -11 rmoveto
          76 45 25 56 43 hvcurveto
          hintmask 01111000
          6 -70 rlineto
          65 hlineto
          105 496 rlineto
          -85 hlineto
          -56 -260 rlineto
          hintmask 10111000
          -124 -27 -64 -50 -78 hhcurveto
          -87 3 66 77 16 hvcurveto
          62 291 rlineto
          -86 hlineto
          -62 -293 rlineto
          -113 -24 21 -101 127 hhcurveto
          92 586 rmoveto
          81 61 54 -61 rlineto
          92 hlineto
          -90 101 rlineto
          13 -12 -16 6 -17 hhcurveto
          -18 -19 -6 -13 -17 hvcurveto
          -134 -101 rlineto
          endchar
        </CharString>
        <CharString name="udieresis">
          6 -11 73 -41 -21 496 -20 114 107 hstemhm
          40 87 55 108 104 107 hintmask 10111110
          173 -11 rmoveto
          76 45 25 56 43 hvcurveto
          hintmask 01111110
          6 -70 rlineto
          65 hlineto
          105 496 rlineto
          -85 hlineto
          -56 -260 rlineto
          hintmask 10111110
          -124 -27 -64 -50 -78 hhcurveto
          -87 3 66 77 16 hvcurveto
          62 291 rlineto
          -86 hlineto
          -62 -293 rlineto
          -113 -24 21 -101 127 hhcurveto
          9 655 rmoveto
          -30 24 -24 30 30 24 24 30 29 -24 24 -30 -30 -24 -24 -29 vhcurveto
          265 -54 rmoveto
          30 24 24 30 29 -24 24 -30 -29 -24 -24 -29 -30 24 -24 29 hvcurveto
          endchar
        </CharString>
        <CharString name="ugrave">
          6 -11 73 -41 -21 496 -20 95 136 hstemhm
          40 87 hintmask 10111000
          173 -11 rmoveto
          76 45 25 56 43 hvcurveto
          hintmask 01111000
          6 -70 rlineto
          65 hlineto
          105 496 rlineto
          -85 hlineto
          -56 -260 rlineto
          hintmask 10111000
          -124 -27 -64 -50 -78 hhcurveto
          -87 3 66 77 16 hvcurveto
          62 291 rlineto
          -86 hlineto
          -62 -293 rlineto
          -113 -24 21 -101 127 hhcurveto
          56 658 rmoveto
          16 -22 53 -54 0 vvcurveto
          68 hlineto
          0 -60 99 -16 22 vhcurveto
          10 -7 -12 5 -11 hhcurveto
          -8 -8 -2 -5 -7 hvcurveto
          -16 -11 -4 -25 12 -17 rrcurveto
          endchar
        </CharString>
        <CharString name="uhungarumlaut">
          6 -11 73 -41 -21 496 -20 hstemhm
          40 87 hintmask 10110000
          173 -11 rmoveto
          76 45 25 56 43 hvcurveto
          hintmask 01110000
          6 -70 rlineto
          65 hlineto
          105 496 rlineto
          -85 hlineto
          -56 -260 rlineto
          hintmask 10110000
          -124 -27 -64 -50 -78 hhcurveto
          -87 3 66 77 16 hvcurveto
          62 291 rlineto
          -86 hlineto
          -62 -293 rlineto
          -113 -24 21 -101 127 hhcurveto
          187 583 rmoveto
          73 hlineto
          0 78 52 20 18 vhcurveto
          16 14 0 24 -13 16 rrcurveto
          8 -7 -10 4 -10 hhcurveto
          -9 -9 -3 -6 -8 hvcurveto
          -21 -17 -100 -110 0 vvcurveto
          -146 hmoveto
          74 hlineto
          0 78 52 20 18 vhcurveto
          15 14 2 24 -14 16 rrcurveto
          8 -7 -10 4 -11 hhcurveto
          -9 -9 -3 -6 -8 hvcurveto
          -19 -18 -102 -109 0 vvcurveto
          endchar
        </CharString>
        <CharString name="umacron">
          6 -11 73 -41 -21 496 -20 125 67 hstemhm
          40 87 hintmask 10111000
          173 -11 rmoveto
          76 45 25 56 43 hvcurveto
          hintmask 01111000
          6 -70 rlineto
          65 hlineto
          105 496 rlineto
          -85 hlineto
          -56 -260 rlineto
          hintmask 10111000
          -124 -27 -64 -50 -78 hhcurveto
          -87 3 66 77 16 hvcurveto
          62 291 rlineto
          -86 hlineto
          -62 -293 rlineto
          -113 -24 21 -101 127 hhcurveto
          298 612 rmoveto
          14 67 rlineto
          -276 hlineto
          -14 -67 rlineto
          endchar
        </CharString>
        <CharString name="underscore">
          -121 -79 79 hstem
          -32 376 vstem
          -32 -79 rmoveto
          376 79 -376 hlineto
          endchar
        </CharString>
        <CharString name="uni000D">
          -534 endchar
        </CharString>
        <CharString name="uni00A0">
          -254 endchar
        </CharString>
        <CharString name="uni0122">
          179 -251 36 203 79 -46 -21 264 80 256 80 hstemhm
          55 96 108 67 hintmask 01011100
          352 264 rmoveto
          196 hlineto
          -5 -21 -32 -137 -93 -43 -100 4 rlinecurve
          -111 4 -78 99 27 166 rrcurveto
          166 27 106 98 123 hhcurveto
          92 49 -51 -51 14 hvcurveto
          89 30 rlineto
          101 -30 -83 51 -124 hhcurveto
          -193 -138 -153 -191 -28 hvcurveto
          -201 -29 92 -147 178 hhcurveto
          90 72 30 64 57 hvcurveto
          hintmask 10111110
          6 -82 rlineto
          56 hlineto
          74 344 rlineto
          -287 hlineto
          -186 -595 rmoveto
          70 61 42 66 12 hvcurveto
          6 32 -10 34 -33 21 -60 -29 rcurveline
          24 -11 12 -25 -6 -26 -12 -58 -59 -13 -30 3 rrcurveto
          endchar
        </CharString>
        <CharString name="uni0123">
          20 -190 73 133 73 343 73 -9 -20 260 36 hstemhm
          -5 532 -251 66 hintmask 11011100
          hintmask 11101100
          -5 -78 rmoveto
          -70 24 76 -42 84 hhcurveto
          218 19 162 75 16 hvcurveto
          24 112 71 337 0 vvcurveto
          -62 hlineto
          -40 -78 -63 133 -297 7 -32 -300 rlinecurve
          -26 -249 252 -53 95 124 rrcurveto
          hintmask 11101010
          0 -10 -44 -3 -13 vhcurveto
          -18 -77 -30 -59 -100 -4 -65 -3 -36 34 -7 33 rrcurveto
          157 142 rmoveto
          -81 3 -52 62 13 102 rrcurveto
          111 14 57 65 82 hhcurveto
          75 65 -61 -115 -20 hvcurveto
          -17 -97 -54 -73 -82 3 rrcurveto
          177 683 rmoveto
          -70 -61 -42 -66 -12 hvcurveto
          -6 -32 10 -34 33 -21 59 29 rcurveline
          -23 11 -12 25 5 26 13 58 58 13 31 -3 rrcurveto
          endchar
        </CharString>
        <CharString name="uni0136">
          89 -251 36 236 -21 668 -20 hstem
          212 67 vstem
          14 hmoveto
          96 hlineto
          45 210 126 114 165 -324 rlineto
          105 hlineto
          -200 385 319 283 rlineto
          -130 hlineto
          -357 -323 69 323 rlineto
          -96 hlineto
          -20 -919 rmoveto
          70 61 42 66 12 hvcurveto
          6 32 -10 34 -33 21 -60 -29 rcurveline
          24 -11 12 -25 -6 -26 -12 -58 -59 -13 -30 3 rrcurveto
          endchar
        </CharString>
        <CharString name="uni0137">
          -46 -251 36 236 -21 496 -20 192 -20 hstem
          149 67 vstem
          8 hmoveto
          86 hlineto
          35 166 74 66 119 -232 rlineto
          94 hlineto
          -149 289 234 207 rlineto
          -112 hlineto
          -235 -211 82 383 rlineto
          -86 hlineto
          -77 -919 rmoveto
          70 61 42 66 12 hvcurveto
          6 32 -10 34 -34 21 -59 -29 rcurveline
          24 -11 12 -25 -6 -26 -12 -58 -59 -13 -30 3 rrcurveto
          endchar
        </CharString>
        <CharString name="uni013B">
          7 -252 36 216 81 587 -20 hstem
          197 67 vstem
          14 hmoveto
          455 hlineto
          17 81 rlineto
          -359 hlineto
          125 587 rlineto
          -96 hlineto
          -35 -920 rmoveto
          70 61 42 66 12 hvcurveto
          5 32 -9 34 -34 21 -59 -29 rcurveline
          24 -11 11 -25 -5 -26 -13 -58 -58 -13 -31 3 rrcurveto
          endchar
        </CharString>
        <CharString name="uni013C">
          -274 -251 36 215 75 593 -20 hstemhm
          28 91 -69 67 hintmask 11110000
          199 75 rmoveto
          0 -28 0 -9 -49 2 19 46 9 vhcurveto
          112 528 rlineto
          -86 hlineto
          -115 -543 rlineto
          -84 -17 5 -41 104 hhcurveto
          14 42 0 0 hvcurveto
          -209 -251 rmoveto
          hintmask 11101000
          70 61 42 66 12 hvcurveto
          6 32 -10 34 -33 21 -59 -29 rcurveline
          23 -11 12 -25 -6 -26 -12 -58 -59 -13 -30 3 rrcurveto
          endchar
        </CharString>
        <CharString name="uni0145">
          -251 36 215 94 -73 -21 576 92 0 -20 hstemhm
          257 67 hintmask 10101100
          14 hmoveto
          96 hlineto
          hintmask 10110100
          123 576 185 -576 rlineto
          137 hlineto
          142 668 rlineto
          -96 hlineto
          hintmask 11001100
          -122 -574 -186 574 rlineto
          -137 hlineto
          25 -919 rmoveto
          70 61 42 66 12 hvcurveto
          5 32 -9 34 -34 21 -59 -29 rcurveline
          24 -11 11 -25 -5 -26 -13 -58 -58 -13 -31 3 rrcurveto
          endchar
        </CharString>
        <CharString name="uni0146">
          16 -251 36 236 -21 430 74 -8 -20 hstemhm
          185 67 150 88 hintmask 11100100
          8 hmoveto
          86 hlineto
          54 257 rlineto
          130 28 71 43 72 hhcurveto
          76 22 -38 -113 -24 hvcurveto
          -59 -279 rlineto
          85 hlineto
          62 287 rlineto
          147 32 -52 70 -105 hhcurveto
          -89 -51 -34 -43 -33 hvcurveto
          hintmask 11011100
          -6 69 rlineto
          -64 hlineto
          -4 -747 rmoveto
          70 61 42 66 12 hvcurveto
          5 32 -9 34 -34 21 -59 -29 rcurveline
          24 -11 11 -25 -5 -26 -13 -58 -58 -13 -31 3 rrcurveto
          endchar
        </CharString>
        <CharString name="uni0162">
          24 -251 36 236 -21 587 81 hstem
          186 67 vstem
          169 hmoveto
          97 hlineto
          123 587 rlineto
          222 hlineto
          17 81 rlineto
          -538 hlineto
          -17 -81 rlineto
          220 hlineto
          -183 -838 rmoveto
          70 61 42 66 12 hvcurveto
          6 32 -10 34 -33 21 -60 -29 rcurveline
          24 -11 12 -25 -6 -26 -12 -58 -59 -13 -30 3 rrcurveto
          endchar
        </CharString>
        <CharString name="uni0163">
          -210 -251 36 216 75 353 68 hstemhm
          60 92 -84 67 hintmask 11110000
          239 76 rmoveto
          0 -33 0 -11 -49 1 18 47 10 vhcurveto
          62 288 rlineto
          95 hlineto
          14 68 rlineto
          -95 hlineto
          27 124 rlineto
          -86 hlineto
          -27 -124 rlineto
          -83 hlineto
          -14 -68 rlineto
          83 hlineto
          -65 -303 rlineto
          -84 -18 6 -41 105 hhcurveto
          15 47 0 0 hvcurveto
          -231 -252 rmoveto
          hintmask 11101000
          70 61 42 66 12 hvcurveto
          6 32 -10 34 -33 21 -59 -29 rcurveline
          23 -11 12 -25 -6 -26 -12 -58 -59 -13 -30 3 rrcurveto
          endchar
        </CharString>
        <CharString name="uni0218">
          75 -251 36 203 80 533 79 hstemhm
          87 95 28 67 169 98 hintmask 11110100
          36 147 rmoveto
          82 -243 426 50 243 vvcurveto
          226 -373 -81 11 163 vhcurveto
          9 124 227 0 51 -100 92 26 rcurveline
          -86 185 -388 -20 -225 -236 359 91 -166 vvcurveto
          -142 -267 -22 -52 152 vhcurveto
          7 -423 rmoveto
          hintmask 11111100
          70 61 42 66 12 hvcurveto
          6 32 -10 34 -33 21 -60 -29 rcurveline
          24 -11 12 -25 -6 -26 -12 -58 -59 -13 -30 3 rrcurveto
          endchar
        </CharString>
        <CharString name="uni0219">
          -55 -251 36 203 68 379 69 hstemhm
          49 85 12 67 112 88 hintmask 11110100
          10 113 rmoveto
          -89 34 69 -36 100 hhcurveto
          111 89 53 102 hvcurveto
          178 -279 -60 109 vvcurveto
          87 190 -2 27 -81 vhcurveto
          80 28 rlineto
          -55 147 -327 -12 -172 -180 276 64 -112 vvcurveto
          -102 -206 -14 -23 121 vhcurveto
          -26 -393 rmoveto
          hintmask 11111100
          70 61 42 66 12 hvcurveto
          5 32 -9 34 -34 21 -59 -29 rcurveline
          24 -11 11 -25 -5 -26 -13 -58 -58 -13 -31 3 rrcurveto
          endchar
        </CharString>
        <CharString name="uni021A">
          24 -251 36 236 -21 587 81 hstem
          184 67 vstem
          169 hmoveto
          97 hlineto
          123 587 rlineto
          222 hlineto
          17 81 rlineto
          -538 hlineto
          -17 -81 rlineto
          220 hlineto
          -185 -838 rmoveto
          70 61 42 66 12 hvcurveto
          6 32 -10 34 -33 21 -60 -29 rcurveline
          24 -11 12 -25 -6 -26 -12 -58 -59 -13 -30 3 rrcurveto
          endchar
        </CharString>
        <CharString name="uni021B">
          -210 -251 36 215 75 353 68 hstemhm
          59 92 -79 67 hintmask 11110000
          238 75 rmoveto
          0 -33 0 -11 -49 1 18 47 10 vhcurveto
          62 288 rlineto
          95 hlineto
          14 68 rlineto
          -95 hlineto
          27 124 rlineto
          -86 hlineto
          -27 -124 rlineto
          -83 hlineto
          -14 -68 rlineto
          83 hlineto
          -65 -303 rlineto
          -84 -18 6 -41 105 hhcurveto
          15 47 0 0 hvcurveto
          -226 -251 rmoveto
          hintmask 11101000
          70 61 42 66 12 hvcurveto
          6 32 -10 34 -33 21 -60 -29 rcurveline
          24 -11 12 -25 -6 -26 -12 -58 -59 -13 -30 3 rrcurveto
          endchar
        </CharString>
        <CharString name="uni02C9">
          -152 594 67 hstem
          117 290 vstem
          117 594 rmoveto
          276 hlineto
          14 67 rlineto
          -276 hlineto
          endchar
        </CharString>
        <CharString name="uni0326">
          -254 -251 36 hstem
          52 67 vstem
          -24 -251 rmoveto
          70 61 42 66 12 hvcurveto
          6 32 -10 34 -33 21 -60 -29 rcurveline
          24 -11 12 -25 -6 -26 -12 -58 -59 -13 -30 3 rrcurveto
          endchar
        </CharString>
        <CharString name="uni0394">
          225 0 78 602 -20 hstem
          -9 653 vstem
          -9 hmoveto
          653 hlineto
          -327 680 rlineto
          -201 -602 rmoveto
          201 420 201 -420 rlineto
          endchar
        </CharString>
        <CharString name="uni03A9">
          242 0 81 525 74 hstem
          77 73 78 85 115 85 78 73 vstem
          228 130 rmoveto
          -49 -151 -81 236 173 vlineto
          -94 25 -69 86 101 vvcurveto
          122 99 99 121 122 99 -99 -122 -101 -69 -86 -94 -25 vhcurveto
          -173 236 81 -151 49 vlineto
          90 50 61 96 109 vvcurveto
          163 -131 132 -163 -162 -131 -132 -163 -109 61 -96 90 -50 vhcurveto
          endchar
        </CharString>
        <CharString name="uni03BC">
          10 -12 69 -36 -21 495 -20 hstemhm
          105 27 hintmask 10110000
          -26 -162 rmoveto
          88 hlineto
          43 206 rlineto
          -38 17 37 -18 36 hhcurveto
          73 37 30 50 36 hvcurveto
          hintmask 01110000
          5 -68 rlineto
          65 hlineto
          106 495 rlineto
          -86 hlineto
          -55 -260 rlineto
          hintmask 10110000
          -141 -30 -63 -37 -59 hhcurveto
          -12 -11 2 2 -11 hvcurveto
          -53 11 -16 39 17 85 64 299 rcurveline
          -88 hlineto
          endchar
        </CharString>
        <CharString name="uni2113">
          -83 -12 73 548 70 hstem
          83 90 194 79 vstem
          98 188 rmoveto
          -7 -32 rlineto
          -119 -26 33 -49 101 hhcurveto
          56 55 25 29 35 hvcurveto
          -24 58 rlineto
          -22 -29 -33 -17 -34 hhcurveto
          -38 -25 17 73 15 hvcurveto
          21 100 142 90 94 83 12 123 rlinecurve
          90 9 -52 42 -72 hhcurveto
          -103 -38 -63 -110 -24 hvcurveto
          -49 -228 -78 -51 -19 -89 rlineto
          198 205 rmoveto
          37 174 rlineto
          71 15 18 21 38 hhcurveto
          32 18 -20 -53 -13 hvcurveto
          -19 -78 -46 -66 -80 -49 rrcurveto
          endchar
        </CharString>
        <CharString name="uni2215">
          -90 21 -21 668 -20 hstem
          -47 556 vstem
          -47 hmoveto
          88 hlineto
          468 668 rlineto
          -88 hlineto
          endchar
        </CharString>
        <CharString name="uni2219">
          -297 191 129 hstem
          46 129 vstem
          46 255 rmoveto
          -32 25 -32 40 35 29 30 35 35 -30 29 -34 -36 -29 -29 -36 vhcurveto
          endchar
        </CharString>
        <CharString name="uogonek">
          6 -173 57 105 73 434 -20 hstem
          40 87 96 77 vstem
          173 -11 rmoveto
          76 45 25 56 43 hvcurveto
          6 -65 rlineto
          -52 -16 -68 -33 -62 vvcurveto
          -37 29 -30 55 19 22 4 8 26 vhcurveto
          11 54 rlineto
          -6 -16 -15 -3 -13 hhcurveto
          -24 -17 11 16 34 45 32 63 23 hvcurveto
          105 496 rlineto
          -85 hlineto
          -56 -260 rlineto
          -124 -27 -64 -50 -78 hhcurveto
          -87 3 66 77 16 hvcurveto
          62 291 rlineto
          -86 hlineto
          -62 -293 rlineto
          -113 -24 21 -101 127 hhcurveto
          endchar
        </CharString>
        <CharString name="uring">
          6 -11 73 -41 -21 496 -20 83 58 102 58 hstemhm
          40 87 107 57 104 57 hintmask 10111111
          173 -11 rmoveto
          76 45 25 56 43 hvcurveto
          hintmask 01111111
          6 -70 rlineto
          65 hlineto
          105 496 rlineto
          -85 hlineto
          -56 -260 rlineto
          hintmask 10111111
          -124 -27 -64 -50 -78 hhcurveto
          -87 3 66 77 16 hvcurveto
          62 291 rlineto
          -86 hlineto
          -62 -293 rlineto
          -113 -24 21 -101 127 hhcurveto
          172 570 rmoveto
          61 46 50 59 59 -46 50 -61 -62 -49 -50 -59 -59 49 -50 62 hvcurveto
          -54 109 rmoveto
          28 23 23 29 29 23 -23 -28 -28 -23 -23 -29 -29 -23 23 28 vhcurveto
          endchar
        </CharString>
        <CharString name="v">
          -90 0 110 -89 -21 496 -20 hstemhm
          43 444 hintmask 01110000
          43 496 rmoveto
          72 -496 rlineto
          89 hlineto
          283 496 rlineto
          -98 hlineto
          hintmask 10110000
          -212 -386 -47 386 rlineto
          endchar
        </CharString>
        <CharString name="w">
          124 21 -21 400 96 0 -20 hstemhm
          358 60 hintmask 10110000
          80 hmoveto
          74 hlineto
          hintmask 11010000
          193 400 23 -400 rlineto
          82 hlineto
          249 496 rlineto
          -96 hlineto
          -176 -366 -20 366 rlineto
          -90 hlineto
          -172 -358 -17 358 rlineto
          -87 hlineto
          endchar
        </CharString>
        <CharString name="x">
          -71 21 -21 496 -20 hstem
          -62 568 vstem
          -62 hmoveto
          109 hlineto
          171 185 92 -185 rlineto
          90 hlineto
          -124 248 230 248 rlineto
          -109 hlineto
          -159 -171 -86 171 rlineto
          -90 hlineto
          118 -234 rlineto
          endchar
        </CharString>
        <CharString name="y">
          -99 -161 75 582 -20 hstem
          -62 540 vstem
          -62 -161 rmoveto
          43 hlineto
          125 17 18 122 68 hvcurveto
          287 517 rlineto
          -100 hlineto
          -206 -386 -40 386 rlineto
          -89 hlineto
          73 -496 rlineto
          -74 -36 -10 -12 -82 hhcurveto
          -34 hlineto
          endchar
        </CharString>
        <CharString name="yacute">
          -99 -161 75 582 -20 96 135 hstem
          -62 540 vstem
          -19 -161 rmoveto
          125 17 18 122 68 hvcurveto
          287 517 rlineto
          -100 hlineto
          -206 -386 -40 386 rlineto
          -89 hlineto
          73 -496 rlineto
          -74 -36 -10 -12 -82 hhcurveto
          -34 hlineto
          -16 -75 rlineto
          371 733 rmoveto
          0 78 52 20 17 vhcurveto
          15 13 2 25 -14 16 rrcurveto
          8 -8 -10 4 -11 hhcurveto
          -9 -9 -3 -6 -7 hvcurveto
          -20 -17 -101 -109 0 vvcurveto
          endchar
        </CharString>
        <CharString name="ydieresis">
          -99 -161 75 582 -20 114 107 hstem
          130 108 104 107 vstem
          -62 -161 rmoveto
          43 hlineto
          125 17 18 122 68 hvcurveto
          287 517 rlineto
          -100 hlineto
          -206 -386 -40 386 rlineto
          -89 hlineto
          73 -496 rlineto
          -74 -36 -10 -12 -82 hhcurveto
          -34 hlineto
          230 676 rmoveto
          30 24 24 30 29 -24 24 -30 -30 -24 -24 -29 -30 24 -24 30 hvcurveto
          158 54 rmoveto
          -30 24 -24 29 30 24 24 30 29 -24 24 -30 -29 -24 -24 -29 vhcurveto
          endchar
        </CharString>
        <CharString name="yen">
          64 0 137 -51 51 86 51 394 -20 hstemhm
          47 621 hintmask 10111000
          hintmask 01111000
          47 86 rmoveto
          149 hlineto
          hintmask 10111000
          -18 -86 rlineto
          97 hlineto
          hintmask 01111000
          18 86 rlineto
          146 hlineto
          hintmask 10111000
          11 51 rlineto
          -146 hlineto
          18 86 rlineto
          146 hlineto
          11 51 rlineto
          -127 hlineto
          316 394 rlineto
          -114 hlineto
          -263 -339 -105 339 rlineto
          -96 hlineto
          128 -394 rlineto
          -131 hlineto
          -11 -51 rlineto
          149 hlineto
          -18 -86 rlineto
          -149 hlineto
          endchar
        </CharString>
        <CharString name="z">
          -67 0 73 351 73 hstem
          -22 498 vstem
          -22 hmoveto
          397 hlineto
          15 73 rlineto
          -289 hlineto
          359 351 16 73 rlineto
          -377 hlineto
          -16 -73 rlineto
          272 hlineto
          -362 -351 rlineto
          endchar
        </CharString>
</ttFont>
